<?xml version='1.0' encoding='UTF-8' standalone='no'?>
<!-- Created with Fritzing (http://www.fritzing.org/) -->
<svg xmlns:svg='http://www.w3.org/2000/svg' xmlns='http://www.w3.org/2000/svg' version='1.2' baseProfile='tiny' x='0in' y='0in' width='1.83742in' height='2.55808in' viewBox='0 0 132.294 184.182' >
<g partID='57650'><g transform='translate(37.1601,5.6)' ><g xmlns="http://www.w3.org/2000/svg" id="schematic">
<line fill="none" stroke-linecap="round" xmlns="http://www.w3.org/2000/svg" id="connector0pin" y1="3.6" y2="3.6" x1="0.35" stroke-width="0.7" stroke="#000000" x2="7.471" stroke-linejoin="round"/>
<g y="3.504" fill="none" height="0.208" xmlns="http://www.w3.org/2000/svg" id="connector0terminal" width="0.546" x="-0.273"/>
<polyline fill="none" stroke-linecap="round" xmlns="http://www.w3.org/2000/svg" points="9.898,1.643,14.1,3.6,9.898,5.556" stroke-width="0.7" stroke="#000000" stroke-linejoin="round"/>
<line fill="none" stroke-linecap="round" xmlns="http://www.w3.org/2000/svg" id="line" y1="3.6" y2="3.6" x1="14.1" stroke-width="0.7" stroke="#000000" x2="4.781" stroke-linejoin="round"/>
<text y="2.58" fill="#8c8c8c" xmlns="http://www.w3.org/2000/svg" stroke-width="0" stroke="none" font-size="2.5" text-anchor="middle" font-family="'Droid Sans'" x="5.05" class="text">1</text>
<line fill="none" stroke-linecap="round" xmlns="http://www.w3.org/2000/svg" id="connector1pin" y1="10.8" y2="10.8" x1="0.35" stroke-width="0.7" stroke="#000000" x2="7.471" stroke-linejoin="round"/>
<g y="10.704" fill="none" height="0.208" xmlns="http://www.w3.org/2000/svg" id="connector1terminal" width="0.546" x="-0.273"/>
<polyline fill="none" stroke-linecap="round" xmlns="http://www.w3.org/2000/svg" points="9.898,8.843,14.1,10.8,9.898,12.756" stroke-width="0.7" stroke="#000000" stroke-linejoin="round"/>
<line fill="none" stroke-linecap="round" xmlns="http://www.w3.org/2000/svg" id="line" y1="10.8" y2="10.8" x1="14.1" stroke-width="0.7" stroke="#000000" x2="4.781" stroke-linejoin="round"/>
<text y="9.78" fill="#8c8c8c" xmlns="http://www.w3.org/2000/svg" stroke-width="0" stroke="none" font-size="2.5" text-anchor="middle" font-family="'Droid Sans'" x="5.05" class="text">2</text>
<line fill="none" stroke-linecap="round" xmlns="http://www.w3.org/2000/svg" id="connector2pin" y1="18" y2="18" x1="0.35" stroke-width="0.7" stroke="#000000" x2="7.471" stroke-linejoin="round"/>
<g y="17.904" fill="none" height="0.208" xmlns="http://www.w3.org/2000/svg" id="connector2terminal" width="0.546" x="-0.273"/>
<polyline fill="none" stroke-linecap="round" xmlns="http://www.w3.org/2000/svg" points="9.898,16.043,14.1,18,9.898,19.956" stroke-width="0.7" stroke="#000000" stroke-linejoin="round"/>
<line fill="none" stroke-linecap="round" xmlns="http://www.w3.org/2000/svg" id="line" y1="18" y2="18" x1="14.1" stroke-width="0.7" stroke="#000000" x2="4.781" stroke-linejoin="round"/>
<text y="16.98" fill="#8c8c8c" xmlns="http://www.w3.org/2000/svg" stroke-width="0" stroke="none" font-size="2.5" text-anchor="middle" font-family="'Droid Sans'" x="5.05" class="text">3</text>
<line fill="none" stroke-linecap="round" xmlns="http://www.w3.org/2000/svg" id="connector3pin" y1="25.2" y2="25.2" x1="0.35" stroke-width="0.7" stroke="#000000" x2="7.471" stroke-linejoin="round"/>
<g y="25.104" fill="none" height="0.208" xmlns="http://www.w3.org/2000/svg" id="connector3terminal" width="0.546" x="-0.273"/>
<polyline fill="none" stroke-linecap="round" xmlns="http://www.w3.org/2000/svg" points="9.898,23.243,14.1,25.2,9.898,27.156" stroke-width="0.7" stroke="#000000" stroke-linejoin="round"/>
<line fill="none" stroke-linecap="round" xmlns="http://www.w3.org/2000/svg" id="line" y1="25.2" y2="25.2" x1="14.1" stroke-width="0.7" stroke="#000000" x2="4.781" stroke-linejoin="round"/>
<text y="24.18" fill="#8c8c8c" xmlns="http://www.w3.org/2000/svg" stroke-width="0" stroke="none" font-size="2.5" text-anchor="middle" font-family="'Droid Sans'" x="5.05" class="text">4</text>
<line fill="none" stroke-linecap="round" xmlns="http://www.w3.org/2000/svg" id="connector4pin" y1="32.4" y2="32.4" x1="0.35" stroke-width="0.7" stroke="#000000" x2="7.471" stroke-linejoin="round"/>
<g y="32.304" fill="none" height="0.208" xmlns="http://www.w3.org/2000/svg" id="connector4terminal" width="0.546" x="-0.273"/>
<polyline fill="none" stroke-linecap="round" xmlns="http://www.w3.org/2000/svg" points="9.898,30.443,14.1,32.4,9.898,34.356" stroke-width="0.7" stroke="#000000" stroke-linejoin="round"/>
<line fill="none" stroke-linecap="round" xmlns="http://www.w3.org/2000/svg" id="line" y1="32.4" y2="32.4" x1="14.1" stroke-width="0.7" stroke="#000000" x2="4.781" stroke-linejoin="round"/>
<text y="31.38" fill="#8c8c8c" xmlns="http://www.w3.org/2000/svg" stroke-width="0" stroke="none" font-size="2.5" text-anchor="middle" font-family="'Droid Sans'" x="5.05" class="text">5</text>
<line fill="none" stroke-linecap="round" xmlns="http://www.w3.org/2000/svg" id="connector5pin" y1="39.6" y2="39.6" x1="0.35" stroke-width="0.7" stroke="#000000" x2="7.471" stroke-linejoin="round"/>
<g y="39.504" fill="none" height="0.208" xmlns="http://www.w3.org/2000/svg" id="connector5terminal" width="0.546" x="-0.273"/>
<polyline fill="none" stroke-linecap="round" xmlns="http://www.w3.org/2000/svg" points="9.898,37.643,14.1,39.6,9.898,41.556" stroke-width="0.7" stroke="#000000" stroke-linejoin="round"/>
<line fill="none" stroke-linecap="round" xmlns="http://www.w3.org/2000/svg" id="line" y1="39.6" y2="39.6" x1="14.1" stroke-width="0.7" stroke="#000000" x2="4.781" stroke-linejoin="round"/>
<text y="38.58" fill="#8c8c8c" xmlns="http://www.w3.org/2000/svg" stroke-width="0" stroke="none" font-size="2.5" text-anchor="middle" font-family="'Droid Sans'" x="5.05" class="text">6</text>
<line fill="none" stroke-linecap="round" xmlns="http://www.w3.org/2000/svg" id="connector6pin" y1="46.8" y2="46.8" x1="0.35" stroke-width="0.7" stroke="#000000" x2="7.471" stroke-linejoin="round"/>
<g y="46.704" fill="none" height="0.208" xmlns="http://www.w3.org/2000/svg" id="connector6terminal" width="0.546" x="-0.273"/>
<polyline fill="none" stroke-linecap="round" xmlns="http://www.w3.org/2000/svg" points="9.898,44.843,14.1,46.8,9.898,48.756" stroke-width="0.7" stroke="#000000" stroke-linejoin="round"/>
<line fill="none" stroke-linecap="round" xmlns="http://www.w3.org/2000/svg" id="line" y1="46.8" y2="46.8" x1="14.1" stroke-width="0.7" stroke="#000000" x2="4.781" stroke-linejoin="round"/>
<text y="45.78" fill="#8c8c8c" xmlns="http://www.w3.org/2000/svg" stroke-width="0" stroke="none" font-size="2.5" text-anchor="middle" font-family="'Droid Sans'" x="5.05" class="text">7</text>
<line fill="none" stroke-linecap="round" xmlns="http://www.w3.org/2000/svg" id="connector7pin" y1="54" y2="54" x1="0.35" stroke-width="0.7" stroke="#000000" x2="7.471" stroke-linejoin="round"/>
<g y="53.904" fill="none" height="0.208" xmlns="http://www.w3.org/2000/svg" id="connector7terminal" width="0.546" x="-0.273"/>
<polyline fill="none" stroke-linecap="round" xmlns="http://www.w3.org/2000/svg" points="9.898,52.043,14.1,54,9.898,55.956" stroke-width="0.7" stroke="#000000" stroke-linejoin="round"/>
<line fill="none" stroke-linecap="round" xmlns="http://www.w3.org/2000/svg" id="line" y1="54" y2="54" x1="14.1" stroke-width="0.7" stroke="#000000" x2="4.781" stroke-linejoin="round"/>
<text y="52.98" fill="#8c8c8c" xmlns="http://www.w3.org/2000/svg" stroke-width="0" stroke="none" font-size="2.5" text-anchor="middle" font-family="'Droid Sans'" x="5.05" class="text">8</text>
</g>
</g></g><g partID='57670'><g transform='translate(87.5601,5.6)' ><g xmlns="http://www.w3.org/2000/svg" id="schematic">
<line fill="none" stroke-linecap="round" xmlns="http://www.w3.org/2000/svg" id="connector0pin" y1="3.6" y2="3.6" x1="0.35" stroke-width="0.7" stroke="#000000" x2="7.471" stroke-linejoin="round"/>
<g y="3.504" fill="none" height="0.208" xmlns="http://www.w3.org/2000/svg" id="connector0terminal" width="0.546" x="-0.273"/>
<polyline fill="none" stroke-linecap="round" xmlns="http://www.w3.org/2000/svg" points="9.898,1.643,14.1,3.6,9.898,5.556" stroke-width="0.7" stroke="#000000" stroke-linejoin="round"/>
<line fill="none" stroke-linecap="round" xmlns="http://www.w3.org/2000/svg" id="line" y1="3.6" y2="3.6" x1="14.1" stroke-width="0.7" stroke="#000000" x2="4.781" stroke-linejoin="round"/>
<text y="2.58" fill="#8c8c8c" xmlns="http://www.w3.org/2000/svg" stroke-width="0" stroke="none" font-size="2.5" text-anchor="middle" font-family="'Droid Sans'" x="5.05" class="text">1</text>
<line fill="none" stroke-linecap="round" xmlns="http://www.w3.org/2000/svg" id="connector1pin" y1="10.8" y2="10.8" x1="0.35" stroke-width="0.7" stroke="#000000" x2="7.471" stroke-linejoin="round"/>
<g y="10.704" fill="none" height="0.208" xmlns="http://www.w3.org/2000/svg" id="connector1terminal" width="0.546" x="-0.273"/>
<polyline fill="none" stroke-linecap="round" xmlns="http://www.w3.org/2000/svg" points="9.898,8.843,14.1,10.8,9.898,12.756" stroke-width="0.7" stroke="#000000" stroke-linejoin="round"/>
<line fill="none" stroke-linecap="round" xmlns="http://www.w3.org/2000/svg" id="line" y1="10.8" y2="10.8" x1="14.1" stroke-width="0.7" stroke="#000000" x2="4.781" stroke-linejoin="round"/>
<text y="9.78" fill="#8c8c8c" xmlns="http://www.w3.org/2000/svg" stroke-width="0" stroke="none" font-size="2.5" text-anchor="middle" font-family="'Droid Sans'" x="5.05" class="text">2</text>
<line fill="none" stroke-linecap="round" xmlns="http://www.w3.org/2000/svg" id="connector2pin" y1="18" y2="18" x1="0.35" stroke-width="0.7" stroke="#000000" x2="7.471" stroke-linejoin="round"/>
<g y="17.904" fill="none" height="0.208" xmlns="http://www.w3.org/2000/svg" id="connector2terminal" width="0.546" x="-0.273"/>
<polyline fill="none" stroke-linecap="round" xmlns="http://www.w3.org/2000/svg" points="9.898,16.043,14.1,18,9.898,19.956" stroke-width="0.7" stroke="#000000" stroke-linejoin="round"/>
<line fill="none" stroke-linecap="round" xmlns="http://www.w3.org/2000/svg" id="line" y1="18" y2="18" x1="14.1" stroke-width="0.7" stroke="#000000" x2="4.781" stroke-linejoin="round"/>
<text y="16.98" fill="#8c8c8c" xmlns="http://www.w3.org/2000/svg" stroke-width="0" stroke="none" font-size="2.5" text-anchor="middle" font-family="'Droid Sans'" x="5.05" class="text">3</text>
<line fill="none" stroke-linecap="round" xmlns="http://www.w3.org/2000/svg" id="connector3pin" y1="25.2" y2="25.2" x1="0.35" stroke-width="0.7" stroke="#000000" x2="7.471" stroke-linejoin="round"/>
<g y="25.104" fill="none" height="0.208" xmlns="http://www.w3.org/2000/svg" id="connector3terminal" width="0.546" x="-0.273"/>
<polyline fill="none" stroke-linecap="round" xmlns="http://www.w3.org/2000/svg" points="9.898,23.243,14.1,25.2,9.898,27.156" stroke-width="0.7" stroke="#000000" stroke-linejoin="round"/>
<line fill="none" stroke-linecap="round" xmlns="http://www.w3.org/2000/svg" id="line" y1="25.2" y2="25.2" x1="14.1" stroke-width="0.7" stroke="#000000" x2="4.781" stroke-linejoin="round"/>
<text y="24.18" fill="#8c8c8c" xmlns="http://www.w3.org/2000/svg" stroke-width="0" stroke="none" font-size="2.5" text-anchor="middle" font-family="'Droid Sans'" x="5.05" class="text">4</text>
<line fill="none" stroke-linecap="round" xmlns="http://www.w3.org/2000/svg" id="connector4pin" y1="32.4" y2="32.4" x1="0.35" stroke-width="0.7" stroke="#000000" x2="7.471" stroke-linejoin="round"/>
<g y="32.304" fill="none" height="0.208" xmlns="http://www.w3.org/2000/svg" id="connector4terminal" width="0.546" x="-0.273"/>
<polyline fill="none" stroke-linecap="round" xmlns="http://www.w3.org/2000/svg" points="9.898,30.443,14.1,32.4,9.898,34.356" stroke-width="0.7" stroke="#000000" stroke-linejoin="round"/>
<line fill="none" stroke-linecap="round" xmlns="http://www.w3.org/2000/svg" id="line" y1="32.4" y2="32.4" x1="14.1" stroke-width="0.7" stroke="#000000" x2="4.781" stroke-linejoin="round"/>
<text y="31.38" fill="#8c8c8c" xmlns="http://www.w3.org/2000/svg" stroke-width="0" stroke="none" font-size="2.5" text-anchor="middle" font-family="'Droid Sans'" x="5.05" class="text">5</text>
<line fill="none" stroke-linecap="round" xmlns="http://www.w3.org/2000/svg" id="connector5pin" y1="39.6" y2="39.6" x1="0.35" stroke-width="0.7" stroke="#000000" x2="7.471" stroke-linejoin="round"/>
<g y="39.504" fill="none" height="0.208" xmlns="http://www.w3.org/2000/svg" id="connector5terminal" width="0.546" x="-0.273"/>
<polyline fill="none" stroke-linecap="round" xmlns="http://www.w3.org/2000/svg" points="9.898,37.643,14.1,39.6,9.898,41.556" stroke-width="0.7" stroke="#000000" stroke-linejoin="round"/>
<line fill="none" stroke-linecap="round" xmlns="http://www.w3.org/2000/svg" id="line" y1="39.6" y2="39.6" x1="14.1" stroke-width="0.7" stroke="#000000" x2="4.781" stroke-linejoin="round"/>
<text y="38.58" fill="#8c8c8c" xmlns="http://www.w3.org/2000/svg" stroke-width="0" stroke="none" font-size="2.5" text-anchor="middle" font-family="'Droid Sans'" x="5.05" class="text">6</text>
<line fill="none" stroke-linecap="round" xmlns="http://www.w3.org/2000/svg" id="connector6pin" y1="46.8" y2="46.8" x1="0.35" stroke-width="0.7" stroke="#000000" x2="7.471" stroke-linejoin="round"/>
<g y="46.704" fill="none" height="0.208" xmlns="http://www.w3.org/2000/svg" id="connector6terminal" width="0.546" x="-0.273"/>
<polyline fill="none" stroke-linecap="round" xmlns="http://www.w3.org/2000/svg" points="9.898,44.843,14.1,46.8,9.898,48.756" stroke-width="0.7" stroke="#000000" stroke-linejoin="round"/>
<line fill="none" stroke-linecap="round" xmlns="http://www.w3.org/2000/svg" id="line" y1="46.8" y2="46.8" x1="14.1" stroke-width="0.7" stroke="#000000" x2="4.781" stroke-linejoin="round"/>
<text y="45.78" fill="#8c8c8c" xmlns="http://www.w3.org/2000/svg" stroke-width="0" stroke="none" font-size="2.5" text-anchor="middle" font-family="'Droid Sans'" x="5.05" class="text">7</text>
<line fill="none" stroke-linecap="round" xmlns="http://www.w3.org/2000/svg" id="connector7pin" y1="54" y2="54" x1="0.35" stroke-width="0.7" stroke="#000000" x2="7.471" stroke-linejoin="round"/>
<g y="53.904" fill="none" height="0.208" xmlns="http://www.w3.org/2000/svg" id="connector7terminal" width="0.546" x="-0.273"/>
<polyline fill="none" stroke-linecap="round" xmlns="http://www.w3.org/2000/svg" points="9.898,52.043,14.1,54,9.898,55.956" stroke-width="0.7" stroke="#000000" stroke-linejoin="round"/>
<line fill="none" stroke-linecap="round" xmlns="http://www.w3.org/2000/svg" id="line" y1="54" y2="54" x1="14.1" stroke-width="0.7" stroke="#000000" x2="4.781" stroke-linejoin="round"/>
<text y="52.98" fill="#8c8c8c" xmlns="http://www.w3.org/2000/svg" stroke-width="0" stroke="none" font-size="2.5" text-anchor="middle" font-family="'Droid Sans'" x="5.05" class="text">8</text>
</g>
</g></g><g partID='57870'><g transform='translate(59.9596,113.028)' ><g transform='matrix(0,1,-1,0,0,0)'  ><g xmlns="http://www.w3.org/2000/svg" id="schematic">
<path fill="#787878" xmlns="http://www.w3.org/2000/svg" d="M34.179,9.778l0.875,0c0.188,0,0.354,0.015,0.495,0.043c0.144,0.029,0.265,0.075,0.356,0.139c0.099,0.063,0.171,0.147,0.218,0.251c0.049,0.103,0.071,0.23,0.071,0.381c0,0.091,-0.014,0.176,-0.043,0.255c-0.026,0.079,-0.067,0.148,-0.123,0.209c-0.055,0.06,-0.12,0.11,-0.2,0.15s-0.17,0.066,-0.271,0.08l0,0.021c0.102,0.018,0.195,0.043,0.284,0.076c0.089,0.033,0.166,0.078,0.229,0.137c0.066,0.058,0.119,0.131,0.156,0.219c0.039,0.088,0.06,0.194,0.06,0.32c0,0.146,-0.024,0.277,-0.072,0.393c-0.047,0.114,-0.116,0.212,-0.207,0.292c-0.09,0.08,-0.198,0.141,-0.327,0.184c-0.13,0.042,-0.273,0.063,-0.438,0.063l-1.063,0L34.179,9.778zM34.586,11.142l0.535,0c0.123,0,0.228,-0.012,0.312,-0.033c0.084,-0.022,0.149,-0.055,0.201,-0.098c0.053,-0.044,0.09,-0.098,0.11,-0.163c0.022,-0.065,0.034,-0.141,0.034,-0.228c0,-0.176,-0.057,-0.302,-0.17,-0.378c-0.112,-0.076,-0.291,-0.114,-0.532,-0.114l-0.49,0L34.586,11.142zM34.586,11.483l0,1.16l0.584,0c0.129,0,0.235,-0.014,0.324,-0.043c0.088,-0.029,0.157,-0.07,0.211,-0.123s0.092,-0.116,0.114,-0.19c0.022,-0.074,0.035,-0.155,0.035,-0.245c0,-0.082,-0.013,-0.157,-0.037,-0.227c-0.022,-0.068,-0.063,-0.128,-0.116,-0.177c-0.056,-0.049,-0.13,-0.087,-0.22,-0.114c-0.092,-0.027,-0.205,-0.041,-0.338,-0.041L34.586,11.483z"/>
<path xmlns="http://www.w3.org/2000/svg" d="M18.565,15.1c-0.193,0,-0.35,-0.157,-0.35,-0.35l0,-7.2c0,-0.193,0.157,-0.35,0.35,-0.35s0.35,0.157,0.35,0.35l0,7.2C18.916,14.943,18.758,15.1,18.565,15.1z"/>
<path fill="none" xmlns="http://www.w3.org/2000/svg" d="M18.565,7.55L18.565,7.55L18.565,7.55z"/>
<path fill="#787878" xmlns="http://www.w3.org/2000/svg" d="M21.059,11.295l1.063,0l0,1.575c-0.081,0.026,-0.162,0.05,-0.243,0.07c-0.083,0.021,-0.167,0.038,-0.254,0.052c-0.086,0.014,-0.178,0.024,-0.271,0.032c-0.096,0.007,-0.197,0.011,-0.309,0.011c-0.229,0,-0.434,-0.038,-0.61,-0.115c-0.176,-0.077,-0.327,-0.187,-0.448,-0.33c-0.121,-0.143,-0.213,-0.316,-0.276,-0.521c-0.063,-0.205,-0.095,-0.434,-0.095,-0.688c0,-0.252,0.035,-0.479,0.104,-0.684c0.07,-0.203,0.171,-0.377,0.305,-0.521c0.133,-0.143,0.297,-0.253,0.493,-0.33c0.195,-0.076,0.418,-0.115,0.668,-0.115c0.163,0,0.318,0.017,0.47,0.049c0.147,0.032,0.287,0.079,0.418,0.141l-0.158,0.355c-0.053,-0.024,-0.11,-0.048,-0.172,-0.07c-0.062,-0.021,-0.123,-0.041,-0.188,-0.058c-0.064,-0.018,-0.131,-0.03,-0.197,-0.041c-0.068,-0.01,-0.137,-0.016,-0.205,-0.016c-0.178,0,-0.336,0.03,-0.475,0.089c-0.137,0.06,-0.252,0.146,-0.346,0.257c-0.094,0.111,-0.164,0.246,-0.211,0.406c-0.049,0.159,-0.073,0.34,-0.073,0.54c0,0.19,0.021,0.365,0.062,0.523c0.039,0.158,0.104,0.294,0.191,0.408c0.088,0.114,0.201,0.203,0.34,0.267c0.141,0.063,0.307,0.094,0.504,0.094c0.064,0,0.123,-0.002,0.178,-0.005c0.054,-0.004,0.103,-0.009,0.146,-0.015c0.046,-0.006,0.089,-0.013,0.129,-0.021c0.041,-0.009,0.08,-0.016,0.117,-0.023l0,-0.958L21.06,11.653L21.059,11.295L21.059,11.295z"/>
<path xmlns="http://www.w3.org/2000/svg" d="M32.963,15.1c-0.192,0,-0.351,-0.157,-0.351,-0.35L32.612,7.9L4.515,7.9l0,6.85c0,0.193,-0.157,0.35,-0.35,0.35s-0.35,-0.157,-0.35,-0.35L3.815,7.2l29.499,0l0,7.55C33.313,14.943,33.155,15.1,32.963,15.1z"/>
<path fill="#787878" xmlns="http://www.w3.org/2000/svg" d="M5.787,11.664l0,1.327L5.379,12.991L5.379,9.778l0.782,0c0.389,0,0.677,0.076,0.863,0.227c0.186,0.151,0.279,0.38,0.279,0.686c0,0.128,-0.018,0.239,-0.054,0.334c-0.036,0.096,-0.083,0.177,-0.143,0.245s-0.127,0.125,-0.204,0.171c-0.076,0.045,-0.154,0.082,-0.235,0.111l0.875,1.439L7.061,12.991L6.29,11.664L5.787,11.664zM5.787,11.317l0.36,0c0.132,0,0.244,-0.014,0.336,-0.039c0.092,-0.025,0.168,-0.063,0.228,-0.114c0.059,-0.051,0.103,-0.113,0.129,-0.188c0.027,-0.076,0.041,-0.164,0.041,-0.266c0,-0.105,-0.015,-0.194,-0.045,-0.268c-0.03,-0.073,-0.075,-0.133,-0.136,-0.18c-0.061,-0.046,-0.138,-0.08,-0.231,-0.102c-0.093,-0.021,-0.203,-0.032,-0.331,-0.032L5.787,10.128L5.787,11.317z"/>
<path xmlns="http://www.w3.org/2000/svg" d="M36.563,15.1l-3.602,0c-0.193,0,-0.35,-0.157,-0.35,-0.35s0.156,-0.35,0.35,-0.35l3.602,0c0.193,0,0.352,0.157,0.352,0.35S36.758,15.1,36.563,15.1z"/>
<path xmlns="http://www.w3.org/2000/svg" d="M32.963,15.1l-3.598,0c-0.193,0,-0.351,-0.157,-0.351,-0.35s0.155,-0.35,0.351,-0.35l3.598,0c0.192,0,0.351,0.157,0.351,0.35S33.155,15.1,32.963,15.1z"/>
<polygon fill="#FFFFFF" xmlns="http://www.w3.org/2000/svg" points="36.563,21.951,32.963,21.951,29.365,21.951,32.963,14.75"/>
<path xmlns="http://www.w3.org/2000/svg" d="M37.131,22.3l-8.332,0l4.164,-8.333L37.131,22.3zM29.933,21.599l6.065,0l-3.035,-6.066L29.933,21.599z"/>
<path xmlns="http://www.w3.org/2000/svg" d="M32.963,22.175c-0.124,0,-0.226,-0.102,-0.226,-0.225L32.737,14.75c0,-0.124,0.102,-0.225,0.226,-0.225s0.226,0.101,0.226,0.225l0,7.201C33.188,22.074,33.087,22.175,32.963,22.175z"/>
<path xmlns="http://www.w3.org/2000/svg" d="M37.582,16.414c-0.06,0,-0.115,-0.021,-0.159,-0.063c-0.088,-0.088,-0.088,-0.229,0,-0.317l2.34,-2.34c0.088,-0.088,0.229,-0.088,0.318,0c0.088,0.088,0.088,0.23,0,0.318L37.74,16.35C37.696,16.392,37.64,16.414,37.582,16.414z"/>
<path xmlns="http://www.w3.org/2000/svg" d="M37.224,13.176c-0.059,0,-0.115,-0.022,-0.158,-0.066c-0.09,-0.088,-0.09,-0.23,0,-0.318l2.34,-2.34c0.088,-0.088,0.229,-0.088,0.316,0s0.088,0.23,0,0.318l-2.34,2.34C37.338,13.154,37.278,13.176,37.224,13.176z"/>
<path xmlns="http://www.w3.org/2000/svg" d="M41.542,12.231l-1.08,2.52l-1.438,-1.439L41.542,12.231z"/>
<path xmlns="http://www.w3.org/2000/svg" d="M41.183,8.991l-1.078,2.52l-1.438,-1.438L41.183,8.991z"/>
<path xmlns="http://www.w3.org/2000/svg" d="M22.165,15.1l-3.599,0c-0.193,0,-0.35,-0.157,-0.35,-0.35s0.157,-0.35,0.35,-0.35l3.599,0c0.193,0,0.35,0.157,0.35,0.35S22.358,15.1,22.165,15.1z"/>
<path xmlns="http://www.w3.org/2000/svg" d="M18.565,15.1l-3.601,0c-0.193,0,-0.35,-0.157,-0.35,-0.35s0.157,-0.35,0.35,-0.35l3.601,0c0.193,0,0.35,0.157,0.35,0.35S18.758,15.1,18.565,15.1z"/>
<polygon fill="#FFFFFF" xmlns="http://www.w3.org/2000/svg" points="22.165,21.951,18.565,21.951,14.964,21.951,18.565,14.75"/>
<path xmlns="http://www.w3.org/2000/svg" d="M22.731,22.3l-8.333,0l4.167,-8.333L22.731,22.3zM15.53,21.599l6.067,0l-3.033,-6.066L15.53,21.599z"/>
<path xmlns="http://www.w3.org/2000/svg" d="M18.565,22.175c-0.124,0,-0.225,-0.102,-0.225,-0.225L18.34,14.75c0,-0.124,0.101,-0.225,0.225,-0.225s0.225,0.101,0.225,0.225l0,7.201C18.791,22.074,18.689,22.175,18.565,22.175z"/>
<path xmlns="http://www.w3.org/2000/svg" d="M23.183,16.414c-0.058,0,-0.113,-0.021,-0.158,-0.063c-0.088,-0.088,-0.088,-0.229,0,-0.317l2.342,-2.34c0.088,-0.088,0.229,-0.088,0.316,0c0.09,0.088,0.09,0.23,0,0.318l-2.341,2.339C23.298,16.392,23.24,16.414,23.183,16.414z"/>
<path xmlns="http://www.w3.org/2000/svg" d="M22.821,13.176c-0.057,0,-0.114,-0.022,-0.159,-0.066c-0.088,-0.088,-0.088,-0.23,0,-0.318l2.34,-2.34c0.088,-0.088,0.229,-0.088,0.317,0s0.088,0.23,0,0.318l-2.34,2.34C22.938,13.154,22.88,13.176,22.821,13.176z"/>
<path xmlns="http://www.w3.org/2000/svg" d="M27.144,12.231l-1.08,2.52l-1.438,-1.439L27.144,12.231z"/>
<path xmlns="http://www.w3.org/2000/svg" d="M26.783,8.991l-1.08,2.52l-1.438,-1.438L26.783,8.991z"/>
<path xmlns="http://www.w3.org/2000/svg" d="M7.766,15.1L4.165,15.1c-0.193,0,-0.35,-0.157,-0.35,-0.35s0.157,-0.35,0.35,-0.35l3.601,0c0.193,0,0.35,0.157,0.35,0.35S7.959,15.1,7.766,15.1z"/>
<path xmlns="http://www.w3.org/2000/svg" d="M4.165,15.1L0.566,15.1c-0.193,0,-0.35,-0.157,-0.35,-0.35s0.157,-0.35,0.35,-0.35l3.599,0c0.193,0,0.35,0.157,0.35,0.35S4.359,15.1,4.165,15.1z"/>
<polygon fill="#FFFFFF" xmlns="http://www.w3.org/2000/svg" points="7.766,21.951,4.165,21.951,0.566,21.951,4.165,14.75"/>
<path xmlns="http://www.w3.org/2000/svg" d="M8.332,22.3L0,22.3l4.166,-8.333L8.332,22.3zM1.133,21.599L7.2,21.599l-3.034,-6.066L1.133,21.599z"/>
<path xmlns="http://www.w3.org/2000/svg" d="M4.165,22.175c-0.124,0,-0.225,-0.102,-0.225,-0.225L3.94,14.75c0,-0.124,0.101,-0.225,0.225,-0.225S4.39,14.626,4.39,14.75l0,7.201C4.39,22.074,4.289,22.175,4.165,22.175z"/>
<path xmlns="http://www.w3.org/2000/svg" d="M8.783,16.414c-0.058,0,-0.115,-0.021,-0.159,-0.063c-0.088,-0.088,-0.088,-0.229,0,-0.317l2.339,-2.34c0.088,-0.088,0.23,-0.088,0.318,0c0.088,0.088,0.088,0.23,0,0.318L8.942,16.35C8.898,16.392,8.841,16.414,8.783,16.414z"/>
<path xmlns="http://www.w3.org/2000/svg" d="M8.422,13.176c-0.058,0,-0.115,-0.022,-0.159,-0.066c-0.087,-0.088,-0.087,-0.23,0,-0.318l2.341,-2.34c0.088,-0.088,0.23,-0.088,0.318,0s0.088,0.23,0,0.318l-2.341,2.34C8.537,13.154,8.48,13.176,8.422,13.176z"/>
<path xmlns="http://www.w3.org/2000/svg" d="M12.743,12.231l-1.08,2.52l-1.439,-1.439L12.743,12.231z"/>
<path xmlns="http://www.w3.org/2000/svg" d="M12.382,8.991l-1.08,2.52l-1.438,-1.438L12.382,8.991z"/>
<g xmlns="http://www.w3.org/2000/svg">
<path fill="#787878" xmlns="http://www.w3.org/2000/svg" id="connector3pin" d="M32.964,29.5c-0.193,0,-0.35,-0.156,-0.35,-0.35l0,-7.199c0,-0.193,0.156,-0.352,0.35,-0.352c0.194,0,0.35,0.156,0.35,0.352l0,7.199C33.313,29.343,33.157,29.5,32.964,29.5z"/>
<g y="27.167" fill="none" height="2.397" xmlns="http://www.w3.org/2000/svg" id="connector3terminal" width="0.75" x="32.663"/>
<path fill="#787878" xmlns="http://www.w3.org/2000/svg" id="connector1pin" d="M18.567,7.9c-0.193,0,-0.35,-0.157,-0.35,-0.35l0,-7.2c0,-0.193,0.157,-0.35,0.35,-0.35s0.35,0.157,0.35,0.35l0,7.2C18.917,7.744,18.76,7.9,18.567,7.9z"/>
<g fill="none" height="2.399" xmlns="http://www.w3.org/2000/svg" id="connector1terminal" width="0.75" x="18.205"/>
<path fill="#787878" xmlns="http://www.w3.org/2000/svg" id="connector2pin" d="M18.566,29.5c-0.193,0,-0.35,-0.156,-0.35,-0.35l0,-7.199c0,-0.193,0.157,-0.352,0.35,-0.352s0.35,0.156,0.35,0.352l0,7.199C18.916,29.343,18.759,29.5,18.566,29.5z"/>
<g y="27.167" fill="none" height="2.397" xmlns="http://www.w3.org/2000/svg" id="connector2terminal" width="0.75" x="18.163"/>
<path fill="#787878" xmlns="http://www.w3.org/2000/svg" id="connector0pin" d="M4.165,29.5c-0.193,0,-0.35,-0.156,-0.35,-0.35l0,-7.199c0,-0.193,0.157,-0.352,0.35,-0.352s0.35,0.156,0.35,0.352l0,7.199C4.515,29.343,4.359,29.5,4.165,29.5z"/>
<g y="27.167" fill="none" height="2.397" xmlns="http://www.w3.org/2000/svg" id="connector0terminal" width="0.75" x="3.726"/>
</g>
</g>
</g></g></g><g partID='57890'><g transform='translate(59.9596,69.828)' ><g transform='matrix(0,1,-1,0,0,0)'  ><g xmlns="http://www.w3.org/2000/svg" id="schematic">
<path fill="#787878" xmlns="http://www.w3.org/2000/svg" d="M34.179,9.778l0.875,0c0.188,0,0.354,0.015,0.495,0.043c0.144,0.029,0.265,0.075,0.356,0.139c0.099,0.063,0.171,0.147,0.218,0.251c0.049,0.103,0.071,0.23,0.071,0.381c0,0.091,-0.014,0.176,-0.043,0.255c-0.026,0.079,-0.067,0.148,-0.123,0.209c-0.055,0.06,-0.12,0.11,-0.2,0.15s-0.17,0.066,-0.271,0.08l0,0.021c0.102,0.018,0.195,0.043,0.284,0.076c0.089,0.033,0.166,0.078,0.229,0.137c0.066,0.058,0.119,0.131,0.156,0.219c0.039,0.088,0.06,0.194,0.06,0.32c0,0.146,-0.024,0.277,-0.072,0.393c-0.047,0.114,-0.116,0.212,-0.207,0.292c-0.09,0.08,-0.198,0.141,-0.327,0.184c-0.13,0.042,-0.273,0.063,-0.438,0.063l-1.063,0L34.179,9.778zM34.586,11.142l0.535,0c0.123,0,0.228,-0.012,0.312,-0.033c0.084,-0.022,0.149,-0.055,0.201,-0.098c0.053,-0.044,0.09,-0.098,0.11,-0.163c0.022,-0.065,0.034,-0.141,0.034,-0.228c0,-0.176,-0.057,-0.302,-0.17,-0.378c-0.112,-0.076,-0.291,-0.114,-0.532,-0.114l-0.49,0L34.586,11.142zM34.586,11.483l0,1.16l0.584,0c0.129,0,0.235,-0.014,0.324,-0.043c0.088,-0.029,0.157,-0.07,0.211,-0.123s0.092,-0.116,0.114,-0.19c0.022,-0.074,0.035,-0.155,0.035,-0.245c0,-0.082,-0.013,-0.157,-0.037,-0.227c-0.022,-0.068,-0.063,-0.128,-0.116,-0.177c-0.056,-0.049,-0.13,-0.087,-0.22,-0.114c-0.092,-0.027,-0.205,-0.041,-0.338,-0.041L34.586,11.483z"/>
<path xmlns="http://www.w3.org/2000/svg" d="M18.565,15.1c-0.193,0,-0.35,-0.157,-0.35,-0.35l0,-7.2c0,-0.193,0.157,-0.35,0.35,-0.35s0.35,0.157,0.35,0.35l0,7.2C18.916,14.943,18.758,15.1,18.565,15.1z"/>
<path fill="none" xmlns="http://www.w3.org/2000/svg" d="M18.565,7.55L18.565,7.55L18.565,7.55z"/>
<path fill="#787878" xmlns="http://www.w3.org/2000/svg" d="M21.059,11.295l1.063,0l0,1.575c-0.081,0.026,-0.162,0.05,-0.243,0.07c-0.083,0.021,-0.167,0.038,-0.254,0.052c-0.086,0.014,-0.178,0.024,-0.271,0.032c-0.096,0.007,-0.197,0.011,-0.309,0.011c-0.229,0,-0.434,-0.038,-0.61,-0.115c-0.176,-0.077,-0.327,-0.187,-0.448,-0.33c-0.121,-0.143,-0.213,-0.316,-0.276,-0.521c-0.063,-0.205,-0.095,-0.434,-0.095,-0.688c0,-0.252,0.035,-0.479,0.104,-0.684c0.07,-0.203,0.171,-0.377,0.305,-0.521c0.133,-0.143,0.297,-0.253,0.493,-0.33c0.195,-0.076,0.418,-0.115,0.668,-0.115c0.163,0,0.318,0.017,0.47,0.049c0.147,0.032,0.287,0.079,0.418,0.141l-0.158,0.355c-0.053,-0.024,-0.11,-0.048,-0.172,-0.07c-0.062,-0.021,-0.123,-0.041,-0.188,-0.058c-0.064,-0.018,-0.131,-0.03,-0.197,-0.041c-0.068,-0.01,-0.137,-0.016,-0.205,-0.016c-0.178,0,-0.336,0.03,-0.475,0.089c-0.137,0.06,-0.252,0.146,-0.346,0.257c-0.094,0.111,-0.164,0.246,-0.211,0.406c-0.049,0.159,-0.073,0.34,-0.073,0.54c0,0.19,0.021,0.365,0.062,0.523c0.039,0.158,0.104,0.294,0.191,0.408c0.088,0.114,0.201,0.203,0.34,0.267c0.141,0.063,0.307,0.094,0.504,0.094c0.064,0,0.123,-0.002,0.178,-0.005c0.054,-0.004,0.103,-0.009,0.146,-0.015c0.046,-0.006,0.089,-0.013,0.129,-0.021c0.041,-0.009,0.08,-0.016,0.117,-0.023l0,-0.958L21.06,11.653L21.059,11.295L21.059,11.295z"/>
<path xmlns="http://www.w3.org/2000/svg" d="M32.963,15.1c-0.192,0,-0.351,-0.157,-0.351,-0.35L32.612,7.9L4.515,7.9l0,6.85c0,0.193,-0.157,0.35,-0.35,0.35s-0.35,-0.157,-0.35,-0.35L3.815,7.2l29.499,0l0,7.55C33.313,14.943,33.155,15.1,32.963,15.1z"/>
<path fill="#787878" xmlns="http://www.w3.org/2000/svg" d="M5.787,11.664l0,1.327L5.379,12.991L5.379,9.778l0.782,0c0.389,0,0.677,0.076,0.863,0.227c0.186,0.151,0.279,0.38,0.279,0.686c0,0.128,-0.018,0.239,-0.054,0.334c-0.036,0.096,-0.083,0.177,-0.143,0.245s-0.127,0.125,-0.204,0.171c-0.076,0.045,-0.154,0.082,-0.235,0.111l0.875,1.439L7.061,12.991L6.29,11.664L5.787,11.664zM5.787,11.317l0.36,0c0.132,0,0.244,-0.014,0.336,-0.039c0.092,-0.025,0.168,-0.063,0.228,-0.114c0.059,-0.051,0.103,-0.113,0.129,-0.188c0.027,-0.076,0.041,-0.164,0.041,-0.266c0,-0.105,-0.015,-0.194,-0.045,-0.268c-0.03,-0.073,-0.075,-0.133,-0.136,-0.18c-0.061,-0.046,-0.138,-0.08,-0.231,-0.102c-0.093,-0.021,-0.203,-0.032,-0.331,-0.032L5.787,10.128L5.787,11.317z"/>
<path xmlns="http://www.w3.org/2000/svg" d="M36.563,15.1l-3.602,0c-0.193,0,-0.35,-0.157,-0.35,-0.35s0.156,-0.35,0.35,-0.35l3.602,0c0.193,0,0.352,0.157,0.352,0.35S36.758,15.1,36.563,15.1z"/>
<path xmlns="http://www.w3.org/2000/svg" d="M32.963,15.1l-3.598,0c-0.193,0,-0.351,-0.157,-0.351,-0.35s0.155,-0.35,0.351,-0.35l3.598,0c0.192,0,0.351,0.157,0.351,0.35S33.155,15.1,32.963,15.1z"/>
<polygon fill="#FFFFFF" xmlns="http://www.w3.org/2000/svg" points="36.563,21.951,32.963,21.951,29.365,21.951,32.963,14.75"/>
<path xmlns="http://www.w3.org/2000/svg" d="M37.131,22.3l-8.332,0l4.164,-8.333L37.131,22.3zM29.933,21.599l6.065,0l-3.035,-6.066L29.933,21.599z"/>
<path xmlns="http://www.w3.org/2000/svg" d="M32.963,22.175c-0.124,0,-0.226,-0.102,-0.226,-0.225L32.737,14.75c0,-0.124,0.102,-0.225,0.226,-0.225s0.226,0.101,0.226,0.225l0,7.201C33.188,22.074,33.087,22.175,32.963,22.175z"/>
<path xmlns="http://www.w3.org/2000/svg" d="M37.582,16.414c-0.06,0,-0.115,-0.021,-0.159,-0.063c-0.088,-0.088,-0.088,-0.229,0,-0.317l2.34,-2.34c0.088,-0.088,0.229,-0.088,0.318,0c0.088,0.088,0.088,0.23,0,0.318L37.74,16.35C37.696,16.392,37.64,16.414,37.582,16.414z"/>
<path xmlns="http://www.w3.org/2000/svg" d="M37.224,13.176c-0.059,0,-0.115,-0.022,-0.158,-0.066c-0.09,-0.088,-0.09,-0.23,0,-0.318l2.34,-2.34c0.088,-0.088,0.229,-0.088,0.316,0s0.088,0.23,0,0.318l-2.34,2.34C37.338,13.154,37.278,13.176,37.224,13.176z"/>
<path xmlns="http://www.w3.org/2000/svg" d="M41.542,12.231l-1.08,2.52l-1.438,-1.439L41.542,12.231z"/>
<path xmlns="http://www.w3.org/2000/svg" d="M41.183,8.991l-1.078,2.52l-1.438,-1.438L41.183,8.991z"/>
<path xmlns="http://www.w3.org/2000/svg" d="M22.165,15.1l-3.599,0c-0.193,0,-0.35,-0.157,-0.35,-0.35s0.157,-0.35,0.35,-0.35l3.599,0c0.193,0,0.35,0.157,0.35,0.35S22.358,15.1,22.165,15.1z"/>
<path xmlns="http://www.w3.org/2000/svg" d="M18.565,15.1l-3.601,0c-0.193,0,-0.35,-0.157,-0.35,-0.35s0.157,-0.35,0.35,-0.35l3.601,0c0.193,0,0.35,0.157,0.35,0.35S18.758,15.1,18.565,15.1z"/>
<polygon fill="#FFFFFF" xmlns="http://www.w3.org/2000/svg" points="22.165,21.951,18.565,21.951,14.964,21.951,18.565,14.75"/>
<path xmlns="http://www.w3.org/2000/svg" d="M22.731,22.3l-8.333,0l4.167,-8.333L22.731,22.3zM15.53,21.599l6.067,0l-3.033,-6.066L15.53,21.599z"/>
<path xmlns="http://www.w3.org/2000/svg" d="M18.565,22.175c-0.124,0,-0.225,-0.102,-0.225,-0.225L18.34,14.75c0,-0.124,0.101,-0.225,0.225,-0.225s0.225,0.101,0.225,0.225l0,7.201C18.791,22.074,18.689,22.175,18.565,22.175z"/>
<path xmlns="http://www.w3.org/2000/svg" d="M23.183,16.414c-0.058,0,-0.113,-0.021,-0.158,-0.063c-0.088,-0.088,-0.088,-0.229,0,-0.317l2.342,-2.34c0.088,-0.088,0.229,-0.088,0.316,0c0.09,0.088,0.09,0.23,0,0.318l-2.341,2.339C23.298,16.392,23.24,16.414,23.183,16.414z"/>
<path xmlns="http://www.w3.org/2000/svg" d="M22.821,13.176c-0.057,0,-0.114,-0.022,-0.159,-0.066c-0.088,-0.088,-0.088,-0.23,0,-0.318l2.34,-2.34c0.088,-0.088,0.229,-0.088,0.317,0s0.088,0.23,0,0.318l-2.34,2.34C22.938,13.154,22.88,13.176,22.821,13.176z"/>
<path xmlns="http://www.w3.org/2000/svg" d="M27.144,12.231l-1.08,2.52l-1.438,-1.439L27.144,12.231z"/>
<path xmlns="http://www.w3.org/2000/svg" d="M26.783,8.991l-1.08,2.52l-1.438,-1.438L26.783,8.991z"/>
<path xmlns="http://www.w3.org/2000/svg" d="M7.766,15.1L4.165,15.1c-0.193,0,-0.35,-0.157,-0.35,-0.35s0.157,-0.35,0.35,-0.35l3.601,0c0.193,0,0.35,0.157,0.35,0.35S7.959,15.1,7.766,15.1z"/>
<path xmlns="http://www.w3.org/2000/svg" d="M4.165,15.1L0.566,15.1c-0.193,0,-0.35,-0.157,-0.35,-0.35s0.157,-0.35,0.35,-0.35l3.599,0c0.193,0,0.35,0.157,0.35,0.35S4.359,15.1,4.165,15.1z"/>
<polygon fill="#FFFFFF" xmlns="http://www.w3.org/2000/svg" points="7.766,21.951,4.165,21.951,0.566,21.951,4.165,14.75"/>
<path xmlns="http://www.w3.org/2000/svg" d="M8.332,22.3L0,22.3l4.166,-8.333L8.332,22.3zM1.133,21.599L7.2,21.599l-3.034,-6.066L1.133,21.599z"/>
<path xmlns="http://www.w3.org/2000/svg" d="M4.165,22.175c-0.124,0,-0.225,-0.102,-0.225,-0.225L3.94,14.75c0,-0.124,0.101,-0.225,0.225,-0.225S4.39,14.626,4.39,14.75l0,7.201C4.39,22.074,4.289,22.175,4.165,22.175z"/>
<path xmlns="http://www.w3.org/2000/svg" d="M8.783,16.414c-0.058,0,-0.115,-0.021,-0.159,-0.063c-0.088,-0.088,-0.088,-0.229,0,-0.317l2.339,-2.34c0.088,-0.088,0.23,-0.088,0.318,0c0.088,0.088,0.088,0.23,0,0.318L8.942,16.35C8.898,16.392,8.841,16.414,8.783,16.414z"/>
<path xmlns="http://www.w3.org/2000/svg" d="M8.422,13.176c-0.058,0,-0.115,-0.022,-0.159,-0.066c-0.087,-0.088,-0.087,-0.23,0,-0.318l2.341,-2.34c0.088,-0.088,0.23,-0.088,0.318,0s0.088,0.23,0,0.318l-2.341,2.34C8.537,13.154,8.48,13.176,8.422,13.176z"/>
<path xmlns="http://www.w3.org/2000/svg" d="M12.743,12.231l-1.08,2.52l-1.439,-1.439L12.743,12.231z"/>
<path xmlns="http://www.w3.org/2000/svg" d="M12.382,8.991l-1.08,2.52l-1.438,-1.438L12.382,8.991z"/>
<g xmlns="http://www.w3.org/2000/svg">
<path fill="#787878" xmlns="http://www.w3.org/2000/svg" id="connector3pin" d="M32.964,29.5c-0.193,0,-0.35,-0.156,-0.35,-0.35l0,-7.199c0,-0.193,0.156,-0.352,0.35,-0.352c0.194,0,0.35,0.156,0.35,0.352l0,7.199C33.313,29.343,33.157,29.5,32.964,29.5z"/>
<g y="27.167" fill="none" height="2.397" xmlns="http://www.w3.org/2000/svg" id="connector3terminal" width="0.75" x="32.663"/>
<path fill="#787878" xmlns="http://www.w3.org/2000/svg" id="connector1pin" d="M18.567,7.9c-0.193,0,-0.35,-0.157,-0.35,-0.35l0,-7.2c0,-0.193,0.157,-0.35,0.35,-0.35s0.35,0.157,0.35,0.35l0,7.2C18.917,7.744,18.76,7.9,18.567,7.9z"/>
<g fill="none" height="2.399" xmlns="http://www.w3.org/2000/svg" id="connector1terminal" width="0.75" x="18.205"/>
<path fill="#787878" xmlns="http://www.w3.org/2000/svg" id="connector2pin" d="M18.566,29.5c-0.193,0,-0.35,-0.156,-0.35,-0.35l0,-7.199c0,-0.193,0.157,-0.352,0.35,-0.352s0.35,0.156,0.35,0.352l0,7.199C18.916,29.343,18.759,29.5,18.566,29.5z"/>
<g y="27.167" fill="none" height="2.397" xmlns="http://www.w3.org/2000/svg" id="connector2terminal" width="0.75" x="18.163"/>
<path fill="#787878" xmlns="http://www.w3.org/2000/svg" id="connector0pin" d="M4.165,29.5c-0.193,0,-0.35,-0.156,-0.35,-0.35l0,-7.199c0,-0.193,0.157,-0.352,0.35,-0.352s0.35,0.156,0.35,0.352l0,7.199C4.515,29.343,4.359,29.5,4.165,29.5z"/>
<g y="27.167" fill="none" height="2.397" xmlns="http://www.w3.org/2000/svg" id="connector0terminal" width="0.75" x="3.726"/>
</g>
</g>
</g></g></g><g partID='57850'><g transform='translate(110.36,113.028)' ><g transform='matrix(0,1,-1,0,0,0)'  ><g xmlns="http://www.w3.org/2000/svg" id="schematic">
<path fill="#787878" xmlns="http://www.w3.org/2000/svg" d="M34.179,9.778l0.875,0c0.188,0,0.354,0.015,0.495,0.043c0.144,0.029,0.265,0.075,0.356,0.139c0.099,0.063,0.171,0.147,0.218,0.251c0.049,0.103,0.071,0.23,0.071,0.381c0,0.091,-0.014,0.176,-0.043,0.255c-0.026,0.079,-0.067,0.148,-0.123,0.209c-0.055,0.06,-0.12,0.11,-0.2,0.15s-0.17,0.066,-0.271,0.08l0,0.021c0.102,0.018,0.195,0.043,0.284,0.076c0.089,0.033,0.166,0.078,0.229,0.137c0.066,0.058,0.119,0.131,0.156,0.219c0.039,0.088,0.06,0.194,0.06,0.32c0,0.146,-0.024,0.277,-0.072,0.393c-0.047,0.114,-0.116,0.212,-0.207,0.292c-0.09,0.08,-0.198,0.141,-0.327,0.184c-0.13,0.042,-0.273,0.063,-0.438,0.063l-1.063,0L34.179,9.778zM34.586,11.142l0.535,0c0.123,0,0.228,-0.012,0.312,-0.033c0.084,-0.022,0.149,-0.055,0.201,-0.098c0.053,-0.044,0.09,-0.098,0.11,-0.163c0.022,-0.065,0.034,-0.141,0.034,-0.228c0,-0.176,-0.057,-0.302,-0.17,-0.378c-0.112,-0.076,-0.291,-0.114,-0.532,-0.114l-0.49,0L34.586,11.142zM34.586,11.483l0,1.16l0.584,0c0.129,0,0.235,-0.014,0.324,-0.043c0.088,-0.029,0.157,-0.07,0.211,-0.123s0.092,-0.116,0.114,-0.19c0.022,-0.074,0.035,-0.155,0.035,-0.245c0,-0.082,-0.013,-0.157,-0.037,-0.227c-0.022,-0.068,-0.063,-0.128,-0.116,-0.177c-0.056,-0.049,-0.13,-0.087,-0.22,-0.114c-0.092,-0.027,-0.205,-0.041,-0.338,-0.041L34.586,11.483z"/>
<path xmlns="http://www.w3.org/2000/svg" d="M18.565,15.1c-0.193,0,-0.35,-0.157,-0.35,-0.35l0,-7.2c0,-0.193,0.157,-0.35,0.35,-0.35s0.35,0.157,0.35,0.35l0,7.2C18.916,14.943,18.758,15.1,18.565,15.1z"/>
<path fill="none" xmlns="http://www.w3.org/2000/svg" d="M18.565,7.55L18.565,7.55L18.565,7.55z"/>
<path fill="#787878" xmlns="http://www.w3.org/2000/svg" d="M21.059,11.295l1.063,0l0,1.575c-0.081,0.026,-0.162,0.05,-0.243,0.07c-0.083,0.021,-0.167,0.038,-0.254,0.052c-0.086,0.014,-0.178,0.024,-0.271,0.032c-0.096,0.007,-0.197,0.011,-0.309,0.011c-0.229,0,-0.434,-0.038,-0.61,-0.115c-0.176,-0.077,-0.327,-0.187,-0.448,-0.33c-0.121,-0.143,-0.213,-0.316,-0.276,-0.521c-0.063,-0.205,-0.095,-0.434,-0.095,-0.688c0,-0.252,0.035,-0.479,0.104,-0.684c0.07,-0.203,0.171,-0.377,0.305,-0.521c0.133,-0.143,0.297,-0.253,0.493,-0.33c0.195,-0.076,0.418,-0.115,0.668,-0.115c0.163,0,0.318,0.017,0.47,0.049c0.147,0.032,0.287,0.079,0.418,0.141l-0.158,0.355c-0.053,-0.024,-0.11,-0.048,-0.172,-0.07c-0.062,-0.021,-0.123,-0.041,-0.188,-0.058c-0.064,-0.018,-0.131,-0.03,-0.197,-0.041c-0.068,-0.01,-0.137,-0.016,-0.205,-0.016c-0.178,0,-0.336,0.03,-0.475,0.089c-0.137,0.06,-0.252,0.146,-0.346,0.257c-0.094,0.111,-0.164,0.246,-0.211,0.406c-0.049,0.159,-0.073,0.34,-0.073,0.54c0,0.19,0.021,0.365,0.062,0.523c0.039,0.158,0.104,0.294,0.191,0.408c0.088,0.114,0.201,0.203,0.34,0.267c0.141,0.063,0.307,0.094,0.504,0.094c0.064,0,0.123,-0.002,0.178,-0.005c0.054,-0.004,0.103,-0.009,0.146,-0.015c0.046,-0.006,0.089,-0.013,0.129,-0.021c0.041,-0.009,0.08,-0.016,0.117,-0.023l0,-0.958L21.06,11.653L21.059,11.295L21.059,11.295z"/>
<path xmlns="http://www.w3.org/2000/svg" d="M32.963,15.1c-0.192,0,-0.351,-0.157,-0.351,-0.35L32.612,7.9L4.515,7.9l0,6.85c0,0.193,-0.157,0.35,-0.35,0.35s-0.35,-0.157,-0.35,-0.35L3.815,7.2l29.499,0l0,7.55C33.313,14.943,33.155,15.1,32.963,15.1z"/>
<path fill="#787878" xmlns="http://www.w3.org/2000/svg" d="M5.787,11.664l0,1.327L5.379,12.991L5.379,9.778l0.782,0c0.389,0,0.677,0.076,0.863,0.227c0.186,0.151,0.279,0.38,0.279,0.686c0,0.128,-0.018,0.239,-0.054,0.334c-0.036,0.096,-0.083,0.177,-0.143,0.245s-0.127,0.125,-0.204,0.171c-0.076,0.045,-0.154,0.082,-0.235,0.111l0.875,1.439L7.061,12.991L6.29,11.664L5.787,11.664zM5.787,11.317l0.36,0c0.132,0,0.244,-0.014,0.336,-0.039c0.092,-0.025,0.168,-0.063,0.228,-0.114c0.059,-0.051,0.103,-0.113,0.129,-0.188c0.027,-0.076,0.041,-0.164,0.041,-0.266c0,-0.105,-0.015,-0.194,-0.045,-0.268c-0.03,-0.073,-0.075,-0.133,-0.136,-0.18c-0.061,-0.046,-0.138,-0.08,-0.231,-0.102c-0.093,-0.021,-0.203,-0.032,-0.331,-0.032L5.787,10.128L5.787,11.317z"/>
<path xmlns="http://www.w3.org/2000/svg" d="M36.563,15.1l-3.602,0c-0.193,0,-0.35,-0.157,-0.35,-0.35s0.156,-0.35,0.35,-0.35l3.602,0c0.193,0,0.352,0.157,0.352,0.35S36.758,15.1,36.563,15.1z"/>
<path xmlns="http://www.w3.org/2000/svg" d="M32.963,15.1l-3.598,0c-0.193,0,-0.351,-0.157,-0.351,-0.35s0.155,-0.35,0.351,-0.35l3.598,0c0.192,0,0.351,0.157,0.351,0.35S33.155,15.1,32.963,15.1z"/>
<polygon fill="#FFFFFF" xmlns="http://www.w3.org/2000/svg" points="36.563,21.951,32.963,21.951,29.365,21.951,32.963,14.75"/>
<path xmlns="http://www.w3.org/2000/svg" d="M37.131,22.3l-8.332,0l4.164,-8.333L37.131,22.3zM29.933,21.599l6.065,0l-3.035,-6.066L29.933,21.599z"/>
<path xmlns="http://www.w3.org/2000/svg" d="M32.963,22.175c-0.124,0,-0.226,-0.102,-0.226,-0.225L32.737,14.75c0,-0.124,0.102,-0.225,0.226,-0.225s0.226,0.101,0.226,0.225l0,7.201C33.188,22.074,33.087,22.175,32.963,22.175z"/>
<path xmlns="http://www.w3.org/2000/svg" d="M37.582,16.414c-0.06,0,-0.115,-0.021,-0.159,-0.063c-0.088,-0.088,-0.088,-0.229,0,-0.317l2.34,-2.34c0.088,-0.088,0.229,-0.088,0.318,0c0.088,0.088,0.088,0.23,0,0.318L37.74,16.35C37.696,16.392,37.64,16.414,37.582,16.414z"/>
<path xmlns="http://www.w3.org/2000/svg" d="M37.224,13.176c-0.059,0,-0.115,-0.022,-0.158,-0.066c-0.09,-0.088,-0.09,-0.23,0,-0.318l2.34,-2.34c0.088,-0.088,0.229,-0.088,0.316,0s0.088,0.23,0,0.318l-2.34,2.34C37.338,13.154,37.278,13.176,37.224,13.176z"/>
<path xmlns="http://www.w3.org/2000/svg" d="M41.542,12.231l-1.08,2.52l-1.438,-1.439L41.542,12.231z"/>
<path xmlns="http://www.w3.org/2000/svg" d="M41.183,8.991l-1.078,2.52l-1.438,-1.438L41.183,8.991z"/>
<path xmlns="http://www.w3.org/2000/svg" d="M22.165,15.1l-3.599,0c-0.193,0,-0.35,-0.157,-0.35,-0.35s0.157,-0.35,0.35,-0.35l3.599,0c0.193,0,0.35,0.157,0.35,0.35S22.358,15.1,22.165,15.1z"/>
<path xmlns="http://www.w3.org/2000/svg" d="M18.565,15.1l-3.601,0c-0.193,0,-0.35,-0.157,-0.35,-0.35s0.157,-0.35,0.35,-0.35l3.601,0c0.193,0,0.35,0.157,0.35,0.35S18.758,15.1,18.565,15.1z"/>
<polygon fill="#FFFFFF" xmlns="http://www.w3.org/2000/svg" points="22.165,21.951,18.565,21.951,14.964,21.951,18.565,14.75"/>
<path xmlns="http://www.w3.org/2000/svg" d="M22.731,22.3l-8.333,0l4.167,-8.333L22.731,22.3zM15.53,21.599l6.067,0l-3.033,-6.066L15.53,21.599z"/>
<path xmlns="http://www.w3.org/2000/svg" d="M18.565,22.175c-0.124,0,-0.225,-0.102,-0.225,-0.225L18.34,14.75c0,-0.124,0.101,-0.225,0.225,-0.225s0.225,0.101,0.225,0.225l0,7.201C18.791,22.074,18.689,22.175,18.565,22.175z"/>
<path xmlns="http://www.w3.org/2000/svg" d="M23.183,16.414c-0.058,0,-0.113,-0.021,-0.158,-0.063c-0.088,-0.088,-0.088,-0.229,0,-0.317l2.342,-2.34c0.088,-0.088,0.229,-0.088,0.316,0c0.09,0.088,0.09,0.23,0,0.318l-2.341,2.339C23.298,16.392,23.24,16.414,23.183,16.414z"/>
<path xmlns="http://www.w3.org/2000/svg" d="M22.821,13.176c-0.057,0,-0.114,-0.022,-0.159,-0.066c-0.088,-0.088,-0.088,-0.23,0,-0.318l2.34,-2.34c0.088,-0.088,0.229,-0.088,0.317,0s0.088,0.23,0,0.318l-2.34,2.34C22.938,13.154,22.88,13.176,22.821,13.176z"/>
<path xmlns="http://www.w3.org/2000/svg" d="M27.144,12.231l-1.08,2.52l-1.438,-1.439L27.144,12.231z"/>
<path xmlns="http://www.w3.org/2000/svg" d="M26.783,8.991l-1.08,2.52l-1.438,-1.438L26.783,8.991z"/>
<path xmlns="http://www.w3.org/2000/svg" d="M7.766,15.1L4.165,15.1c-0.193,0,-0.35,-0.157,-0.35,-0.35s0.157,-0.35,0.35,-0.35l3.601,0c0.193,0,0.35,0.157,0.35,0.35S7.959,15.1,7.766,15.1z"/>
<path xmlns="http://www.w3.org/2000/svg" d="M4.165,15.1L0.566,15.1c-0.193,0,-0.35,-0.157,-0.35,-0.35s0.157,-0.35,0.35,-0.35l3.599,0c0.193,0,0.35,0.157,0.35,0.35S4.359,15.1,4.165,15.1z"/>
<polygon fill="#FFFFFF" xmlns="http://www.w3.org/2000/svg" points="7.766,21.951,4.165,21.951,0.566,21.951,4.165,14.75"/>
<path xmlns="http://www.w3.org/2000/svg" d="M8.332,22.3L0,22.3l4.166,-8.333L8.332,22.3zM1.133,21.599L7.2,21.599l-3.034,-6.066L1.133,21.599z"/>
<path xmlns="http://www.w3.org/2000/svg" d="M4.165,22.175c-0.124,0,-0.225,-0.102,-0.225,-0.225L3.94,14.75c0,-0.124,0.101,-0.225,0.225,-0.225S4.39,14.626,4.39,14.75l0,7.201C4.39,22.074,4.289,22.175,4.165,22.175z"/>
<path xmlns="http://www.w3.org/2000/svg" d="M8.783,16.414c-0.058,0,-0.115,-0.021,-0.159,-0.063c-0.088,-0.088,-0.088,-0.229,0,-0.317l2.339,-2.34c0.088,-0.088,0.23,-0.088,0.318,0c0.088,0.088,0.088,0.23,0,0.318L8.942,16.35C8.898,16.392,8.841,16.414,8.783,16.414z"/>
<path xmlns="http://www.w3.org/2000/svg" d="M8.422,13.176c-0.058,0,-0.115,-0.022,-0.159,-0.066c-0.087,-0.088,-0.087,-0.23,0,-0.318l2.341,-2.34c0.088,-0.088,0.23,-0.088,0.318,0s0.088,0.23,0,0.318l-2.341,2.34C8.537,13.154,8.48,13.176,8.422,13.176z"/>
<path xmlns="http://www.w3.org/2000/svg" d="M12.743,12.231l-1.08,2.52l-1.439,-1.439L12.743,12.231z"/>
<path xmlns="http://www.w3.org/2000/svg" d="M12.382,8.991l-1.08,2.52l-1.438,-1.438L12.382,8.991z"/>
<g xmlns="http://www.w3.org/2000/svg">
<path fill="#787878" xmlns="http://www.w3.org/2000/svg" id="connector3pin" d="M32.964,29.5c-0.193,0,-0.35,-0.156,-0.35,-0.35l0,-7.199c0,-0.193,0.156,-0.352,0.35,-0.352c0.194,0,0.35,0.156,0.35,0.352l0,7.199C33.313,29.343,33.157,29.5,32.964,29.5z"/>
<g y="27.167" fill="none" height="2.397" xmlns="http://www.w3.org/2000/svg" id="connector3terminal" width="0.75" x="32.663"/>
<path fill="#787878" xmlns="http://www.w3.org/2000/svg" id="connector1pin" d="M18.567,7.9c-0.193,0,-0.35,-0.157,-0.35,-0.35l0,-7.2c0,-0.193,0.157,-0.35,0.35,-0.35s0.35,0.157,0.35,0.35l0,7.2C18.917,7.744,18.76,7.9,18.567,7.9z"/>
<g fill="none" height="2.399" xmlns="http://www.w3.org/2000/svg" id="connector1terminal" width="0.75" x="18.205"/>
<path fill="#787878" xmlns="http://www.w3.org/2000/svg" id="connector2pin" d="M18.566,29.5c-0.193,0,-0.35,-0.156,-0.35,-0.35l0,-7.199c0,-0.193,0.157,-0.352,0.35,-0.352s0.35,0.156,0.35,0.352l0,7.199C18.916,29.343,18.759,29.5,18.566,29.5z"/>
<g y="27.167" fill="none" height="2.397" xmlns="http://www.w3.org/2000/svg" id="connector2terminal" width="0.75" x="18.163"/>
<path fill="#787878" xmlns="http://www.w3.org/2000/svg" id="connector0pin" d="M4.165,29.5c-0.193,0,-0.35,-0.156,-0.35,-0.35l0,-7.199c0,-0.193,0.157,-0.352,0.35,-0.352s0.35,0.156,0.35,0.352l0,7.199C4.515,29.343,4.359,29.5,4.165,29.5z"/>
<g y="27.167" fill="none" height="2.397" xmlns="http://www.w3.org/2000/svg" id="connector0terminal" width="0.75" x="3.726"/>
</g>
</g>
</g></g></g><g partID='57830'><g transform='translate(110.36,69.828)' ><g transform='matrix(0,1,-1,0,0,0)'  ><g xmlns="http://www.w3.org/2000/svg" id="schematic">
<path fill="#787878" xmlns="http://www.w3.org/2000/svg" d="M34.179,9.778l0.875,0c0.188,0,0.354,0.015,0.495,0.043c0.144,0.029,0.265,0.075,0.356,0.139c0.099,0.063,0.171,0.147,0.218,0.251c0.049,0.103,0.071,0.23,0.071,0.381c0,0.091,-0.014,0.176,-0.043,0.255c-0.026,0.079,-0.067,0.148,-0.123,0.209c-0.055,0.06,-0.12,0.11,-0.2,0.15s-0.17,0.066,-0.271,0.08l0,0.021c0.102,0.018,0.195,0.043,0.284,0.076c0.089,0.033,0.166,0.078,0.229,0.137c0.066,0.058,0.119,0.131,0.156,0.219c0.039,0.088,0.06,0.194,0.06,0.32c0,0.146,-0.024,0.277,-0.072,0.393c-0.047,0.114,-0.116,0.212,-0.207,0.292c-0.09,0.08,-0.198,0.141,-0.327,0.184c-0.13,0.042,-0.273,0.063,-0.438,0.063l-1.063,0L34.179,9.778zM34.586,11.142l0.535,0c0.123,0,0.228,-0.012,0.312,-0.033c0.084,-0.022,0.149,-0.055,0.201,-0.098c0.053,-0.044,0.09,-0.098,0.11,-0.163c0.022,-0.065,0.034,-0.141,0.034,-0.228c0,-0.176,-0.057,-0.302,-0.17,-0.378c-0.112,-0.076,-0.291,-0.114,-0.532,-0.114l-0.49,0L34.586,11.142zM34.586,11.483l0,1.16l0.584,0c0.129,0,0.235,-0.014,0.324,-0.043c0.088,-0.029,0.157,-0.07,0.211,-0.123s0.092,-0.116,0.114,-0.19c0.022,-0.074,0.035,-0.155,0.035,-0.245c0,-0.082,-0.013,-0.157,-0.037,-0.227c-0.022,-0.068,-0.063,-0.128,-0.116,-0.177c-0.056,-0.049,-0.13,-0.087,-0.22,-0.114c-0.092,-0.027,-0.205,-0.041,-0.338,-0.041L34.586,11.483z"/>
<path xmlns="http://www.w3.org/2000/svg" d="M18.565,15.1c-0.193,0,-0.35,-0.157,-0.35,-0.35l0,-7.2c0,-0.193,0.157,-0.35,0.35,-0.35s0.35,0.157,0.35,0.35l0,7.2C18.916,14.943,18.758,15.1,18.565,15.1z"/>
<path fill="none" xmlns="http://www.w3.org/2000/svg" d="M18.565,7.55L18.565,7.55L18.565,7.55z"/>
<path fill="#787878" xmlns="http://www.w3.org/2000/svg" d="M21.059,11.295l1.063,0l0,1.575c-0.081,0.026,-0.162,0.05,-0.243,0.07c-0.083,0.021,-0.167,0.038,-0.254,0.052c-0.086,0.014,-0.178,0.024,-0.271,0.032c-0.096,0.007,-0.197,0.011,-0.309,0.011c-0.229,0,-0.434,-0.038,-0.61,-0.115c-0.176,-0.077,-0.327,-0.187,-0.448,-0.33c-0.121,-0.143,-0.213,-0.316,-0.276,-0.521c-0.063,-0.205,-0.095,-0.434,-0.095,-0.688c0,-0.252,0.035,-0.479,0.104,-0.684c0.07,-0.203,0.171,-0.377,0.305,-0.521c0.133,-0.143,0.297,-0.253,0.493,-0.33c0.195,-0.076,0.418,-0.115,0.668,-0.115c0.163,0,0.318,0.017,0.47,0.049c0.147,0.032,0.287,0.079,0.418,0.141l-0.158,0.355c-0.053,-0.024,-0.11,-0.048,-0.172,-0.07c-0.062,-0.021,-0.123,-0.041,-0.188,-0.058c-0.064,-0.018,-0.131,-0.03,-0.197,-0.041c-0.068,-0.01,-0.137,-0.016,-0.205,-0.016c-0.178,0,-0.336,0.03,-0.475,0.089c-0.137,0.06,-0.252,0.146,-0.346,0.257c-0.094,0.111,-0.164,0.246,-0.211,0.406c-0.049,0.159,-0.073,0.34,-0.073,0.54c0,0.19,0.021,0.365,0.062,0.523c0.039,0.158,0.104,0.294,0.191,0.408c0.088,0.114,0.201,0.203,0.34,0.267c0.141,0.063,0.307,0.094,0.504,0.094c0.064,0,0.123,-0.002,0.178,-0.005c0.054,-0.004,0.103,-0.009,0.146,-0.015c0.046,-0.006,0.089,-0.013,0.129,-0.021c0.041,-0.009,0.08,-0.016,0.117,-0.023l0,-0.958L21.06,11.653L21.059,11.295L21.059,11.295z"/>
<path xmlns="http://www.w3.org/2000/svg" d="M32.963,15.1c-0.192,0,-0.351,-0.157,-0.351,-0.35L32.612,7.9L4.515,7.9l0,6.85c0,0.193,-0.157,0.35,-0.35,0.35s-0.35,-0.157,-0.35,-0.35L3.815,7.2l29.499,0l0,7.55C33.313,14.943,33.155,15.1,32.963,15.1z"/>
<path fill="#787878" xmlns="http://www.w3.org/2000/svg" d="M5.787,11.664l0,1.327L5.379,12.991L5.379,9.778l0.782,0c0.389,0,0.677,0.076,0.863,0.227c0.186,0.151,0.279,0.38,0.279,0.686c0,0.128,-0.018,0.239,-0.054,0.334c-0.036,0.096,-0.083,0.177,-0.143,0.245s-0.127,0.125,-0.204,0.171c-0.076,0.045,-0.154,0.082,-0.235,0.111l0.875,1.439L7.061,12.991L6.29,11.664L5.787,11.664zM5.787,11.317l0.36,0c0.132,0,0.244,-0.014,0.336,-0.039c0.092,-0.025,0.168,-0.063,0.228,-0.114c0.059,-0.051,0.103,-0.113,0.129,-0.188c0.027,-0.076,0.041,-0.164,0.041,-0.266c0,-0.105,-0.015,-0.194,-0.045,-0.268c-0.03,-0.073,-0.075,-0.133,-0.136,-0.18c-0.061,-0.046,-0.138,-0.08,-0.231,-0.102c-0.093,-0.021,-0.203,-0.032,-0.331,-0.032L5.787,10.128L5.787,11.317z"/>
<path xmlns="http://www.w3.org/2000/svg" d="M36.563,15.1l-3.602,0c-0.193,0,-0.35,-0.157,-0.35,-0.35s0.156,-0.35,0.35,-0.35l3.602,0c0.193,0,0.352,0.157,0.352,0.35S36.758,15.1,36.563,15.1z"/>
<path xmlns="http://www.w3.org/2000/svg" d="M32.963,15.1l-3.598,0c-0.193,0,-0.351,-0.157,-0.351,-0.35s0.155,-0.35,0.351,-0.35l3.598,0c0.192,0,0.351,0.157,0.351,0.35S33.155,15.1,32.963,15.1z"/>
<polygon fill="#FFFFFF" xmlns="http://www.w3.org/2000/svg" points="36.563,21.951,32.963,21.951,29.365,21.951,32.963,14.75"/>
<path xmlns="http://www.w3.org/2000/svg" d="M37.131,22.3l-8.332,0l4.164,-8.333L37.131,22.3zM29.933,21.599l6.065,0l-3.035,-6.066L29.933,21.599z"/>
<path xmlns="http://www.w3.org/2000/svg" d="M32.963,22.175c-0.124,0,-0.226,-0.102,-0.226,-0.225L32.737,14.75c0,-0.124,0.102,-0.225,0.226,-0.225s0.226,0.101,0.226,0.225l0,7.201C33.188,22.074,33.087,22.175,32.963,22.175z"/>
<path xmlns="http://www.w3.org/2000/svg" d="M37.582,16.414c-0.06,0,-0.115,-0.021,-0.159,-0.063c-0.088,-0.088,-0.088,-0.229,0,-0.317l2.34,-2.34c0.088,-0.088,0.229,-0.088,0.318,0c0.088,0.088,0.088,0.23,0,0.318L37.74,16.35C37.696,16.392,37.64,16.414,37.582,16.414z"/>
<path xmlns="http://www.w3.org/2000/svg" d="M37.224,13.176c-0.059,0,-0.115,-0.022,-0.158,-0.066c-0.09,-0.088,-0.09,-0.23,0,-0.318l2.34,-2.34c0.088,-0.088,0.229,-0.088,0.316,0s0.088,0.23,0,0.318l-2.34,2.34C37.338,13.154,37.278,13.176,37.224,13.176z"/>
<path xmlns="http://www.w3.org/2000/svg" d="M41.542,12.231l-1.08,2.52l-1.438,-1.439L41.542,12.231z"/>
<path xmlns="http://www.w3.org/2000/svg" d="M41.183,8.991l-1.078,2.52l-1.438,-1.438L41.183,8.991z"/>
<path xmlns="http://www.w3.org/2000/svg" d="M22.165,15.1l-3.599,0c-0.193,0,-0.35,-0.157,-0.35,-0.35s0.157,-0.35,0.35,-0.35l3.599,0c0.193,0,0.35,0.157,0.35,0.35S22.358,15.1,22.165,15.1z"/>
<path xmlns="http://www.w3.org/2000/svg" d="M18.565,15.1l-3.601,0c-0.193,0,-0.35,-0.157,-0.35,-0.35s0.157,-0.35,0.35,-0.35l3.601,0c0.193,0,0.35,0.157,0.35,0.35S18.758,15.1,18.565,15.1z"/>
<polygon fill="#FFFFFF" xmlns="http://www.w3.org/2000/svg" points="22.165,21.951,18.565,21.951,14.964,21.951,18.565,14.75"/>
<path xmlns="http://www.w3.org/2000/svg" d="M22.731,22.3l-8.333,0l4.167,-8.333L22.731,22.3zM15.53,21.599l6.067,0l-3.033,-6.066L15.53,21.599z"/>
<path xmlns="http://www.w3.org/2000/svg" d="M18.565,22.175c-0.124,0,-0.225,-0.102,-0.225,-0.225L18.34,14.75c0,-0.124,0.101,-0.225,0.225,-0.225s0.225,0.101,0.225,0.225l0,7.201C18.791,22.074,18.689,22.175,18.565,22.175z"/>
<path xmlns="http://www.w3.org/2000/svg" d="M23.183,16.414c-0.058,0,-0.113,-0.021,-0.158,-0.063c-0.088,-0.088,-0.088,-0.229,0,-0.317l2.342,-2.34c0.088,-0.088,0.229,-0.088,0.316,0c0.09,0.088,0.09,0.23,0,0.318l-2.341,2.339C23.298,16.392,23.24,16.414,23.183,16.414z"/>
<path xmlns="http://www.w3.org/2000/svg" d="M22.821,13.176c-0.057,0,-0.114,-0.022,-0.159,-0.066c-0.088,-0.088,-0.088,-0.23,0,-0.318l2.34,-2.34c0.088,-0.088,0.229,-0.088,0.317,0s0.088,0.23,0,0.318l-2.34,2.34C22.938,13.154,22.88,13.176,22.821,13.176z"/>
<path xmlns="http://www.w3.org/2000/svg" d="M27.144,12.231l-1.08,2.52l-1.438,-1.439L27.144,12.231z"/>
<path xmlns="http://www.w3.org/2000/svg" d="M26.783,8.991l-1.08,2.52l-1.438,-1.438L26.783,8.991z"/>
<path xmlns="http://www.w3.org/2000/svg" d="M7.766,15.1L4.165,15.1c-0.193,0,-0.35,-0.157,-0.35,-0.35s0.157,-0.35,0.35,-0.35l3.601,0c0.193,0,0.35,0.157,0.35,0.35S7.959,15.1,7.766,15.1z"/>
<path xmlns="http://www.w3.org/2000/svg" d="M4.165,15.1L0.566,15.1c-0.193,0,-0.35,-0.157,-0.35,-0.35s0.157,-0.35,0.35,-0.35l3.599,0c0.193,0,0.35,0.157,0.35,0.35S4.359,15.1,4.165,15.1z"/>
<polygon fill="#FFFFFF" xmlns="http://www.w3.org/2000/svg" points="7.766,21.951,4.165,21.951,0.566,21.951,4.165,14.75"/>
<path xmlns="http://www.w3.org/2000/svg" d="M8.332,22.3L0,22.3l4.166,-8.333L8.332,22.3zM1.133,21.599L7.2,21.599l-3.034,-6.066L1.133,21.599z"/>
<path xmlns="http://www.w3.org/2000/svg" d="M4.165,22.175c-0.124,0,-0.225,-0.102,-0.225,-0.225L3.94,14.75c0,-0.124,0.101,-0.225,0.225,-0.225S4.39,14.626,4.39,14.75l0,7.201C4.39,22.074,4.289,22.175,4.165,22.175z"/>
<path xmlns="http://www.w3.org/2000/svg" d="M8.783,16.414c-0.058,0,-0.115,-0.021,-0.159,-0.063c-0.088,-0.088,-0.088,-0.229,0,-0.317l2.339,-2.34c0.088,-0.088,0.23,-0.088,0.318,0c0.088,0.088,0.088,0.23,0,0.318L8.942,16.35C8.898,16.392,8.841,16.414,8.783,16.414z"/>
<path xmlns="http://www.w3.org/2000/svg" d="M8.422,13.176c-0.058,0,-0.115,-0.022,-0.159,-0.066c-0.087,-0.088,-0.087,-0.23,0,-0.318l2.341,-2.34c0.088,-0.088,0.23,-0.088,0.318,0s0.088,0.23,0,0.318l-2.341,2.34C8.537,13.154,8.48,13.176,8.422,13.176z"/>
<path xmlns="http://www.w3.org/2000/svg" d="M12.743,12.231l-1.08,2.52l-1.439,-1.439L12.743,12.231z"/>
<path xmlns="http://www.w3.org/2000/svg" d="M12.382,8.991l-1.08,2.52l-1.438,-1.438L12.382,8.991z"/>
<g xmlns="http://www.w3.org/2000/svg">
<path fill="#787878" xmlns="http://www.w3.org/2000/svg" id="connector3pin" d="M32.964,29.5c-0.193,0,-0.35,-0.156,-0.35,-0.35l0,-7.199c0,-0.193,0.156,-0.352,0.35,-0.352c0.194,0,0.35,0.156,0.35,0.352l0,7.199C33.313,29.343,33.157,29.5,32.964,29.5z"/>
<g y="27.167" fill="none" height="2.397" xmlns="http://www.w3.org/2000/svg" id="connector3terminal" width="0.75" x="32.663"/>
<path fill="#787878" xmlns="http://www.w3.org/2000/svg" id="connector1pin" d="M18.567,7.9c-0.193,0,-0.35,-0.157,-0.35,-0.35l0,-7.2c0,-0.193,0.157,-0.35,0.35,-0.35s0.35,0.157,0.35,0.35l0,7.2C18.917,7.744,18.76,7.9,18.567,7.9z"/>
<g fill="none" height="2.399" xmlns="http://www.w3.org/2000/svg" id="connector1terminal" width="0.75" x="18.205"/>
<path fill="#787878" xmlns="http://www.w3.org/2000/svg" id="connector2pin" d="M18.566,29.5c-0.193,0,-0.35,-0.156,-0.35,-0.35l0,-7.199c0,-0.193,0.157,-0.352,0.35,-0.352s0.35,0.156,0.35,0.352l0,7.199C18.916,29.343,18.759,29.5,18.566,29.5z"/>
<g y="27.167" fill="none" height="2.397" xmlns="http://www.w3.org/2000/svg" id="connector2terminal" width="0.75" x="18.163"/>
<path fill="#787878" xmlns="http://www.w3.org/2000/svg" id="connector0pin" d="M4.165,29.5c-0.193,0,-0.35,-0.156,-0.35,-0.35l0,-7.199c0,-0.193,0.157,-0.352,0.35,-0.352s0.35,0.156,0.35,0.352l0,7.199C4.515,29.343,4.359,29.5,4.165,29.5z"/>
<g y="27.167" fill="none" height="2.397" xmlns="http://www.w3.org/2000/svg" id="connector0terminal" width="0.75" x="3.726"/>
</g>
</g>
</g></g></g><g partID='226580'><g transform='translate(78.9316,158.262)' ><g transform='matrix(0,1,-1,0,0,0)'  ><g id="schematic">
<polygon fill="#FFFFFF" stroke-linecap="round" points="2.16,2.16,0.36,2.16,0.36,0.36,25.56,0.36,25.56,2.16,23.76,2.16,23.76,12.96,2.16,12.96" stroke-width="0.9" stroke="#000000" stroke-linejoin="round"/>
<line fill="none" stroke-linecap="round" y1="7.56" y2="7.56" x1="5.76" stroke-width="0.5" stroke="#000000" x2="9.36"/>
<line fill="none" stroke-linecap="round" y1="7.56" y2="5.76" x1="9.36" stroke-width="0.5" stroke="#000000" x2="9.36"/>
<line fill="none" stroke-linecap="round" y1="7.56" y2="9.36" x1="9.36" stroke-width="0.5" stroke="#000000" x2="9.36"/>
<line fill="none" stroke-linecap="round" y1="3.96" y2="11.16" x1="11.16" stroke-width="0.5" stroke="#000000" x2="11.16"/>
<line fill="none" stroke-linecap="round" y1="11.16" y2="11.16" x1="11.16" stroke-width="0.5" stroke="#000000" x2="14.76"/>
<line fill="none" stroke-linecap="round" y1="11.16" y2="3.96" x1="14.76" stroke-width="0.5" stroke="#000000" x2="14.76"/>
<line fill="none" stroke-linecap="round" y1="3.96" y2="3.96" x1="14.76" stroke-width="0.5" stroke="#000000" x2="11.16"/>
<line fill="none" stroke-linecap="round" y1="5.76" y2="7.56" x1="16.56" stroke-width="0.5" stroke="#000000" x2="16.56"/>
<line fill="none" stroke-linecap="round" y1="7.56" y2="7.56" x1="16.56" stroke-width="0.5" stroke="#000000" x2="20.16"/>
<line fill="none" stroke-linecap="round" y1="7.56" y2="9.36" x1="16.56" stroke-width="0.5" stroke="#000000" x2="16.56"/>
<line fill="none" stroke-linecap="round" y1="2.16" y2="2.16" x1="2.16" stroke-width="0.9" stroke="#000000" x2="23.76"/>
<line fill="none" stroke-linecap="round" id="connector1pin" y1="20.16" y2="12.96" x1="16.56" stroke-width="0.75" stroke="#787878" x2="16.56"/>
<g fill="none" id="connector1terminal" points="16.882,20.51,16.882,19.833,16.21,19.833,16.21,20.51"/>
<g transform="matrix(1, 0, 0, 1, 5.47158, 5.842)">
<g>
<g transform="rotate(270)">
<g>
<g transform="matrix(1, 0, 0, 1, -11.4061, 10.0382)">
<text fill="#8C8C8C" font-size="2.5" font-family="'DroidSans'">2</text>
</g>
</g>
</g>
</g>
</g>
<line fill="none" stroke-linecap="round" id="connector0pin" y1="20.16" y2="12.96" x1="9.36" stroke-width="0.75" stroke="#787878" x2="9.36"/>
<g fill="none" id="connector0terminal" points="9.741,20.51,9.741,19.833,9.007,19.833,9.007,20.51"/>
<g transform="matrix(1, 0, 0, 1, 2.93158, 5.842)">
<g>
<g transform="rotate(270)">
<g>
<g transform="matrix(1, 0, 0, 1, -11.4061, 5.379)">
<text fill="#8C8C8C" font-size="2.5" font-family="'DroidSans'">1</text>
</g>
</g>
</g>
</g>
</g>
</g>
</g></g></g><g partID='236550'><line stroke-linecap='round' stroke='#404040' x1='58.6591' y1='23.484' x2='87.5601' y2='23.608' stroke-width='0.699998' /></g><g partID='236730'><line stroke-linecap='round' stroke='#404040' x1='58.6591' y1='73.923' x2='58.6591' y2='23.484' stroke-width='0.699998' /></g><g partID='236560'><line stroke-linecap='round' stroke='#404040' x1='81.9941' y1='73.929' x2='58.6591' y2='73.923' stroke-width='0.699998' /></g><circle  fill="black" cx="81.9941" cy="73.929" r="1.44" stroke-width="0" stroke="none" /><g partID='236920'><line stroke-linecap='round' stroke='#404040' x1='66.0841' y1='30.909' x2='66.0841' y2='88.517' stroke-width='0.699998' /></g><g partID='237100'><line stroke-linecap='round' stroke='#404040' x1='66.0841' y1='88.517' x2='81.9941' y2='88.366' stroke-width='0.699998' /></g><circle  fill="black" cx="66.0841" cy="88.517" r="1.44" stroke-width="0" stroke="none" /><circle  fill="black" cx="81.9941" cy="88.366" r="1.44" stroke-width="0" stroke="none" /><g partID='236930'><line stroke-linecap='round' stroke='#404040' x1='87.5601' y1='30.808' x2='66.0841' y2='30.909' stroke-width='0.699998' /></g><g partID='237290'><line stroke-linecap='round' stroke='#404040' x1='73.2531' y1='45.247' x2='73.2531' y2='103.367' stroke-width='0.699998' /></g><g partID='238330'><line stroke-linecap='round' stroke='#404040' x1='73.2531' y1='103.367' x2='81.9941' y2='102.866' stroke-width='0.699998' /></g><circle  fill="black" cx="73.2531" cy="103.367" r="1.44" stroke-width="0" stroke="none" /><circle  fill="black" cx="81.9941" cy="102.866" r="1.44" stroke-width="0" stroke="none" /><g partID='237300'><line stroke-linecap='round' stroke='#404040' x1='87.5601' y1='45.208' x2='73.2531' y2='45.247' stroke-width='0.699998' /></g><g partID='239460'><line stroke-linecap='round' stroke='#404040' x1='22.8141' y1='52.416' x2='37.1601' y2='52.408' stroke-width='0.699998' /></g><g partID='239470'><line stroke-linecap='round' stroke='#404040' x1='58.7601' y1='174.808' x2='22.8141' y2='174.801' stroke-width='0.699998' /></g><g partID='239520'><line stroke-linecap='round' stroke='#404040' x1='22.8141' y1='174.801' x2='22.8141' y2='52.416' stroke-width='0.699998' /></g><g partID='239570'><line stroke-linecap='round' stroke='#404040' x1='58.7601' y1='131.608' x2='58.7601' y2='167.636' stroke-width='0.699998' /></g><circle  fill="black" cx="58.7601" cy="131.608" r="1.44" stroke-width="0" stroke="none" /><circle  fill="black" cx="58.7601" cy="167.636" r="1.44" stroke-width="0" stroke="none" /><g partID='239770'><line stroke-linecap='round' stroke='#404040' x1='58.7601' y1='131.608' x2='58.7601' y2='88.408' stroke-width='0.699998' /></g><circle  fill="black" cx="58.7601" cy="131.608" r="1.44" stroke-width="0" stroke="none" /><g partID='240310'><line stroke-linecap='round' stroke='#404040' x1='109.16' y1='88.408' x2='109.16' y2='131.608' stroke-width='0.699998' /></g><circle  fill="black" cx="109.16" cy="88.408" r="1.44" stroke-width="0" stroke="none" /><circle  fill="black" cx="109.16" cy="131.608" r="1.44" stroke-width="0" stroke="none" /><g partID='240490'><line stroke-linecap='round' stroke='#404040' x1='109.098' y1='66.754' x2='109.16' y2='88.408' stroke-width='0.699998' /></g><circle  fill="black" cx="109.16" cy="88.408" r="1.44" stroke-width="0" stroke="none" /><g partID='240650'><line stroke-linecap='round' stroke='#404040' x1='80.4221' y1='66.754' x2='109.098' y2='66.754' stroke-width='0.699998' /></g><g partID='240800'><line stroke-linecap='round' stroke='#404040' x1='80.4221' y1='52.416' x2='80.4221' y2='66.754' stroke-width='0.699998' /></g><g partID='240500'><line stroke-linecap='round' stroke='#404040' x1='87.5601' y1='52.408' x2='80.4221' y2='52.416' stroke-width='0.699998' /></g><g partID='241280'><line stroke-linecap='round' stroke='#404040' x1='58.6591' y1='153.294' x2='109.098' y2='153.294' stroke-width='0.699998' /></g><g partID='241150'><line stroke-linecap='round' stroke='#404040' x1='58.7601' y1='167.636' x2='58.6591' y2='153.294' stroke-width='0.699998' /></g><circle  fill="black" cx="58.7601" cy="167.636" r="1.44" stroke-width="0" stroke="none" /><g partID='241410'><line stroke-linecap='round' stroke='#404040' x1='109.098' y1='153.294' x2='109.16' y2='131.608' stroke-width='0.699998' /></g><circle  fill="black" cx="109.16" cy="131.608" r="1.44" stroke-width="0" stroke="none" /><g partID='241560'><line stroke-linecap='round' stroke='#404040' x1='15.6451' y1='73.923' x2='31.5941' y2='73.929' stroke-width='0.699998' /></g><circle  fill="black" cx="31.5941" cy="73.929" r="1.44" stroke-width="0" stroke="none" /><g partID='241570'><line stroke-linecap='round' stroke='#404040' x1='31.5941' y1='117.129' x2='15.6451' y2='117.193' stroke-width='0.699998' /></g><circle  fill="black" cx="31.5941" cy="117.129" r="1.44" stroke-width="0" stroke="none" /><g partID='241720'><line stroke-linecap='round' stroke='#404040' x1='15.6451' y1='117.193' x2='15.6451' y2='73.923' stroke-width='0.699998' /></g><g partID='241890'><line stroke-linecap='round' stroke='#404040' x1='8.47614' y1='88.517' x2='31.5941' y2='88.366' stroke-width='0.699998' /></g><circle  fill="black" cx="31.5941" cy="88.366" r="1.44" stroke-width="0" stroke="none" /><g partID='242050'><line stroke-linecap='round' stroke='#404040' x1='8.47614' y1='131.531' x2='8.47614' y2='88.517' stroke-width='0.699998' /></g><g partID='241900'><line stroke-linecap='round' stroke='#404040' x1='31.5941' y1='131.566' x2='8.47614' y2='131.531' stroke-width='0.699998' /></g><g partID='242220'><line stroke-linecap='round' stroke='#404040' x1='1.05112' y1='102.855' x2='31.5941' y2='102.866' stroke-width='0.699998' /></g><circle  fill="black" cx="31.5941" cy="102.866" r="1.44" stroke-width="0" stroke="none" /><g partID='242380'><line stroke-linecap='round' stroke='#404040' x1='1.05112' y1='146.125' x2='1.05112' y2='102.855' stroke-width='0.699998' /></g><g partID='242230'><line stroke-linecap='round' stroke='#404040' x1='31.5941' y1='146.066' x2='1.05112' y2='146.125' stroke-width='0.699998' /></g><g partID='242530'><line stroke-linecap='round' stroke='#404040' x1='73.2531' y1='103.367' x2='73.2531' y2='146.125' stroke-width='0.699998' /></g><g partID='242660'><line stroke-linecap='round' stroke='#404040' x1='73.2531' y1='146.125' x2='81.9941' y2='146.066' stroke-width='0.699998' /></g><g partID='242920'><line stroke-linecap='round' stroke='#404040' x1='66.0841' y1='131.531' x2='81.9941' y2='131.566' stroke-width='0.699998' /></g><g partID='242790'><line stroke-linecap='round' stroke='#404040' x1='66.0841' y1='88.517' x2='66.0841' y2='131.531' stroke-width='0.699998' /></g><g partID='244270'><line stroke-linecap='round' stroke='#404040' x1='77.6057' y1='110.536' x2='81.9941' y2='102.866' stroke-width='0.699998' /></g><circle  fill="black" cx="81.9941" cy="102.866" r="1.44" stroke-width="0" stroke="none" /><g partID='244150'><line stroke-linecap='round' stroke='#404040' x1='37.1521' y1='110.024' x2='77.6057' y2='110.536' stroke-width='0.699998' /></g><g partID='244160'><line stroke-linecap='round' stroke='#404040' x1='31.5941' y1='102.866' x2='37.1521' y2='110.024' stroke-width='0.699998' /></g><circle  fill="black" cx="31.5941" cy="102.866" r="1.44" stroke-width="0" stroke="none" /><g partID='244520'><line stroke-linecap='round' stroke='#404040' x1='80.4221' y1='95.686' x2='81.9941' y2='88.366' stroke-width='0.699998' /></g><circle  fill="black" cx="81.9941" cy="88.366" r="1.44" stroke-width="0" stroke="none" /><g partID='244400'><line stroke-linecap='round' stroke='#404040' x1='37.1521' y1='95.686' x2='80.4221' y2='95.686' stroke-width='0.699998' /></g><g partID='244410'><line stroke-linecap='round' stroke='#404040' x1='31.5941' y1='88.366' x2='37.1521' y2='95.686' stroke-width='0.699998' /></g><circle  fill="black" cx="31.5941" cy="88.366" r="1.44" stroke-width="0" stroke="none" /><g partID='244770'><line stroke-linecap='round' stroke='#404040' x1='80.4221' y1='81.092' x2='81.9941' y2='73.929' stroke-width='0.699998' /></g><circle  fill="black" cx="81.9941" cy="73.929" r="1.44" stroke-width="0" stroke="none" /><g partID='244650'><line stroke-linecap='round' stroke='#404040' x1='37.1521' y1='81.092' x2='80.4221' y2='81.092' stroke-width='0.699998' /></g><g partID='244660'><line stroke-linecap='round' stroke='#404040' x1='31.5941' y1='73.929' x2='37.1521' y2='81.092' stroke-width='0.699998' /></g><circle  fill="black" cx="31.5941" cy="73.929" r="1.44" stroke-width="0" stroke="none" /><g partID='245220'><line stroke-linecap='round' stroke='#404040' x1='55.3306' y1='112.84' x2='55.3306' y2='117.193' stroke-width='0.699998' /></g><g partID='245000'><line stroke-linecap='round' stroke='#404040' x1='31.5941' y1='117.129' x2='31.2633' y2='113.096' stroke-width='0.699998' /></g><circle  fill="black" cx="31.5941" cy="117.129" r="1.44" stroke-width="0" stroke="none" /><g partID='245110'><line stroke-linecap='round' stroke='#404040' x1='55.3306' y1='117.193' x2='81.9941' y2='117.129' stroke-width='0.699998' /></g><g partID='245330'><line stroke-linecap='round' stroke='#404040' x1='31.2633' y1='113.096' x2='55.3306' y2='112.84' stroke-width='0.699998' /></g><g partID='57670' id='partLabel'><g transform='translate(101.96,0)' ><g font-size='5' font-style='normal' font-weight='normal' fill='#000000' font-family="'DroidSans'" id='schematicLabel' fill-opacity='1' stroke='none' ><text x='0' y='3.75'>J2</text></g></g></g><g partID='57650' id='partLabel'><g transform='translate(51.5601,1.13687e-14)' ><g font-size='5' font-style='normal' font-weight='normal' fill='#000000' font-family="'DroidSans'" id='schematicLabel' fill-opacity='1' stroke='none' ><text x='0' y='3.75'>J1</text></g></g></g><g partID='57830' id='partLabel'><g transform='translate(117.894,71.7625)' ><g font-size='5' font-style='normal' font-weight='normal' fill='#000000' font-family="'DroidSans'" id='schematicLabel' fill-opacity='1' stroke='none' ><text x='0' y='3.75'>LED2</text></g></g></g><g partID='57850' id='partLabel'><g transform='translate(117.894,114.963)' ><g font-size='5' font-style='normal' font-weight='normal' fill='#000000' font-family="'DroidSans'" id='schematicLabel' fill-opacity='1' stroke='none' ><text x='0' y='3.75'>LED4</text></g></g></g><g partID='57870' id='partLabel'><g transform='translate(67.4941,114.963)' ><g font-size='5' font-style='normal' font-weight='normal' fill='#000000' font-family="'DroidSans'" id='schematicLabel' fill-opacity='1' stroke='none' ><text x='0' y='3.75'>LED3</text></g></g></g><g partID='57890' id='partLabel'><g transform='translate(67.4941,71.7625)' ><g font-size='5' font-style='normal' font-weight='normal' fill='#000000' font-family="'DroidSans'" id='schematicLabel' fill-opacity='1' stroke='none' ><text x='0' y='3.75'>LED1</text></g></g></g><g partID='226580' id='partLabel'><g transform='translate(81.6366,155.367)' ><g font-size='5' font-style='normal' font-weight='normal' fill='#000000' font-family="'DroidSans'" id='schematicLabel' fill-opacity='1' stroke='none' ><text x='0' y='3.75'>Piezo</text></g></g></g></svg>