; NON-PLATED HOLES START AT T1
; THROUGH (PLATED) HOLES START AT T100
M48
INCH
T100C0.038000
T101C0.025000
%
T100
X009373Y006450
X005004Y001460
X000700Y004460
X000700Y009460
X000700Y010460
X009373Y010450
X009373Y009450
X005004Y002460
X000700Y006460
X009373Y007450
X009373Y004450
X009373Y005450
X000700Y005460
X000700Y008460
X009373Y003450
X000700Y003460
X000700Y007460
X009373Y008450
T101
X002248Y005353
X005463Y005353
X002248Y008353
X004610Y005353
X007825Y008353
X005463Y008353
X004610Y008353
X003036Y005353
X007825Y005353
X003822Y008353
X003822Y005353
X003036Y008353
X007037Y008353
X006251Y005353
X007037Y005353
X006251Y008353
T00
M30
