G04 MADE WITH FRITZING*
G04 WWW.FRITZING.ORG*
G04 DOUBLE SIDED*
G04 HOLES PLATED*
G04 CONTOUR ON CENTER OF CONTOUR VECTOR*
%ASAXBY*%
%FSLAX23Y23*%
%MOIN*%
%OFA0B0*%
%SFA1.0B1.0*%
%ADD10C,0.010000*%
%ADD11C,0.005000*%
%ADD12R,0.001000X0.001000*%
%LNSILK0*%
G90*
G70*
G54D10*
X120Y1096D02*
X120Y296D01*
D02*
X120Y296D02*
X20Y296D01*
D02*
X20Y296D02*
X20Y1096D01*
D02*
X20Y1096D02*
X120Y1096D01*
G54D11*
D02*
X120Y1061D02*
X85Y1096D01*
G54D10*
D02*
X987Y1095D02*
X987Y295D01*
D02*
X987Y295D02*
X887Y295D01*
D02*
X887Y295D02*
X887Y1095D01*
D02*
X887Y1095D02*
X987Y1095D01*
G54D12*
X0Y1346D02*
X1006Y1346D01*
X0Y1345D02*
X1006Y1345D01*
X0Y1344D02*
X1006Y1344D01*
X0Y1343D02*
X1006Y1343D01*
X0Y1342D02*
X1006Y1342D01*
X0Y1341D02*
X1006Y1341D01*
X0Y1340D02*
X1006Y1340D01*
X0Y1339D02*
X1006Y1339D01*
X0Y1338D02*
X7Y1338D01*
X999Y1338D02*
X1006Y1338D01*
X0Y1337D02*
X7Y1337D01*
X999Y1337D02*
X1006Y1337D01*
X0Y1336D02*
X7Y1336D01*
X999Y1336D02*
X1006Y1336D01*
X0Y1335D02*
X7Y1335D01*
X999Y1335D02*
X1006Y1335D01*
X0Y1334D02*
X7Y1334D01*
X999Y1334D02*
X1006Y1334D01*
X0Y1333D02*
X7Y1333D01*
X999Y1333D02*
X1006Y1333D01*
X0Y1332D02*
X7Y1332D01*
X999Y1332D02*
X1006Y1332D01*
X0Y1331D02*
X7Y1331D01*
X999Y1331D02*
X1006Y1331D01*
X0Y1330D02*
X7Y1330D01*
X999Y1330D02*
X1006Y1330D01*
X0Y1329D02*
X7Y1329D01*
X999Y1329D02*
X1006Y1329D01*
X0Y1328D02*
X7Y1328D01*
X999Y1328D02*
X1006Y1328D01*
X0Y1327D02*
X7Y1327D01*
X999Y1327D02*
X1006Y1327D01*
X0Y1326D02*
X7Y1326D01*
X999Y1326D02*
X1006Y1326D01*
X0Y1325D02*
X7Y1325D01*
X999Y1325D02*
X1006Y1325D01*
X0Y1324D02*
X7Y1324D01*
X999Y1324D02*
X1006Y1324D01*
X0Y1323D02*
X7Y1323D01*
X999Y1323D02*
X1006Y1323D01*
X0Y1322D02*
X7Y1322D01*
X999Y1322D02*
X1006Y1322D01*
X0Y1321D02*
X7Y1321D01*
X999Y1321D02*
X1006Y1321D01*
X0Y1320D02*
X7Y1320D01*
X999Y1320D02*
X1006Y1320D01*
X0Y1319D02*
X7Y1319D01*
X999Y1319D02*
X1006Y1319D01*
X0Y1318D02*
X7Y1318D01*
X999Y1318D02*
X1006Y1318D01*
X0Y1317D02*
X7Y1317D01*
X999Y1317D02*
X1006Y1317D01*
X0Y1316D02*
X7Y1316D01*
X999Y1316D02*
X1006Y1316D01*
X0Y1315D02*
X7Y1315D01*
X999Y1315D02*
X1006Y1315D01*
X0Y1314D02*
X7Y1314D01*
X999Y1314D02*
X1006Y1314D01*
X0Y1313D02*
X7Y1313D01*
X999Y1313D02*
X1006Y1313D01*
X0Y1312D02*
X7Y1312D01*
X999Y1312D02*
X1006Y1312D01*
X0Y1311D02*
X7Y1311D01*
X999Y1311D02*
X1006Y1311D01*
X0Y1310D02*
X7Y1310D01*
X999Y1310D02*
X1006Y1310D01*
X0Y1309D02*
X7Y1309D01*
X999Y1309D02*
X1006Y1309D01*
X0Y1308D02*
X7Y1308D01*
X999Y1308D02*
X1006Y1308D01*
X0Y1307D02*
X7Y1307D01*
X999Y1307D02*
X1006Y1307D01*
X0Y1306D02*
X7Y1306D01*
X999Y1306D02*
X1006Y1306D01*
X0Y1305D02*
X7Y1305D01*
X999Y1305D02*
X1006Y1305D01*
X0Y1304D02*
X7Y1304D01*
X999Y1304D02*
X1006Y1304D01*
X0Y1303D02*
X7Y1303D01*
X999Y1303D02*
X1006Y1303D01*
X0Y1302D02*
X7Y1302D01*
X999Y1302D02*
X1006Y1302D01*
X0Y1301D02*
X7Y1301D01*
X999Y1301D02*
X1006Y1301D01*
X0Y1300D02*
X7Y1300D01*
X999Y1300D02*
X1006Y1300D01*
X0Y1299D02*
X7Y1299D01*
X999Y1299D02*
X1006Y1299D01*
X0Y1298D02*
X7Y1298D01*
X999Y1298D02*
X1006Y1298D01*
X0Y1297D02*
X7Y1297D01*
X999Y1297D02*
X1006Y1297D01*
X0Y1296D02*
X7Y1296D01*
X999Y1296D02*
X1006Y1296D01*
X0Y1295D02*
X7Y1295D01*
X999Y1295D02*
X1006Y1295D01*
X0Y1294D02*
X7Y1294D01*
X999Y1294D02*
X1006Y1294D01*
X0Y1293D02*
X7Y1293D01*
X999Y1293D02*
X1006Y1293D01*
X0Y1292D02*
X7Y1292D01*
X999Y1292D02*
X1006Y1292D01*
X0Y1291D02*
X7Y1291D01*
X999Y1291D02*
X1006Y1291D01*
X0Y1290D02*
X7Y1290D01*
X999Y1290D02*
X1006Y1290D01*
X0Y1289D02*
X7Y1289D01*
X999Y1289D02*
X1006Y1289D01*
X0Y1288D02*
X7Y1288D01*
X999Y1288D02*
X1006Y1288D01*
X0Y1287D02*
X7Y1287D01*
X999Y1287D02*
X1006Y1287D01*
X0Y1286D02*
X7Y1286D01*
X999Y1286D02*
X1006Y1286D01*
X0Y1285D02*
X7Y1285D01*
X999Y1285D02*
X1006Y1285D01*
X0Y1284D02*
X7Y1284D01*
X999Y1284D02*
X1006Y1284D01*
X0Y1283D02*
X7Y1283D01*
X999Y1283D02*
X1006Y1283D01*
X0Y1282D02*
X7Y1282D01*
X999Y1282D02*
X1006Y1282D01*
X0Y1281D02*
X7Y1281D01*
X999Y1281D02*
X1006Y1281D01*
X0Y1280D02*
X7Y1280D01*
X999Y1280D02*
X1006Y1280D01*
X0Y1279D02*
X7Y1279D01*
X999Y1279D02*
X1006Y1279D01*
X0Y1278D02*
X7Y1278D01*
X999Y1278D02*
X1006Y1278D01*
X0Y1277D02*
X7Y1277D01*
X999Y1277D02*
X1006Y1277D01*
X0Y1276D02*
X7Y1276D01*
X999Y1276D02*
X1006Y1276D01*
X0Y1275D02*
X7Y1275D01*
X999Y1275D02*
X1006Y1275D01*
X0Y1274D02*
X7Y1274D01*
X999Y1274D02*
X1006Y1274D01*
X0Y1273D02*
X7Y1273D01*
X999Y1273D02*
X1006Y1273D01*
X0Y1272D02*
X7Y1272D01*
X999Y1272D02*
X1006Y1272D01*
X0Y1271D02*
X7Y1271D01*
X999Y1271D02*
X1006Y1271D01*
X0Y1270D02*
X7Y1270D01*
X999Y1270D02*
X1006Y1270D01*
X0Y1269D02*
X7Y1269D01*
X999Y1269D02*
X1006Y1269D01*
X0Y1268D02*
X7Y1268D01*
X999Y1268D02*
X1006Y1268D01*
X0Y1267D02*
X7Y1267D01*
X999Y1267D02*
X1006Y1267D01*
X0Y1266D02*
X7Y1266D01*
X999Y1266D02*
X1006Y1266D01*
X0Y1265D02*
X7Y1265D01*
X999Y1265D02*
X1006Y1265D01*
X0Y1264D02*
X7Y1264D01*
X999Y1264D02*
X1006Y1264D01*
X0Y1263D02*
X7Y1263D01*
X999Y1263D02*
X1006Y1263D01*
X0Y1262D02*
X7Y1262D01*
X999Y1262D02*
X1006Y1262D01*
X0Y1261D02*
X7Y1261D01*
X999Y1261D02*
X1006Y1261D01*
X0Y1260D02*
X7Y1260D01*
X999Y1260D02*
X1006Y1260D01*
X0Y1259D02*
X7Y1259D01*
X999Y1259D02*
X1006Y1259D01*
X0Y1258D02*
X7Y1258D01*
X999Y1258D02*
X1006Y1258D01*
X0Y1257D02*
X7Y1257D01*
X999Y1257D02*
X1006Y1257D01*
X0Y1256D02*
X7Y1256D01*
X999Y1256D02*
X1006Y1256D01*
X0Y1255D02*
X7Y1255D01*
X999Y1255D02*
X1006Y1255D01*
X0Y1254D02*
X7Y1254D01*
X999Y1254D02*
X1006Y1254D01*
X0Y1253D02*
X7Y1253D01*
X999Y1253D02*
X1006Y1253D01*
X0Y1252D02*
X7Y1252D01*
X999Y1252D02*
X1006Y1252D01*
X0Y1251D02*
X7Y1251D01*
X999Y1251D02*
X1006Y1251D01*
X0Y1250D02*
X7Y1250D01*
X999Y1250D02*
X1006Y1250D01*
X0Y1249D02*
X7Y1249D01*
X999Y1249D02*
X1006Y1249D01*
X0Y1248D02*
X7Y1248D01*
X999Y1248D02*
X1006Y1248D01*
X0Y1247D02*
X7Y1247D01*
X999Y1247D02*
X1006Y1247D01*
X0Y1246D02*
X7Y1246D01*
X999Y1246D02*
X1006Y1246D01*
X0Y1245D02*
X7Y1245D01*
X999Y1245D02*
X1006Y1245D01*
X0Y1244D02*
X7Y1244D01*
X999Y1244D02*
X1006Y1244D01*
X0Y1243D02*
X7Y1243D01*
X999Y1243D02*
X1006Y1243D01*
X0Y1242D02*
X7Y1242D01*
X999Y1242D02*
X1006Y1242D01*
X0Y1241D02*
X7Y1241D01*
X999Y1241D02*
X1006Y1241D01*
X0Y1240D02*
X7Y1240D01*
X999Y1240D02*
X1006Y1240D01*
X0Y1239D02*
X7Y1239D01*
X999Y1239D02*
X1006Y1239D01*
X0Y1238D02*
X7Y1238D01*
X999Y1238D02*
X1006Y1238D01*
X0Y1237D02*
X7Y1237D01*
X999Y1237D02*
X1006Y1237D01*
X0Y1236D02*
X7Y1236D01*
X999Y1236D02*
X1006Y1236D01*
X0Y1235D02*
X7Y1235D01*
X999Y1235D02*
X1006Y1235D01*
X0Y1234D02*
X7Y1234D01*
X999Y1234D02*
X1006Y1234D01*
X0Y1233D02*
X7Y1233D01*
X999Y1233D02*
X1006Y1233D01*
X0Y1232D02*
X7Y1232D01*
X999Y1232D02*
X1006Y1232D01*
X0Y1231D02*
X7Y1231D01*
X999Y1231D02*
X1006Y1231D01*
X0Y1230D02*
X7Y1230D01*
X999Y1230D02*
X1006Y1230D01*
X0Y1229D02*
X7Y1229D01*
X999Y1229D02*
X1006Y1229D01*
X0Y1228D02*
X7Y1228D01*
X999Y1228D02*
X1006Y1228D01*
X0Y1227D02*
X7Y1227D01*
X999Y1227D02*
X1006Y1227D01*
X0Y1226D02*
X7Y1226D01*
X999Y1226D02*
X1006Y1226D01*
X0Y1225D02*
X7Y1225D01*
X999Y1225D02*
X1006Y1225D01*
X0Y1224D02*
X7Y1224D01*
X999Y1224D02*
X1006Y1224D01*
X0Y1223D02*
X7Y1223D01*
X999Y1223D02*
X1006Y1223D01*
X0Y1222D02*
X7Y1222D01*
X999Y1222D02*
X1006Y1222D01*
X0Y1221D02*
X7Y1221D01*
X999Y1221D02*
X1006Y1221D01*
X0Y1220D02*
X7Y1220D01*
X999Y1220D02*
X1006Y1220D01*
X0Y1219D02*
X7Y1219D01*
X999Y1219D02*
X1006Y1219D01*
X0Y1218D02*
X7Y1218D01*
X999Y1218D02*
X1006Y1218D01*
X0Y1217D02*
X7Y1217D01*
X999Y1217D02*
X1006Y1217D01*
X0Y1216D02*
X7Y1216D01*
X999Y1216D02*
X1006Y1216D01*
X0Y1215D02*
X7Y1215D01*
X999Y1215D02*
X1006Y1215D01*
X0Y1214D02*
X7Y1214D01*
X999Y1214D02*
X1006Y1214D01*
X0Y1213D02*
X7Y1213D01*
X999Y1213D02*
X1006Y1213D01*
X0Y1212D02*
X7Y1212D01*
X999Y1212D02*
X1006Y1212D01*
X0Y1211D02*
X7Y1211D01*
X999Y1211D02*
X1006Y1211D01*
X0Y1210D02*
X7Y1210D01*
X999Y1210D02*
X1006Y1210D01*
X0Y1209D02*
X7Y1209D01*
X999Y1209D02*
X1006Y1209D01*
X0Y1208D02*
X7Y1208D01*
X999Y1208D02*
X1006Y1208D01*
X0Y1207D02*
X7Y1207D01*
X999Y1207D02*
X1006Y1207D01*
X0Y1206D02*
X7Y1206D01*
X999Y1206D02*
X1006Y1206D01*
X0Y1205D02*
X7Y1205D01*
X999Y1205D02*
X1006Y1205D01*
X0Y1204D02*
X7Y1204D01*
X999Y1204D02*
X1006Y1204D01*
X0Y1203D02*
X7Y1203D01*
X999Y1203D02*
X1006Y1203D01*
X0Y1202D02*
X7Y1202D01*
X999Y1202D02*
X1006Y1202D01*
X0Y1201D02*
X7Y1201D01*
X999Y1201D02*
X1006Y1201D01*
X0Y1200D02*
X7Y1200D01*
X999Y1200D02*
X1006Y1200D01*
X0Y1199D02*
X7Y1199D01*
X999Y1199D02*
X1006Y1199D01*
X0Y1198D02*
X7Y1198D01*
X999Y1198D02*
X1006Y1198D01*
X0Y1197D02*
X7Y1197D01*
X999Y1197D02*
X1006Y1197D01*
X0Y1196D02*
X7Y1196D01*
X999Y1196D02*
X1006Y1196D01*
X0Y1195D02*
X7Y1195D01*
X999Y1195D02*
X1006Y1195D01*
X0Y1194D02*
X7Y1194D01*
X999Y1194D02*
X1006Y1194D01*
X0Y1193D02*
X7Y1193D01*
X999Y1193D02*
X1006Y1193D01*
X0Y1192D02*
X7Y1192D01*
X999Y1192D02*
X1006Y1192D01*
X0Y1191D02*
X7Y1191D01*
X999Y1191D02*
X1006Y1191D01*
X0Y1190D02*
X7Y1190D01*
X999Y1190D02*
X1006Y1190D01*
X0Y1189D02*
X7Y1189D01*
X999Y1189D02*
X1006Y1189D01*
X0Y1188D02*
X7Y1188D01*
X999Y1188D02*
X1006Y1188D01*
X0Y1187D02*
X7Y1187D01*
X999Y1187D02*
X1006Y1187D01*
X0Y1186D02*
X7Y1186D01*
X999Y1186D02*
X1006Y1186D01*
X0Y1185D02*
X7Y1185D01*
X999Y1185D02*
X1006Y1185D01*
X0Y1184D02*
X7Y1184D01*
X999Y1184D02*
X1006Y1184D01*
X0Y1183D02*
X7Y1183D01*
X999Y1183D02*
X1006Y1183D01*
X0Y1182D02*
X7Y1182D01*
X999Y1182D02*
X1006Y1182D01*
X0Y1181D02*
X7Y1181D01*
X999Y1181D02*
X1006Y1181D01*
X0Y1180D02*
X7Y1180D01*
X999Y1180D02*
X1006Y1180D01*
X0Y1179D02*
X7Y1179D01*
X999Y1179D02*
X1006Y1179D01*
X0Y1178D02*
X7Y1178D01*
X999Y1178D02*
X1006Y1178D01*
X0Y1177D02*
X7Y1177D01*
X999Y1177D02*
X1006Y1177D01*
X0Y1176D02*
X7Y1176D01*
X999Y1176D02*
X1006Y1176D01*
X0Y1175D02*
X7Y1175D01*
X999Y1175D02*
X1006Y1175D01*
X0Y1174D02*
X7Y1174D01*
X999Y1174D02*
X1006Y1174D01*
X0Y1173D02*
X7Y1173D01*
X999Y1173D02*
X1006Y1173D01*
X0Y1172D02*
X7Y1172D01*
X999Y1172D02*
X1006Y1172D01*
X0Y1171D02*
X7Y1171D01*
X999Y1171D02*
X1006Y1171D01*
X0Y1170D02*
X7Y1170D01*
X999Y1170D02*
X1006Y1170D01*
X0Y1169D02*
X7Y1169D01*
X999Y1169D02*
X1006Y1169D01*
X0Y1168D02*
X7Y1168D01*
X999Y1168D02*
X1006Y1168D01*
X0Y1167D02*
X7Y1167D01*
X999Y1167D02*
X1006Y1167D01*
X0Y1166D02*
X7Y1166D01*
X999Y1166D02*
X1006Y1166D01*
X0Y1165D02*
X7Y1165D01*
X999Y1165D02*
X1006Y1165D01*
X0Y1164D02*
X7Y1164D01*
X999Y1164D02*
X1006Y1164D01*
X0Y1163D02*
X7Y1163D01*
X999Y1163D02*
X1006Y1163D01*
X0Y1162D02*
X7Y1162D01*
X999Y1162D02*
X1006Y1162D01*
X0Y1161D02*
X7Y1161D01*
X999Y1161D02*
X1006Y1161D01*
X0Y1160D02*
X7Y1160D01*
X999Y1160D02*
X1006Y1160D01*
X0Y1159D02*
X7Y1159D01*
X999Y1159D02*
X1006Y1159D01*
X0Y1158D02*
X7Y1158D01*
X999Y1158D02*
X1006Y1158D01*
X0Y1157D02*
X7Y1157D01*
X999Y1157D02*
X1006Y1157D01*
X0Y1156D02*
X7Y1156D01*
X999Y1156D02*
X1006Y1156D01*
X0Y1155D02*
X7Y1155D01*
X999Y1155D02*
X1006Y1155D01*
X0Y1154D02*
X7Y1154D01*
X999Y1154D02*
X1006Y1154D01*
X0Y1153D02*
X7Y1153D01*
X999Y1153D02*
X1006Y1153D01*
X0Y1152D02*
X7Y1152D01*
X999Y1152D02*
X1006Y1152D01*
X0Y1151D02*
X7Y1151D01*
X999Y1151D02*
X1006Y1151D01*
X0Y1150D02*
X7Y1150D01*
X999Y1150D02*
X1006Y1150D01*
X0Y1149D02*
X7Y1149D01*
X999Y1149D02*
X1006Y1149D01*
X0Y1148D02*
X7Y1148D01*
X999Y1148D02*
X1006Y1148D01*
X0Y1147D02*
X7Y1147D01*
X999Y1147D02*
X1006Y1147D01*
X0Y1146D02*
X7Y1146D01*
X999Y1146D02*
X1006Y1146D01*
X0Y1145D02*
X7Y1145D01*
X999Y1145D02*
X1006Y1145D01*
X0Y1144D02*
X7Y1144D01*
X999Y1144D02*
X1006Y1144D01*
X0Y1143D02*
X7Y1143D01*
X999Y1143D02*
X1006Y1143D01*
X0Y1142D02*
X7Y1142D01*
X999Y1142D02*
X1006Y1142D01*
X0Y1141D02*
X7Y1141D01*
X999Y1141D02*
X1006Y1141D01*
X0Y1140D02*
X7Y1140D01*
X999Y1140D02*
X1006Y1140D01*
X0Y1139D02*
X7Y1139D01*
X999Y1139D02*
X1006Y1139D01*
X0Y1138D02*
X7Y1138D01*
X999Y1138D02*
X1006Y1138D01*
X0Y1137D02*
X7Y1137D01*
X999Y1137D02*
X1006Y1137D01*
X0Y1136D02*
X7Y1136D01*
X999Y1136D02*
X1006Y1136D01*
X0Y1135D02*
X7Y1135D01*
X999Y1135D02*
X1006Y1135D01*
X0Y1134D02*
X7Y1134D01*
X999Y1134D02*
X1006Y1134D01*
X0Y1133D02*
X7Y1133D01*
X999Y1133D02*
X1006Y1133D01*
X0Y1132D02*
X7Y1132D01*
X999Y1132D02*
X1006Y1132D01*
X0Y1131D02*
X7Y1131D01*
X999Y1131D02*
X1006Y1131D01*
X0Y1130D02*
X7Y1130D01*
X999Y1130D02*
X1006Y1130D01*
X0Y1129D02*
X7Y1129D01*
X999Y1129D02*
X1006Y1129D01*
X0Y1128D02*
X7Y1128D01*
X999Y1128D02*
X1006Y1128D01*
X0Y1127D02*
X7Y1127D01*
X999Y1127D02*
X1006Y1127D01*
X0Y1126D02*
X7Y1126D01*
X999Y1126D02*
X1006Y1126D01*
X0Y1125D02*
X7Y1125D01*
X999Y1125D02*
X1006Y1125D01*
X0Y1124D02*
X7Y1124D01*
X999Y1124D02*
X1006Y1124D01*
X0Y1123D02*
X7Y1123D01*
X999Y1123D02*
X1006Y1123D01*
X0Y1122D02*
X7Y1122D01*
X999Y1122D02*
X1006Y1122D01*
X0Y1121D02*
X7Y1121D01*
X999Y1121D02*
X1006Y1121D01*
X0Y1120D02*
X7Y1120D01*
X999Y1120D02*
X1006Y1120D01*
X0Y1119D02*
X7Y1119D01*
X999Y1119D02*
X1006Y1119D01*
X0Y1118D02*
X7Y1118D01*
X999Y1118D02*
X1006Y1118D01*
X0Y1117D02*
X7Y1117D01*
X999Y1117D02*
X1006Y1117D01*
X0Y1116D02*
X7Y1116D01*
X999Y1116D02*
X1006Y1116D01*
X0Y1115D02*
X7Y1115D01*
X999Y1115D02*
X1006Y1115D01*
X0Y1114D02*
X7Y1114D01*
X999Y1114D02*
X1006Y1114D01*
X0Y1113D02*
X7Y1113D01*
X999Y1113D02*
X1006Y1113D01*
X0Y1112D02*
X7Y1112D01*
X999Y1112D02*
X1006Y1112D01*
X0Y1111D02*
X7Y1111D01*
X999Y1111D02*
X1006Y1111D01*
X0Y1110D02*
X7Y1110D01*
X999Y1110D02*
X1006Y1110D01*
X0Y1109D02*
X7Y1109D01*
X999Y1109D02*
X1006Y1109D01*
X0Y1108D02*
X7Y1108D01*
X999Y1108D02*
X1006Y1108D01*
X0Y1107D02*
X7Y1107D01*
X999Y1107D02*
X1006Y1107D01*
X0Y1106D02*
X7Y1106D01*
X999Y1106D02*
X1006Y1106D01*
X0Y1105D02*
X7Y1105D01*
X999Y1105D02*
X1006Y1105D01*
X0Y1104D02*
X7Y1104D01*
X999Y1104D02*
X1006Y1104D01*
X0Y1103D02*
X7Y1103D01*
X999Y1103D02*
X1006Y1103D01*
X0Y1102D02*
X7Y1102D01*
X999Y1102D02*
X1006Y1102D01*
X0Y1101D02*
X7Y1101D01*
X999Y1101D02*
X1006Y1101D01*
X0Y1100D02*
X7Y1100D01*
X999Y1100D02*
X1006Y1100D01*
X0Y1099D02*
X7Y1099D01*
X999Y1099D02*
X1006Y1099D01*
X0Y1098D02*
X7Y1098D01*
X999Y1098D02*
X1006Y1098D01*
X0Y1097D02*
X7Y1097D01*
X999Y1097D02*
X1006Y1097D01*
X0Y1096D02*
X7Y1096D01*
X952Y1096D02*
X953Y1096D01*
X999Y1096D02*
X1006Y1096D01*
X0Y1095D02*
X7Y1095D01*
X951Y1095D02*
X954Y1095D01*
X999Y1095D02*
X1006Y1095D01*
X0Y1094D02*
X7Y1094D01*
X950Y1094D02*
X955Y1094D01*
X999Y1094D02*
X1006Y1094D01*
X0Y1093D02*
X7Y1093D01*
X950Y1093D02*
X956Y1093D01*
X999Y1093D02*
X1006Y1093D01*
X0Y1092D02*
X7Y1092D01*
X951Y1092D02*
X957Y1092D01*
X999Y1092D02*
X1006Y1092D01*
X0Y1091D02*
X7Y1091D01*
X952Y1091D02*
X958Y1091D01*
X999Y1091D02*
X1006Y1091D01*
X0Y1090D02*
X7Y1090D01*
X953Y1090D02*
X959Y1090D01*
X999Y1090D02*
X1006Y1090D01*
X0Y1089D02*
X7Y1089D01*
X954Y1089D02*
X960Y1089D01*
X999Y1089D02*
X1006Y1089D01*
X0Y1088D02*
X7Y1088D01*
X955Y1088D02*
X961Y1088D01*
X999Y1088D02*
X1006Y1088D01*
X0Y1087D02*
X7Y1087D01*
X956Y1087D02*
X962Y1087D01*
X999Y1087D02*
X1006Y1087D01*
X0Y1086D02*
X7Y1086D01*
X957Y1086D02*
X963Y1086D01*
X999Y1086D02*
X1006Y1086D01*
X0Y1085D02*
X7Y1085D01*
X958Y1085D02*
X964Y1085D01*
X999Y1085D02*
X1006Y1085D01*
X0Y1084D02*
X7Y1084D01*
X959Y1084D02*
X965Y1084D01*
X999Y1084D02*
X1006Y1084D01*
X0Y1083D02*
X7Y1083D01*
X960Y1083D02*
X966Y1083D01*
X999Y1083D02*
X1006Y1083D01*
X0Y1082D02*
X7Y1082D01*
X961Y1082D02*
X967Y1082D01*
X999Y1082D02*
X1006Y1082D01*
X0Y1081D02*
X7Y1081D01*
X962Y1081D02*
X968Y1081D01*
X999Y1081D02*
X1006Y1081D01*
X0Y1080D02*
X7Y1080D01*
X963Y1080D02*
X969Y1080D01*
X999Y1080D02*
X1006Y1080D01*
X0Y1079D02*
X7Y1079D01*
X964Y1079D02*
X970Y1079D01*
X999Y1079D02*
X1006Y1079D01*
X0Y1078D02*
X7Y1078D01*
X966Y1078D02*
X971Y1078D01*
X999Y1078D02*
X1006Y1078D01*
X0Y1077D02*
X7Y1077D01*
X967Y1077D02*
X972Y1077D01*
X999Y1077D02*
X1006Y1077D01*
X0Y1076D02*
X7Y1076D01*
X968Y1076D02*
X973Y1076D01*
X999Y1076D02*
X1006Y1076D01*
X0Y1075D02*
X7Y1075D01*
X969Y1075D02*
X974Y1075D01*
X999Y1075D02*
X1006Y1075D01*
X0Y1074D02*
X7Y1074D01*
X970Y1074D02*
X975Y1074D01*
X999Y1074D02*
X1006Y1074D01*
X0Y1073D02*
X7Y1073D01*
X970Y1073D02*
X976Y1073D01*
X999Y1073D02*
X1006Y1073D01*
X0Y1072D02*
X7Y1072D01*
X971Y1072D02*
X977Y1072D01*
X999Y1072D02*
X1006Y1072D01*
X0Y1071D02*
X7Y1071D01*
X972Y1071D02*
X978Y1071D01*
X999Y1071D02*
X1006Y1071D01*
X0Y1070D02*
X7Y1070D01*
X973Y1070D02*
X979Y1070D01*
X999Y1070D02*
X1006Y1070D01*
X0Y1069D02*
X7Y1069D01*
X974Y1069D02*
X980Y1069D01*
X999Y1069D02*
X1006Y1069D01*
X0Y1068D02*
X7Y1068D01*
X975Y1068D02*
X981Y1068D01*
X999Y1068D02*
X1006Y1068D01*
X0Y1067D02*
X7Y1067D01*
X976Y1067D02*
X982Y1067D01*
X999Y1067D02*
X1006Y1067D01*
X0Y1066D02*
X7Y1066D01*
X977Y1066D02*
X983Y1066D01*
X999Y1066D02*
X1006Y1066D01*
X0Y1065D02*
X7Y1065D01*
X978Y1065D02*
X984Y1065D01*
X999Y1065D02*
X1006Y1065D01*
X0Y1064D02*
X7Y1064D01*
X979Y1064D02*
X985Y1064D01*
X999Y1064D02*
X1006Y1064D01*
X0Y1063D02*
X7Y1063D01*
X980Y1063D02*
X986Y1063D01*
X999Y1063D02*
X1006Y1063D01*
X0Y1062D02*
X7Y1062D01*
X981Y1062D02*
X987Y1062D01*
X999Y1062D02*
X1006Y1062D01*
X0Y1061D02*
X7Y1061D01*
X982Y1061D02*
X986Y1061D01*
X999Y1061D02*
X1006Y1061D01*
X0Y1060D02*
X7Y1060D01*
X983Y1060D02*
X985Y1060D01*
X999Y1060D02*
X1006Y1060D01*
X0Y1059D02*
X7Y1059D01*
X984Y1059D02*
X984Y1059D01*
X999Y1059D02*
X1006Y1059D01*
X0Y1058D02*
X7Y1058D01*
X999Y1058D02*
X1006Y1058D01*
X0Y1057D02*
X7Y1057D01*
X999Y1057D02*
X1006Y1057D01*
X0Y1056D02*
X7Y1056D01*
X999Y1056D02*
X1006Y1056D01*
X0Y1055D02*
X7Y1055D01*
X999Y1055D02*
X1006Y1055D01*
X0Y1054D02*
X7Y1054D01*
X999Y1054D02*
X1006Y1054D01*
X0Y1053D02*
X7Y1053D01*
X999Y1053D02*
X1006Y1053D01*
X0Y1052D02*
X7Y1052D01*
X999Y1052D02*
X1006Y1052D01*
X0Y1051D02*
X7Y1051D01*
X999Y1051D02*
X1006Y1051D01*
X0Y1050D02*
X7Y1050D01*
X999Y1050D02*
X1006Y1050D01*
X0Y1049D02*
X7Y1049D01*
X999Y1049D02*
X1006Y1049D01*
X0Y1048D02*
X7Y1048D01*
X999Y1048D02*
X1006Y1048D01*
X0Y1047D02*
X7Y1047D01*
X999Y1047D02*
X1006Y1047D01*
X0Y1046D02*
X7Y1046D01*
X999Y1046D02*
X1006Y1046D01*
X0Y1045D02*
X7Y1045D01*
X999Y1045D02*
X1006Y1045D01*
X0Y1044D02*
X7Y1044D01*
X999Y1044D02*
X1006Y1044D01*
X0Y1043D02*
X7Y1043D01*
X999Y1043D02*
X1006Y1043D01*
X0Y1042D02*
X7Y1042D01*
X999Y1042D02*
X1006Y1042D01*
X0Y1041D02*
X7Y1041D01*
X999Y1041D02*
X1006Y1041D01*
X0Y1040D02*
X7Y1040D01*
X999Y1040D02*
X1006Y1040D01*
X0Y1039D02*
X7Y1039D01*
X999Y1039D02*
X1006Y1039D01*
X0Y1038D02*
X7Y1038D01*
X999Y1038D02*
X1006Y1038D01*
X0Y1037D02*
X7Y1037D01*
X999Y1037D02*
X1006Y1037D01*
X0Y1036D02*
X7Y1036D01*
X999Y1036D02*
X1006Y1036D01*
X0Y1035D02*
X7Y1035D01*
X999Y1035D02*
X1006Y1035D01*
X0Y1034D02*
X7Y1034D01*
X999Y1034D02*
X1006Y1034D01*
X0Y1033D02*
X7Y1033D01*
X999Y1033D02*
X1006Y1033D01*
X0Y1032D02*
X7Y1032D01*
X999Y1032D02*
X1006Y1032D01*
X0Y1031D02*
X7Y1031D01*
X999Y1031D02*
X1006Y1031D01*
X0Y1030D02*
X7Y1030D01*
X999Y1030D02*
X1006Y1030D01*
X0Y1029D02*
X7Y1029D01*
X999Y1029D02*
X1006Y1029D01*
X0Y1028D02*
X7Y1028D01*
X999Y1028D02*
X1006Y1028D01*
X0Y1027D02*
X7Y1027D01*
X999Y1027D02*
X1006Y1027D01*
X0Y1026D02*
X7Y1026D01*
X999Y1026D02*
X1006Y1026D01*
X0Y1025D02*
X7Y1025D01*
X999Y1025D02*
X1006Y1025D01*
X0Y1024D02*
X7Y1024D01*
X999Y1024D02*
X1006Y1024D01*
X0Y1023D02*
X7Y1023D01*
X999Y1023D02*
X1006Y1023D01*
X0Y1022D02*
X7Y1022D01*
X999Y1022D02*
X1006Y1022D01*
X0Y1021D02*
X7Y1021D01*
X999Y1021D02*
X1006Y1021D01*
X0Y1020D02*
X7Y1020D01*
X999Y1020D02*
X1006Y1020D01*
X0Y1019D02*
X7Y1019D01*
X999Y1019D02*
X1006Y1019D01*
X0Y1018D02*
X7Y1018D01*
X999Y1018D02*
X1006Y1018D01*
X0Y1017D02*
X7Y1017D01*
X999Y1017D02*
X1006Y1017D01*
X0Y1016D02*
X7Y1016D01*
X999Y1016D02*
X1006Y1016D01*
X0Y1015D02*
X7Y1015D01*
X999Y1015D02*
X1006Y1015D01*
X0Y1014D02*
X7Y1014D01*
X999Y1014D02*
X1006Y1014D01*
X0Y1013D02*
X7Y1013D01*
X999Y1013D02*
X1006Y1013D01*
X0Y1012D02*
X7Y1012D01*
X999Y1012D02*
X1006Y1012D01*
X0Y1011D02*
X7Y1011D01*
X999Y1011D02*
X1006Y1011D01*
X0Y1010D02*
X7Y1010D01*
X999Y1010D02*
X1006Y1010D01*
X0Y1009D02*
X7Y1009D01*
X999Y1009D02*
X1006Y1009D01*
X0Y1008D02*
X7Y1008D01*
X999Y1008D02*
X1006Y1008D01*
X0Y1007D02*
X7Y1007D01*
X999Y1007D02*
X1006Y1007D01*
X0Y1006D02*
X7Y1006D01*
X999Y1006D02*
X1006Y1006D01*
X0Y1005D02*
X7Y1005D01*
X999Y1005D02*
X1006Y1005D01*
X0Y1004D02*
X7Y1004D01*
X999Y1004D02*
X1006Y1004D01*
X0Y1003D02*
X7Y1003D01*
X999Y1003D02*
X1006Y1003D01*
X0Y1002D02*
X7Y1002D01*
X999Y1002D02*
X1006Y1002D01*
X0Y1001D02*
X7Y1001D01*
X999Y1001D02*
X1006Y1001D01*
X0Y1000D02*
X7Y1000D01*
X999Y1000D02*
X1006Y1000D01*
X0Y999D02*
X7Y999D01*
X999Y999D02*
X1006Y999D01*
X0Y998D02*
X7Y998D01*
X999Y998D02*
X1006Y998D01*
X0Y997D02*
X7Y997D01*
X999Y997D02*
X1006Y997D01*
X0Y996D02*
X7Y996D01*
X999Y996D02*
X1006Y996D01*
X0Y995D02*
X7Y995D01*
X999Y995D02*
X1006Y995D01*
X0Y994D02*
X7Y994D01*
X999Y994D02*
X1006Y994D01*
X0Y993D02*
X7Y993D01*
X999Y993D02*
X1006Y993D01*
X0Y992D02*
X7Y992D01*
X999Y992D02*
X1006Y992D01*
X0Y991D02*
X7Y991D01*
X999Y991D02*
X1006Y991D01*
X0Y990D02*
X7Y990D01*
X999Y990D02*
X1006Y990D01*
X0Y989D02*
X7Y989D01*
X999Y989D02*
X1006Y989D01*
X0Y988D02*
X7Y988D01*
X999Y988D02*
X1006Y988D01*
X0Y987D02*
X7Y987D01*
X999Y987D02*
X1006Y987D01*
X0Y986D02*
X7Y986D01*
X999Y986D02*
X1006Y986D01*
X0Y985D02*
X7Y985D01*
X999Y985D02*
X1006Y985D01*
X0Y984D02*
X7Y984D01*
X999Y984D02*
X1006Y984D01*
X0Y983D02*
X7Y983D01*
X999Y983D02*
X1006Y983D01*
X0Y982D02*
X7Y982D01*
X999Y982D02*
X1006Y982D01*
X0Y981D02*
X7Y981D01*
X999Y981D02*
X1006Y981D01*
X0Y980D02*
X7Y980D01*
X999Y980D02*
X1006Y980D01*
X0Y979D02*
X7Y979D01*
X999Y979D02*
X1006Y979D01*
X0Y978D02*
X7Y978D01*
X999Y978D02*
X1006Y978D01*
X0Y977D02*
X7Y977D01*
X999Y977D02*
X1006Y977D01*
X0Y976D02*
X7Y976D01*
X999Y976D02*
X1006Y976D01*
X0Y975D02*
X7Y975D01*
X999Y975D02*
X1006Y975D01*
X0Y974D02*
X7Y974D01*
X999Y974D02*
X1006Y974D01*
X0Y973D02*
X7Y973D01*
X999Y973D02*
X1006Y973D01*
X0Y972D02*
X7Y972D01*
X999Y972D02*
X1006Y972D01*
X0Y971D02*
X7Y971D01*
X999Y971D02*
X1006Y971D01*
X0Y970D02*
X7Y970D01*
X999Y970D02*
X1006Y970D01*
X0Y969D02*
X7Y969D01*
X999Y969D02*
X1006Y969D01*
X0Y968D02*
X7Y968D01*
X999Y968D02*
X1006Y968D01*
X0Y967D02*
X7Y967D01*
X999Y967D02*
X1006Y967D01*
X0Y966D02*
X7Y966D01*
X999Y966D02*
X1006Y966D01*
X0Y965D02*
X7Y965D01*
X999Y965D02*
X1006Y965D01*
X0Y964D02*
X7Y964D01*
X999Y964D02*
X1006Y964D01*
X0Y963D02*
X7Y963D01*
X999Y963D02*
X1006Y963D01*
X0Y962D02*
X7Y962D01*
X999Y962D02*
X1006Y962D01*
X0Y961D02*
X7Y961D01*
X999Y961D02*
X1006Y961D01*
X0Y960D02*
X7Y960D01*
X999Y960D02*
X1006Y960D01*
X0Y959D02*
X7Y959D01*
X999Y959D02*
X1006Y959D01*
X0Y958D02*
X7Y958D01*
X999Y958D02*
X1006Y958D01*
X0Y957D02*
X7Y957D01*
X999Y957D02*
X1006Y957D01*
X0Y956D02*
X7Y956D01*
X999Y956D02*
X1006Y956D01*
X0Y955D02*
X7Y955D01*
X999Y955D02*
X1006Y955D01*
X0Y954D02*
X7Y954D01*
X999Y954D02*
X1006Y954D01*
X0Y953D02*
X7Y953D01*
X999Y953D02*
X1006Y953D01*
X0Y952D02*
X7Y952D01*
X999Y952D02*
X1006Y952D01*
X0Y951D02*
X7Y951D01*
X999Y951D02*
X1006Y951D01*
X0Y950D02*
X7Y950D01*
X999Y950D02*
X1006Y950D01*
X0Y949D02*
X7Y949D01*
X999Y949D02*
X1006Y949D01*
X0Y948D02*
X7Y948D01*
X999Y948D02*
X1006Y948D01*
X0Y947D02*
X7Y947D01*
X999Y947D02*
X1006Y947D01*
X0Y946D02*
X7Y946D01*
X999Y946D02*
X1006Y946D01*
X0Y945D02*
X7Y945D01*
X999Y945D02*
X1006Y945D01*
X0Y944D02*
X7Y944D01*
X999Y944D02*
X1006Y944D01*
X0Y943D02*
X7Y943D01*
X999Y943D02*
X1006Y943D01*
X0Y942D02*
X7Y942D01*
X999Y942D02*
X1006Y942D01*
X0Y941D02*
X7Y941D01*
X999Y941D02*
X1006Y941D01*
X0Y940D02*
X7Y940D01*
X999Y940D02*
X1006Y940D01*
X0Y939D02*
X7Y939D01*
X999Y939D02*
X1006Y939D01*
X0Y938D02*
X7Y938D01*
X999Y938D02*
X1006Y938D01*
X0Y937D02*
X7Y937D01*
X999Y937D02*
X1006Y937D01*
X0Y936D02*
X7Y936D01*
X999Y936D02*
X1006Y936D01*
X0Y935D02*
X7Y935D01*
X999Y935D02*
X1006Y935D01*
X0Y934D02*
X7Y934D01*
X999Y934D02*
X1006Y934D01*
X0Y933D02*
X7Y933D01*
X999Y933D02*
X1006Y933D01*
X0Y932D02*
X7Y932D01*
X999Y932D02*
X1006Y932D01*
X0Y931D02*
X7Y931D01*
X999Y931D02*
X1006Y931D01*
X0Y930D02*
X7Y930D01*
X999Y930D02*
X1006Y930D01*
X0Y929D02*
X7Y929D01*
X999Y929D02*
X1006Y929D01*
X0Y928D02*
X7Y928D01*
X999Y928D02*
X1006Y928D01*
X0Y927D02*
X7Y927D01*
X999Y927D02*
X1006Y927D01*
X0Y926D02*
X7Y926D01*
X999Y926D02*
X1006Y926D01*
X0Y925D02*
X7Y925D01*
X999Y925D02*
X1006Y925D01*
X0Y924D02*
X7Y924D01*
X999Y924D02*
X1006Y924D01*
X0Y923D02*
X7Y923D01*
X999Y923D02*
X1006Y923D01*
X0Y922D02*
X7Y922D01*
X999Y922D02*
X1006Y922D01*
X0Y921D02*
X7Y921D01*
X999Y921D02*
X1006Y921D01*
X0Y920D02*
X7Y920D01*
X999Y920D02*
X1006Y920D01*
X0Y919D02*
X7Y919D01*
X999Y919D02*
X1006Y919D01*
X0Y918D02*
X7Y918D01*
X999Y918D02*
X1006Y918D01*
X0Y917D02*
X7Y917D01*
X999Y917D02*
X1006Y917D01*
X0Y916D02*
X7Y916D01*
X999Y916D02*
X1006Y916D01*
X0Y915D02*
X7Y915D01*
X999Y915D02*
X1006Y915D01*
X0Y914D02*
X7Y914D01*
X999Y914D02*
X1006Y914D01*
X0Y913D02*
X7Y913D01*
X999Y913D02*
X1006Y913D01*
X0Y912D02*
X7Y912D01*
X999Y912D02*
X1006Y912D01*
X0Y911D02*
X7Y911D01*
X999Y911D02*
X1006Y911D01*
X0Y910D02*
X7Y910D01*
X999Y910D02*
X1006Y910D01*
X0Y909D02*
X7Y909D01*
X999Y909D02*
X1006Y909D01*
X0Y908D02*
X7Y908D01*
X999Y908D02*
X1006Y908D01*
X0Y907D02*
X7Y907D01*
X999Y907D02*
X1006Y907D01*
X0Y906D02*
X7Y906D01*
X999Y906D02*
X1006Y906D01*
X0Y905D02*
X7Y905D01*
X999Y905D02*
X1006Y905D01*
X0Y904D02*
X7Y904D01*
X999Y904D02*
X1006Y904D01*
X0Y903D02*
X7Y903D01*
X999Y903D02*
X1006Y903D01*
X0Y902D02*
X7Y902D01*
X999Y902D02*
X1006Y902D01*
X0Y901D02*
X7Y901D01*
X999Y901D02*
X1006Y901D01*
X0Y900D02*
X7Y900D01*
X999Y900D02*
X1006Y900D01*
X0Y899D02*
X7Y899D01*
X999Y899D02*
X1006Y899D01*
X0Y898D02*
X7Y898D01*
X999Y898D02*
X1006Y898D01*
X0Y897D02*
X7Y897D01*
X999Y897D02*
X1006Y897D01*
X0Y896D02*
X7Y896D01*
X999Y896D02*
X1006Y896D01*
X0Y895D02*
X7Y895D01*
X999Y895D02*
X1006Y895D01*
X0Y894D02*
X7Y894D01*
X999Y894D02*
X1006Y894D01*
X0Y893D02*
X7Y893D01*
X999Y893D02*
X1006Y893D01*
X0Y892D02*
X7Y892D01*
X999Y892D02*
X1006Y892D01*
X0Y891D02*
X7Y891D01*
X999Y891D02*
X1006Y891D01*
X0Y890D02*
X7Y890D01*
X999Y890D02*
X1006Y890D01*
X0Y889D02*
X7Y889D01*
X999Y889D02*
X1006Y889D01*
X0Y888D02*
X7Y888D01*
X999Y888D02*
X1006Y888D01*
X0Y887D02*
X7Y887D01*
X999Y887D02*
X1006Y887D01*
X0Y886D02*
X7Y886D01*
X999Y886D02*
X1006Y886D01*
X0Y885D02*
X7Y885D01*
X999Y885D02*
X1006Y885D01*
X0Y884D02*
X7Y884D01*
X999Y884D02*
X1006Y884D01*
X0Y883D02*
X7Y883D01*
X999Y883D02*
X1006Y883D01*
X0Y882D02*
X7Y882D01*
X999Y882D02*
X1006Y882D01*
X0Y881D02*
X7Y881D01*
X999Y881D02*
X1006Y881D01*
X0Y880D02*
X7Y880D01*
X999Y880D02*
X1006Y880D01*
X0Y879D02*
X7Y879D01*
X999Y879D02*
X1006Y879D01*
X0Y878D02*
X7Y878D01*
X999Y878D02*
X1006Y878D01*
X0Y877D02*
X7Y877D01*
X999Y877D02*
X1006Y877D01*
X0Y876D02*
X7Y876D01*
X999Y876D02*
X1006Y876D01*
X0Y875D02*
X7Y875D01*
X999Y875D02*
X1006Y875D01*
X0Y874D02*
X7Y874D01*
X999Y874D02*
X1006Y874D01*
X0Y873D02*
X7Y873D01*
X999Y873D02*
X1006Y873D01*
X0Y872D02*
X7Y872D01*
X999Y872D02*
X1006Y872D01*
X0Y871D02*
X7Y871D01*
X999Y871D02*
X1006Y871D01*
X0Y870D02*
X7Y870D01*
X999Y870D02*
X1006Y870D01*
X0Y869D02*
X7Y869D01*
X999Y869D02*
X1006Y869D01*
X0Y868D02*
X7Y868D01*
X999Y868D02*
X1006Y868D01*
X0Y867D02*
X7Y867D01*
X999Y867D02*
X1006Y867D01*
X0Y866D02*
X7Y866D01*
X999Y866D02*
X1006Y866D01*
X0Y865D02*
X7Y865D01*
X999Y865D02*
X1006Y865D01*
X0Y864D02*
X7Y864D01*
X999Y864D02*
X1006Y864D01*
X0Y863D02*
X7Y863D01*
X999Y863D02*
X1006Y863D01*
X0Y862D02*
X7Y862D01*
X999Y862D02*
X1006Y862D01*
X0Y861D02*
X7Y861D01*
X999Y861D02*
X1006Y861D01*
X0Y860D02*
X7Y860D01*
X999Y860D02*
X1006Y860D01*
X0Y859D02*
X7Y859D01*
X999Y859D02*
X1006Y859D01*
X0Y858D02*
X7Y858D01*
X999Y858D02*
X1006Y858D01*
X0Y857D02*
X7Y857D01*
X999Y857D02*
X1006Y857D01*
X0Y856D02*
X7Y856D01*
X999Y856D02*
X1006Y856D01*
X0Y855D02*
X7Y855D01*
X999Y855D02*
X1006Y855D01*
X0Y854D02*
X7Y854D01*
X999Y854D02*
X1006Y854D01*
X0Y853D02*
X7Y853D01*
X999Y853D02*
X1006Y853D01*
X0Y852D02*
X7Y852D01*
X999Y852D02*
X1006Y852D01*
X0Y851D02*
X7Y851D01*
X999Y851D02*
X1006Y851D01*
X0Y850D02*
X7Y850D01*
X999Y850D02*
X1006Y850D01*
X0Y849D02*
X7Y849D01*
X999Y849D02*
X1006Y849D01*
X0Y848D02*
X7Y848D01*
X999Y848D02*
X1006Y848D01*
X0Y847D02*
X7Y847D01*
X999Y847D02*
X1006Y847D01*
X0Y846D02*
X7Y846D01*
X999Y846D02*
X1006Y846D01*
X0Y845D02*
X7Y845D01*
X999Y845D02*
X1006Y845D01*
X0Y844D02*
X7Y844D01*
X999Y844D02*
X1006Y844D01*
X0Y843D02*
X7Y843D01*
X999Y843D02*
X1006Y843D01*
X0Y842D02*
X7Y842D01*
X999Y842D02*
X1006Y842D01*
X0Y841D02*
X7Y841D01*
X999Y841D02*
X1006Y841D01*
X0Y840D02*
X7Y840D01*
X999Y840D02*
X1006Y840D01*
X0Y839D02*
X7Y839D01*
X999Y839D02*
X1006Y839D01*
X0Y838D02*
X7Y838D01*
X999Y838D02*
X1006Y838D01*
X0Y837D02*
X7Y837D01*
X999Y837D02*
X1006Y837D01*
X0Y836D02*
X7Y836D01*
X999Y836D02*
X1006Y836D01*
X0Y835D02*
X7Y835D01*
X999Y835D02*
X1006Y835D01*
X0Y834D02*
X7Y834D01*
X999Y834D02*
X1006Y834D01*
X0Y833D02*
X7Y833D01*
X999Y833D02*
X1006Y833D01*
X0Y832D02*
X7Y832D01*
X999Y832D02*
X1006Y832D01*
X0Y831D02*
X7Y831D01*
X999Y831D02*
X1006Y831D01*
X0Y830D02*
X7Y830D01*
X999Y830D02*
X1006Y830D01*
X0Y829D02*
X7Y829D01*
X999Y829D02*
X1006Y829D01*
X0Y828D02*
X7Y828D01*
X999Y828D02*
X1006Y828D01*
X0Y827D02*
X7Y827D01*
X999Y827D02*
X1006Y827D01*
X0Y826D02*
X7Y826D01*
X999Y826D02*
X1006Y826D01*
X0Y825D02*
X7Y825D01*
X999Y825D02*
X1006Y825D01*
X0Y824D02*
X7Y824D01*
X999Y824D02*
X1006Y824D01*
X0Y823D02*
X7Y823D01*
X999Y823D02*
X1006Y823D01*
X0Y822D02*
X7Y822D01*
X999Y822D02*
X1006Y822D01*
X0Y821D02*
X7Y821D01*
X999Y821D02*
X1006Y821D01*
X0Y820D02*
X7Y820D01*
X999Y820D02*
X1006Y820D01*
X0Y819D02*
X7Y819D01*
X999Y819D02*
X1006Y819D01*
X0Y818D02*
X7Y818D01*
X999Y818D02*
X1006Y818D01*
X0Y817D02*
X7Y817D01*
X999Y817D02*
X1006Y817D01*
X0Y816D02*
X7Y816D01*
X999Y816D02*
X1006Y816D01*
X0Y815D02*
X7Y815D01*
X999Y815D02*
X1006Y815D01*
X0Y814D02*
X7Y814D01*
X999Y814D02*
X1006Y814D01*
X0Y813D02*
X7Y813D01*
X999Y813D02*
X1006Y813D01*
X0Y812D02*
X7Y812D01*
X999Y812D02*
X1006Y812D01*
X0Y811D02*
X7Y811D01*
X999Y811D02*
X1006Y811D01*
X0Y810D02*
X7Y810D01*
X999Y810D02*
X1006Y810D01*
X0Y809D02*
X7Y809D01*
X999Y809D02*
X1006Y809D01*
X0Y808D02*
X7Y808D01*
X999Y808D02*
X1006Y808D01*
X0Y807D02*
X7Y807D01*
X999Y807D02*
X1006Y807D01*
X0Y806D02*
X7Y806D01*
X999Y806D02*
X1006Y806D01*
X0Y805D02*
X7Y805D01*
X999Y805D02*
X1006Y805D01*
X0Y804D02*
X7Y804D01*
X999Y804D02*
X1006Y804D01*
X0Y803D02*
X7Y803D01*
X999Y803D02*
X1006Y803D01*
X0Y802D02*
X7Y802D01*
X999Y802D02*
X1006Y802D01*
X0Y801D02*
X7Y801D01*
X999Y801D02*
X1006Y801D01*
X0Y800D02*
X7Y800D01*
X999Y800D02*
X1006Y800D01*
X0Y799D02*
X7Y799D01*
X999Y799D02*
X1006Y799D01*
X0Y798D02*
X7Y798D01*
X999Y798D02*
X1006Y798D01*
X0Y797D02*
X7Y797D01*
X999Y797D02*
X1006Y797D01*
X0Y796D02*
X7Y796D01*
X999Y796D02*
X1006Y796D01*
X0Y795D02*
X7Y795D01*
X999Y795D02*
X1006Y795D01*
X0Y794D02*
X7Y794D01*
X999Y794D02*
X1006Y794D01*
X0Y793D02*
X7Y793D01*
X999Y793D02*
X1006Y793D01*
X0Y792D02*
X7Y792D01*
X999Y792D02*
X1006Y792D01*
X0Y791D02*
X7Y791D01*
X999Y791D02*
X1006Y791D01*
X0Y790D02*
X7Y790D01*
X999Y790D02*
X1006Y790D01*
X0Y789D02*
X7Y789D01*
X999Y789D02*
X1006Y789D01*
X0Y788D02*
X7Y788D01*
X999Y788D02*
X1006Y788D01*
X0Y787D02*
X7Y787D01*
X999Y787D02*
X1006Y787D01*
X0Y786D02*
X7Y786D01*
X999Y786D02*
X1006Y786D01*
X0Y785D02*
X7Y785D01*
X999Y785D02*
X1006Y785D01*
X0Y784D02*
X7Y784D01*
X999Y784D02*
X1006Y784D01*
X0Y783D02*
X7Y783D01*
X999Y783D02*
X1006Y783D01*
X0Y782D02*
X7Y782D01*
X999Y782D02*
X1006Y782D01*
X0Y781D02*
X7Y781D01*
X999Y781D02*
X1006Y781D01*
X0Y780D02*
X7Y780D01*
X999Y780D02*
X1006Y780D01*
X0Y779D02*
X7Y779D01*
X999Y779D02*
X1006Y779D01*
X0Y778D02*
X7Y778D01*
X999Y778D02*
X1006Y778D01*
X0Y777D02*
X7Y777D01*
X999Y777D02*
X1006Y777D01*
X0Y776D02*
X7Y776D01*
X999Y776D02*
X1006Y776D01*
X0Y775D02*
X7Y775D01*
X999Y775D02*
X1006Y775D01*
X0Y774D02*
X7Y774D01*
X999Y774D02*
X1006Y774D01*
X0Y773D02*
X7Y773D01*
X999Y773D02*
X1006Y773D01*
X0Y772D02*
X7Y772D01*
X999Y772D02*
X1006Y772D01*
X0Y771D02*
X7Y771D01*
X999Y771D02*
X1006Y771D01*
X0Y770D02*
X7Y770D01*
X999Y770D02*
X1006Y770D01*
X0Y769D02*
X7Y769D01*
X999Y769D02*
X1006Y769D01*
X0Y768D02*
X7Y768D01*
X999Y768D02*
X1006Y768D01*
X0Y767D02*
X7Y767D01*
X999Y767D02*
X1006Y767D01*
X0Y766D02*
X7Y766D01*
X999Y766D02*
X1006Y766D01*
X0Y765D02*
X7Y765D01*
X999Y765D02*
X1006Y765D01*
X0Y764D02*
X7Y764D01*
X999Y764D02*
X1006Y764D01*
X0Y763D02*
X7Y763D01*
X999Y763D02*
X1006Y763D01*
X0Y762D02*
X7Y762D01*
X999Y762D02*
X1006Y762D01*
X0Y761D02*
X7Y761D01*
X999Y761D02*
X1006Y761D01*
X0Y760D02*
X7Y760D01*
X999Y760D02*
X1006Y760D01*
X0Y759D02*
X7Y759D01*
X999Y759D02*
X1006Y759D01*
X0Y758D02*
X7Y758D01*
X999Y758D02*
X1006Y758D01*
X0Y757D02*
X7Y757D01*
X999Y757D02*
X1006Y757D01*
X0Y756D02*
X7Y756D01*
X999Y756D02*
X1006Y756D01*
X0Y755D02*
X7Y755D01*
X999Y755D02*
X1006Y755D01*
X0Y754D02*
X7Y754D01*
X999Y754D02*
X1006Y754D01*
X0Y753D02*
X7Y753D01*
X999Y753D02*
X1006Y753D01*
X0Y752D02*
X7Y752D01*
X999Y752D02*
X1006Y752D01*
X0Y751D02*
X7Y751D01*
X999Y751D02*
X1006Y751D01*
X0Y750D02*
X7Y750D01*
X999Y750D02*
X1006Y750D01*
X0Y749D02*
X7Y749D01*
X999Y749D02*
X1006Y749D01*
X0Y748D02*
X7Y748D01*
X999Y748D02*
X1006Y748D01*
X0Y747D02*
X7Y747D01*
X999Y747D02*
X1006Y747D01*
X0Y746D02*
X7Y746D01*
X999Y746D02*
X1006Y746D01*
X0Y745D02*
X7Y745D01*
X999Y745D02*
X1006Y745D01*
X0Y744D02*
X7Y744D01*
X999Y744D02*
X1006Y744D01*
X0Y743D02*
X7Y743D01*
X999Y743D02*
X1006Y743D01*
X0Y742D02*
X7Y742D01*
X999Y742D02*
X1006Y742D01*
X0Y741D02*
X7Y741D01*
X999Y741D02*
X1006Y741D01*
X0Y740D02*
X7Y740D01*
X999Y740D02*
X1006Y740D01*
X0Y739D02*
X7Y739D01*
X999Y739D02*
X1006Y739D01*
X0Y738D02*
X7Y738D01*
X999Y738D02*
X1006Y738D01*
X0Y737D02*
X7Y737D01*
X999Y737D02*
X1006Y737D01*
X0Y736D02*
X7Y736D01*
X999Y736D02*
X1006Y736D01*
X0Y735D02*
X7Y735D01*
X999Y735D02*
X1006Y735D01*
X0Y734D02*
X7Y734D01*
X999Y734D02*
X1006Y734D01*
X0Y733D02*
X7Y733D01*
X999Y733D02*
X1006Y733D01*
X0Y732D02*
X7Y732D01*
X999Y732D02*
X1006Y732D01*
X0Y731D02*
X7Y731D01*
X999Y731D02*
X1006Y731D01*
X0Y730D02*
X7Y730D01*
X999Y730D02*
X1006Y730D01*
X0Y729D02*
X7Y729D01*
X999Y729D02*
X1006Y729D01*
X0Y728D02*
X7Y728D01*
X999Y728D02*
X1006Y728D01*
X0Y727D02*
X7Y727D01*
X999Y727D02*
X1006Y727D01*
X0Y726D02*
X7Y726D01*
X999Y726D02*
X1006Y726D01*
X0Y725D02*
X7Y725D01*
X999Y725D02*
X1006Y725D01*
X0Y724D02*
X7Y724D01*
X999Y724D02*
X1006Y724D01*
X0Y723D02*
X7Y723D01*
X999Y723D02*
X1006Y723D01*
X0Y722D02*
X7Y722D01*
X999Y722D02*
X1006Y722D01*
X0Y721D02*
X7Y721D01*
X999Y721D02*
X1006Y721D01*
X0Y720D02*
X7Y720D01*
X999Y720D02*
X1006Y720D01*
X0Y719D02*
X7Y719D01*
X999Y719D02*
X1006Y719D01*
X0Y718D02*
X7Y718D01*
X999Y718D02*
X1006Y718D01*
X0Y717D02*
X7Y717D01*
X999Y717D02*
X1006Y717D01*
X0Y716D02*
X7Y716D01*
X999Y716D02*
X1006Y716D01*
X0Y715D02*
X7Y715D01*
X999Y715D02*
X1006Y715D01*
X0Y714D02*
X7Y714D01*
X999Y714D02*
X1006Y714D01*
X0Y713D02*
X7Y713D01*
X999Y713D02*
X1006Y713D01*
X0Y712D02*
X7Y712D01*
X999Y712D02*
X1006Y712D01*
X0Y711D02*
X7Y711D01*
X999Y711D02*
X1006Y711D01*
X0Y710D02*
X7Y710D01*
X999Y710D02*
X1006Y710D01*
X0Y709D02*
X7Y709D01*
X999Y709D02*
X1006Y709D01*
X0Y708D02*
X7Y708D01*
X999Y708D02*
X1006Y708D01*
X0Y707D02*
X7Y707D01*
X999Y707D02*
X1006Y707D01*
X0Y706D02*
X7Y706D01*
X999Y706D02*
X1006Y706D01*
X0Y705D02*
X7Y705D01*
X999Y705D02*
X1006Y705D01*
X0Y704D02*
X7Y704D01*
X999Y704D02*
X1006Y704D01*
X0Y703D02*
X7Y703D01*
X999Y703D02*
X1006Y703D01*
X0Y702D02*
X7Y702D01*
X999Y702D02*
X1006Y702D01*
X0Y701D02*
X7Y701D01*
X999Y701D02*
X1006Y701D01*
X0Y700D02*
X7Y700D01*
X999Y700D02*
X1006Y700D01*
X0Y699D02*
X7Y699D01*
X999Y699D02*
X1006Y699D01*
X0Y698D02*
X7Y698D01*
X999Y698D02*
X1006Y698D01*
X0Y697D02*
X7Y697D01*
X999Y697D02*
X1006Y697D01*
X0Y696D02*
X7Y696D01*
X999Y696D02*
X1006Y696D01*
X0Y695D02*
X7Y695D01*
X999Y695D02*
X1006Y695D01*
X0Y694D02*
X7Y694D01*
X999Y694D02*
X1006Y694D01*
X0Y693D02*
X7Y693D01*
X999Y693D02*
X1006Y693D01*
X0Y692D02*
X7Y692D01*
X999Y692D02*
X1006Y692D01*
X0Y691D02*
X7Y691D01*
X999Y691D02*
X1006Y691D01*
X0Y690D02*
X7Y690D01*
X999Y690D02*
X1006Y690D01*
X0Y689D02*
X7Y689D01*
X999Y689D02*
X1006Y689D01*
X0Y688D02*
X7Y688D01*
X999Y688D02*
X1006Y688D01*
X0Y687D02*
X7Y687D01*
X999Y687D02*
X1006Y687D01*
X0Y686D02*
X7Y686D01*
X999Y686D02*
X1006Y686D01*
X0Y685D02*
X7Y685D01*
X999Y685D02*
X1006Y685D01*
X0Y684D02*
X7Y684D01*
X999Y684D02*
X1006Y684D01*
X0Y683D02*
X7Y683D01*
X999Y683D02*
X1006Y683D01*
X0Y682D02*
X7Y682D01*
X999Y682D02*
X1006Y682D01*
X0Y681D02*
X7Y681D01*
X999Y681D02*
X1006Y681D01*
X0Y680D02*
X7Y680D01*
X999Y680D02*
X1006Y680D01*
X0Y679D02*
X7Y679D01*
X999Y679D02*
X1006Y679D01*
X0Y678D02*
X7Y678D01*
X999Y678D02*
X1006Y678D01*
X0Y677D02*
X7Y677D01*
X999Y677D02*
X1006Y677D01*
X0Y676D02*
X7Y676D01*
X999Y676D02*
X1006Y676D01*
X0Y675D02*
X7Y675D01*
X999Y675D02*
X1006Y675D01*
X0Y674D02*
X7Y674D01*
X999Y674D02*
X1006Y674D01*
X0Y673D02*
X7Y673D01*
X999Y673D02*
X1006Y673D01*
X0Y672D02*
X7Y672D01*
X999Y672D02*
X1006Y672D01*
X0Y671D02*
X7Y671D01*
X999Y671D02*
X1006Y671D01*
X0Y670D02*
X7Y670D01*
X999Y670D02*
X1006Y670D01*
X0Y669D02*
X7Y669D01*
X999Y669D02*
X1006Y669D01*
X0Y668D02*
X7Y668D01*
X999Y668D02*
X1006Y668D01*
X0Y667D02*
X7Y667D01*
X999Y667D02*
X1006Y667D01*
X0Y666D02*
X7Y666D01*
X999Y666D02*
X1006Y666D01*
X0Y665D02*
X7Y665D01*
X999Y665D02*
X1006Y665D01*
X0Y664D02*
X7Y664D01*
X999Y664D02*
X1006Y664D01*
X0Y663D02*
X7Y663D01*
X999Y663D02*
X1006Y663D01*
X0Y662D02*
X7Y662D01*
X999Y662D02*
X1006Y662D01*
X0Y661D02*
X7Y661D01*
X999Y661D02*
X1006Y661D01*
X0Y660D02*
X7Y660D01*
X999Y660D02*
X1006Y660D01*
X0Y659D02*
X7Y659D01*
X999Y659D02*
X1006Y659D01*
X0Y658D02*
X7Y658D01*
X999Y658D02*
X1006Y658D01*
X0Y657D02*
X7Y657D01*
X999Y657D02*
X1006Y657D01*
X0Y656D02*
X7Y656D01*
X999Y656D02*
X1006Y656D01*
X0Y655D02*
X7Y655D01*
X999Y655D02*
X1006Y655D01*
X0Y654D02*
X7Y654D01*
X999Y654D02*
X1006Y654D01*
X0Y653D02*
X7Y653D01*
X999Y653D02*
X1006Y653D01*
X0Y652D02*
X7Y652D01*
X999Y652D02*
X1006Y652D01*
X0Y651D02*
X7Y651D01*
X999Y651D02*
X1006Y651D01*
X0Y650D02*
X7Y650D01*
X999Y650D02*
X1006Y650D01*
X0Y649D02*
X7Y649D01*
X999Y649D02*
X1006Y649D01*
X0Y648D02*
X7Y648D01*
X999Y648D02*
X1006Y648D01*
X0Y647D02*
X7Y647D01*
X999Y647D02*
X1006Y647D01*
X0Y646D02*
X7Y646D01*
X999Y646D02*
X1006Y646D01*
X0Y645D02*
X7Y645D01*
X999Y645D02*
X1006Y645D01*
X0Y644D02*
X7Y644D01*
X999Y644D02*
X1006Y644D01*
X0Y643D02*
X7Y643D01*
X999Y643D02*
X1006Y643D01*
X0Y642D02*
X7Y642D01*
X999Y642D02*
X1006Y642D01*
X0Y641D02*
X7Y641D01*
X999Y641D02*
X1006Y641D01*
X0Y640D02*
X7Y640D01*
X999Y640D02*
X1006Y640D01*
X0Y639D02*
X7Y639D01*
X999Y639D02*
X1006Y639D01*
X0Y638D02*
X7Y638D01*
X999Y638D02*
X1006Y638D01*
X0Y637D02*
X7Y637D01*
X999Y637D02*
X1006Y637D01*
X0Y636D02*
X7Y636D01*
X999Y636D02*
X1006Y636D01*
X0Y635D02*
X7Y635D01*
X999Y635D02*
X1006Y635D01*
X0Y634D02*
X7Y634D01*
X999Y634D02*
X1006Y634D01*
X0Y633D02*
X7Y633D01*
X999Y633D02*
X1006Y633D01*
X0Y632D02*
X7Y632D01*
X999Y632D02*
X1006Y632D01*
X0Y631D02*
X7Y631D01*
X999Y631D02*
X1006Y631D01*
X0Y630D02*
X7Y630D01*
X999Y630D02*
X1006Y630D01*
X0Y629D02*
X7Y629D01*
X999Y629D02*
X1006Y629D01*
X0Y628D02*
X7Y628D01*
X999Y628D02*
X1006Y628D01*
X0Y627D02*
X7Y627D01*
X999Y627D02*
X1006Y627D01*
X0Y626D02*
X7Y626D01*
X999Y626D02*
X1006Y626D01*
X0Y625D02*
X7Y625D01*
X999Y625D02*
X1006Y625D01*
X0Y624D02*
X7Y624D01*
X999Y624D02*
X1006Y624D01*
X0Y623D02*
X7Y623D01*
X999Y623D02*
X1006Y623D01*
X0Y622D02*
X7Y622D01*
X999Y622D02*
X1006Y622D01*
X0Y621D02*
X7Y621D01*
X999Y621D02*
X1006Y621D01*
X0Y620D02*
X7Y620D01*
X999Y620D02*
X1006Y620D01*
X0Y619D02*
X7Y619D01*
X999Y619D02*
X1006Y619D01*
X0Y618D02*
X7Y618D01*
X999Y618D02*
X1006Y618D01*
X0Y617D02*
X7Y617D01*
X999Y617D02*
X1006Y617D01*
X0Y616D02*
X7Y616D01*
X999Y616D02*
X1006Y616D01*
X0Y615D02*
X7Y615D01*
X999Y615D02*
X1006Y615D01*
X0Y614D02*
X7Y614D01*
X999Y614D02*
X1006Y614D01*
X0Y613D02*
X7Y613D01*
X999Y613D02*
X1006Y613D01*
X0Y612D02*
X7Y612D01*
X999Y612D02*
X1006Y612D01*
X0Y611D02*
X7Y611D01*
X999Y611D02*
X1006Y611D01*
X0Y610D02*
X7Y610D01*
X999Y610D02*
X1006Y610D01*
X0Y609D02*
X7Y609D01*
X999Y609D02*
X1006Y609D01*
X0Y608D02*
X7Y608D01*
X999Y608D02*
X1006Y608D01*
X0Y607D02*
X7Y607D01*
X999Y607D02*
X1006Y607D01*
X0Y606D02*
X7Y606D01*
X999Y606D02*
X1006Y606D01*
X0Y605D02*
X7Y605D01*
X999Y605D02*
X1006Y605D01*
X0Y604D02*
X7Y604D01*
X999Y604D02*
X1006Y604D01*
X0Y603D02*
X7Y603D01*
X999Y603D02*
X1006Y603D01*
X0Y602D02*
X7Y602D01*
X999Y602D02*
X1006Y602D01*
X0Y601D02*
X7Y601D01*
X999Y601D02*
X1006Y601D01*
X0Y600D02*
X7Y600D01*
X999Y600D02*
X1006Y600D01*
X0Y599D02*
X7Y599D01*
X999Y599D02*
X1006Y599D01*
X0Y598D02*
X7Y598D01*
X999Y598D02*
X1006Y598D01*
X0Y597D02*
X7Y597D01*
X999Y597D02*
X1006Y597D01*
X0Y596D02*
X7Y596D01*
X999Y596D02*
X1006Y596D01*
X0Y595D02*
X7Y595D01*
X999Y595D02*
X1006Y595D01*
X0Y594D02*
X7Y594D01*
X999Y594D02*
X1006Y594D01*
X0Y593D02*
X7Y593D01*
X999Y593D02*
X1006Y593D01*
X0Y592D02*
X7Y592D01*
X999Y592D02*
X1006Y592D01*
X0Y591D02*
X7Y591D01*
X999Y591D02*
X1006Y591D01*
X0Y590D02*
X7Y590D01*
X999Y590D02*
X1006Y590D01*
X0Y589D02*
X7Y589D01*
X999Y589D02*
X1006Y589D01*
X0Y588D02*
X7Y588D01*
X999Y588D02*
X1006Y588D01*
X0Y587D02*
X7Y587D01*
X999Y587D02*
X1006Y587D01*
X0Y586D02*
X7Y586D01*
X999Y586D02*
X1006Y586D01*
X0Y585D02*
X7Y585D01*
X999Y585D02*
X1006Y585D01*
X0Y584D02*
X7Y584D01*
X999Y584D02*
X1006Y584D01*
X0Y583D02*
X7Y583D01*
X999Y583D02*
X1006Y583D01*
X0Y582D02*
X7Y582D01*
X999Y582D02*
X1006Y582D01*
X0Y581D02*
X7Y581D01*
X999Y581D02*
X1006Y581D01*
X0Y580D02*
X7Y580D01*
X999Y580D02*
X1006Y580D01*
X0Y579D02*
X7Y579D01*
X999Y579D02*
X1006Y579D01*
X0Y578D02*
X7Y578D01*
X999Y578D02*
X1006Y578D01*
X0Y577D02*
X7Y577D01*
X999Y577D02*
X1006Y577D01*
X0Y576D02*
X7Y576D01*
X999Y576D02*
X1006Y576D01*
X0Y575D02*
X7Y575D01*
X999Y575D02*
X1006Y575D01*
X0Y574D02*
X7Y574D01*
X999Y574D02*
X1006Y574D01*
X0Y573D02*
X7Y573D01*
X999Y573D02*
X1006Y573D01*
X0Y572D02*
X7Y572D01*
X999Y572D02*
X1006Y572D01*
X0Y571D02*
X7Y571D01*
X999Y571D02*
X1006Y571D01*
X0Y570D02*
X7Y570D01*
X999Y570D02*
X1006Y570D01*
X0Y569D02*
X7Y569D01*
X999Y569D02*
X1006Y569D01*
X0Y568D02*
X7Y568D01*
X999Y568D02*
X1006Y568D01*
X0Y567D02*
X7Y567D01*
X999Y567D02*
X1006Y567D01*
X0Y566D02*
X7Y566D01*
X999Y566D02*
X1006Y566D01*
X0Y565D02*
X7Y565D01*
X999Y565D02*
X1006Y565D01*
X0Y564D02*
X7Y564D01*
X999Y564D02*
X1006Y564D01*
X0Y563D02*
X7Y563D01*
X999Y563D02*
X1006Y563D01*
X0Y562D02*
X7Y562D01*
X999Y562D02*
X1006Y562D01*
X0Y561D02*
X7Y561D01*
X999Y561D02*
X1006Y561D01*
X0Y560D02*
X7Y560D01*
X999Y560D02*
X1006Y560D01*
X0Y559D02*
X7Y559D01*
X999Y559D02*
X1006Y559D01*
X0Y558D02*
X7Y558D01*
X999Y558D02*
X1006Y558D01*
X0Y557D02*
X7Y557D01*
X999Y557D02*
X1006Y557D01*
X0Y556D02*
X7Y556D01*
X999Y556D02*
X1006Y556D01*
X0Y555D02*
X7Y555D01*
X999Y555D02*
X1006Y555D01*
X0Y554D02*
X7Y554D01*
X999Y554D02*
X1006Y554D01*
X0Y553D02*
X7Y553D01*
X999Y553D02*
X1006Y553D01*
X0Y552D02*
X7Y552D01*
X999Y552D02*
X1006Y552D01*
X0Y551D02*
X7Y551D01*
X999Y551D02*
X1006Y551D01*
X0Y550D02*
X7Y550D01*
X999Y550D02*
X1006Y550D01*
X0Y549D02*
X7Y549D01*
X999Y549D02*
X1006Y549D01*
X0Y548D02*
X7Y548D01*
X999Y548D02*
X1006Y548D01*
X0Y547D02*
X7Y547D01*
X999Y547D02*
X1006Y547D01*
X0Y546D02*
X7Y546D01*
X999Y546D02*
X1006Y546D01*
X0Y545D02*
X7Y545D01*
X999Y545D02*
X1006Y545D01*
X0Y544D02*
X7Y544D01*
X999Y544D02*
X1006Y544D01*
X0Y543D02*
X7Y543D01*
X999Y543D02*
X1006Y543D01*
X0Y542D02*
X7Y542D01*
X999Y542D02*
X1006Y542D01*
X0Y541D02*
X7Y541D01*
X999Y541D02*
X1006Y541D01*
X0Y540D02*
X7Y540D01*
X999Y540D02*
X1006Y540D01*
X0Y539D02*
X7Y539D01*
X999Y539D02*
X1006Y539D01*
X0Y538D02*
X7Y538D01*
X999Y538D02*
X1006Y538D01*
X0Y537D02*
X7Y537D01*
X999Y537D02*
X1006Y537D01*
X0Y536D02*
X7Y536D01*
X999Y536D02*
X1006Y536D01*
X0Y535D02*
X7Y535D01*
X999Y535D02*
X1006Y535D01*
X0Y534D02*
X7Y534D01*
X999Y534D02*
X1006Y534D01*
X0Y533D02*
X7Y533D01*
X999Y533D02*
X1006Y533D01*
X0Y532D02*
X7Y532D01*
X999Y532D02*
X1006Y532D01*
X0Y531D02*
X7Y531D01*
X999Y531D02*
X1006Y531D01*
X0Y530D02*
X7Y530D01*
X999Y530D02*
X1006Y530D01*
X0Y529D02*
X7Y529D01*
X999Y529D02*
X1006Y529D01*
X0Y528D02*
X7Y528D01*
X999Y528D02*
X1006Y528D01*
X0Y527D02*
X7Y527D01*
X999Y527D02*
X1006Y527D01*
X0Y526D02*
X7Y526D01*
X999Y526D02*
X1006Y526D01*
X0Y525D02*
X7Y525D01*
X999Y525D02*
X1006Y525D01*
X0Y524D02*
X7Y524D01*
X999Y524D02*
X1006Y524D01*
X0Y523D02*
X7Y523D01*
X999Y523D02*
X1006Y523D01*
X0Y522D02*
X7Y522D01*
X999Y522D02*
X1006Y522D01*
X0Y521D02*
X7Y521D01*
X999Y521D02*
X1006Y521D01*
X0Y520D02*
X7Y520D01*
X999Y520D02*
X1006Y520D01*
X0Y519D02*
X7Y519D01*
X999Y519D02*
X1006Y519D01*
X0Y518D02*
X7Y518D01*
X999Y518D02*
X1006Y518D01*
X0Y517D02*
X7Y517D01*
X999Y517D02*
X1006Y517D01*
X0Y516D02*
X7Y516D01*
X999Y516D02*
X1006Y516D01*
X0Y515D02*
X7Y515D01*
X999Y515D02*
X1006Y515D01*
X0Y514D02*
X7Y514D01*
X999Y514D02*
X1006Y514D01*
X0Y513D02*
X7Y513D01*
X999Y513D02*
X1006Y513D01*
X0Y512D02*
X7Y512D01*
X999Y512D02*
X1006Y512D01*
X0Y511D02*
X7Y511D01*
X999Y511D02*
X1006Y511D01*
X0Y510D02*
X7Y510D01*
X999Y510D02*
X1006Y510D01*
X0Y509D02*
X7Y509D01*
X999Y509D02*
X1006Y509D01*
X0Y508D02*
X7Y508D01*
X999Y508D02*
X1006Y508D01*
X0Y507D02*
X7Y507D01*
X999Y507D02*
X1006Y507D01*
X0Y506D02*
X7Y506D01*
X999Y506D02*
X1006Y506D01*
X0Y505D02*
X7Y505D01*
X999Y505D02*
X1006Y505D01*
X0Y504D02*
X7Y504D01*
X999Y504D02*
X1006Y504D01*
X0Y503D02*
X7Y503D01*
X999Y503D02*
X1006Y503D01*
X0Y502D02*
X7Y502D01*
X999Y502D02*
X1006Y502D01*
X0Y501D02*
X7Y501D01*
X999Y501D02*
X1006Y501D01*
X0Y500D02*
X7Y500D01*
X999Y500D02*
X1006Y500D01*
X0Y499D02*
X7Y499D01*
X999Y499D02*
X1006Y499D01*
X0Y498D02*
X7Y498D01*
X999Y498D02*
X1006Y498D01*
X0Y497D02*
X7Y497D01*
X999Y497D02*
X1006Y497D01*
X0Y496D02*
X7Y496D01*
X999Y496D02*
X1006Y496D01*
X0Y495D02*
X7Y495D01*
X999Y495D02*
X1006Y495D01*
X0Y494D02*
X7Y494D01*
X999Y494D02*
X1006Y494D01*
X0Y493D02*
X7Y493D01*
X999Y493D02*
X1006Y493D01*
X0Y492D02*
X7Y492D01*
X999Y492D02*
X1006Y492D01*
X0Y491D02*
X7Y491D01*
X999Y491D02*
X1006Y491D01*
X0Y490D02*
X7Y490D01*
X999Y490D02*
X1006Y490D01*
X0Y489D02*
X7Y489D01*
X999Y489D02*
X1006Y489D01*
X0Y488D02*
X7Y488D01*
X999Y488D02*
X1006Y488D01*
X0Y487D02*
X7Y487D01*
X999Y487D02*
X1006Y487D01*
X0Y486D02*
X7Y486D01*
X999Y486D02*
X1006Y486D01*
X0Y485D02*
X7Y485D01*
X999Y485D02*
X1006Y485D01*
X0Y484D02*
X7Y484D01*
X999Y484D02*
X1006Y484D01*
X0Y483D02*
X7Y483D01*
X999Y483D02*
X1006Y483D01*
X0Y482D02*
X7Y482D01*
X999Y482D02*
X1006Y482D01*
X0Y481D02*
X7Y481D01*
X999Y481D02*
X1006Y481D01*
X0Y480D02*
X7Y480D01*
X999Y480D02*
X1006Y480D01*
X0Y479D02*
X7Y479D01*
X999Y479D02*
X1006Y479D01*
X0Y478D02*
X7Y478D01*
X999Y478D02*
X1006Y478D01*
X0Y477D02*
X7Y477D01*
X999Y477D02*
X1006Y477D01*
X0Y476D02*
X7Y476D01*
X999Y476D02*
X1006Y476D01*
X0Y475D02*
X7Y475D01*
X999Y475D02*
X1006Y475D01*
X0Y474D02*
X7Y474D01*
X999Y474D02*
X1006Y474D01*
X0Y473D02*
X7Y473D01*
X999Y473D02*
X1006Y473D01*
X0Y472D02*
X7Y472D01*
X999Y472D02*
X1006Y472D01*
X0Y471D02*
X7Y471D01*
X999Y471D02*
X1006Y471D01*
X0Y470D02*
X7Y470D01*
X999Y470D02*
X1006Y470D01*
X0Y469D02*
X7Y469D01*
X999Y469D02*
X1006Y469D01*
X0Y468D02*
X7Y468D01*
X999Y468D02*
X1006Y468D01*
X0Y467D02*
X7Y467D01*
X999Y467D02*
X1006Y467D01*
X0Y466D02*
X7Y466D01*
X999Y466D02*
X1006Y466D01*
X0Y465D02*
X7Y465D01*
X999Y465D02*
X1006Y465D01*
X0Y464D02*
X7Y464D01*
X999Y464D02*
X1006Y464D01*
X0Y463D02*
X7Y463D01*
X999Y463D02*
X1006Y463D01*
X0Y462D02*
X7Y462D01*
X999Y462D02*
X1006Y462D01*
X0Y461D02*
X7Y461D01*
X999Y461D02*
X1006Y461D01*
X0Y460D02*
X7Y460D01*
X999Y460D02*
X1006Y460D01*
X0Y459D02*
X7Y459D01*
X999Y459D02*
X1006Y459D01*
X0Y458D02*
X7Y458D01*
X999Y458D02*
X1006Y458D01*
X0Y457D02*
X7Y457D01*
X999Y457D02*
X1006Y457D01*
X0Y456D02*
X7Y456D01*
X999Y456D02*
X1006Y456D01*
X0Y455D02*
X7Y455D01*
X999Y455D02*
X1006Y455D01*
X0Y454D02*
X7Y454D01*
X999Y454D02*
X1006Y454D01*
X0Y453D02*
X7Y453D01*
X999Y453D02*
X1006Y453D01*
X0Y452D02*
X7Y452D01*
X999Y452D02*
X1006Y452D01*
X0Y451D02*
X7Y451D01*
X999Y451D02*
X1006Y451D01*
X0Y450D02*
X7Y450D01*
X999Y450D02*
X1006Y450D01*
X0Y449D02*
X7Y449D01*
X999Y449D02*
X1006Y449D01*
X0Y448D02*
X7Y448D01*
X999Y448D02*
X1006Y448D01*
X0Y447D02*
X7Y447D01*
X999Y447D02*
X1006Y447D01*
X0Y446D02*
X7Y446D01*
X999Y446D02*
X1006Y446D01*
X0Y445D02*
X7Y445D01*
X999Y445D02*
X1006Y445D01*
X0Y444D02*
X7Y444D01*
X999Y444D02*
X1006Y444D01*
X0Y443D02*
X7Y443D01*
X999Y443D02*
X1006Y443D01*
X0Y442D02*
X7Y442D01*
X999Y442D02*
X1006Y442D01*
X0Y441D02*
X7Y441D01*
X999Y441D02*
X1006Y441D01*
X0Y440D02*
X7Y440D01*
X999Y440D02*
X1006Y440D01*
X0Y439D02*
X7Y439D01*
X999Y439D02*
X1006Y439D01*
X0Y438D02*
X7Y438D01*
X999Y438D02*
X1006Y438D01*
X0Y437D02*
X7Y437D01*
X999Y437D02*
X1006Y437D01*
X0Y436D02*
X7Y436D01*
X999Y436D02*
X1006Y436D01*
X0Y435D02*
X7Y435D01*
X999Y435D02*
X1006Y435D01*
X0Y434D02*
X7Y434D01*
X999Y434D02*
X1006Y434D01*
X0Y433D02*
X7Y433D01*
X999Y433D02*
X1006Y433D01*
X0Y432D02*
X7Y432D01*
X999Y432D02*
X1006Y432D01*
X0Y431D02*
X7Y431D01*
X999Y431D02*
X1006Y431D01*
X0Y430D02*
X7Y430D01*
X999Y430D02*
X1006Y430D01*
X0Y429D02*
X7Y429D01*
X999Y429D02*
X1006Y429D01*
X0Y428D02*
X7Y428D01*
X999Y428D02*
X1006Y428D01*
X0Y427D02*
X7Y427D01*
X999Y427D02*
X1006Y427D01*
X0Y426D02*
X7Y426D01*
X999Y426D02*
X1006Y426D01*
X0Y425D02*
X7Y425D01*
X999Y425D02*
X1006Y425D01*
X0Y424D02*
X7Y424D01*
X999Y424D02*
X1006Y424D01*
X0Y423D02*
X7Y423D01*
X999Y423D02*
X1006Y423D01*
X0Y422D02*
X7Y422D01*
X999Y422D02*
X1006Y422D01*
X0Y421D02*
X7Y421D01*
X999Y421D02*
X1006Y421D01*
X0Y420D02*
X7Y420D01*
X999Y420D02*
X1006Y420D01*
X0Y419D02*
X7Y419D01*
X999Y419D02*
X1006Y419D01*
X0Y418D02*
X7Y418D01*
X999Y418D02*
X1006Y418D01*
X0Y417D02*
X7Y417D01*
X999Y417D02*
X1006Y417D01*
X0Y416D02*
X7Y416D01*
X999Y416D02*
X1006Y416D01*
X0Y415D02*
X7Y415D01*
X999Y415D02*
X1006Y415D01*
X0Y414D02*
X7Y414D01*
X999Y414D02*
X1006Y414D01*
X0Y413D02*
X7Y413D01*
X999Y413D02*
X1006Y413D01*
X0Y412D02*
X7Y412D01*
X999Y412D02*
X1006Y412D01*
X0Y411D02*
X7Y411D01*
X999Y411D02*
X1006Y411D01*
X0Y410D02*
X7Y410D01*
X999Y410D02*
X1006Y410D01*
X0Y409D02*
X7Y409D01*
X999Y409D02*
X1006Y409D01*
X0Y408D02*
X7Y408D01*
X999Y408D02*
X1006Y408D01*
X0Y407D02*
X7Y407D01*
X999Y407D02*
X1006Y407D01*
X0Y406D02*
X7Y406D01*
X999Y406D02*
X1006Y406D01*
X0Y405D02*
X7Y405D01*
X999Y405D02*
X1006Y405D01*
X0Y404D02*
X7Y404D01*
X999Y404D02*
X1006Y404D01*
X0Y403D02*
X7Y403D01*
X999Y403D02*
X1006Y403D01*
X0Y402D02*
X7Y402D01*
X999Y402D02*
X1006Y402D01*
X0Y401D02*
X7Y401D01*
X999Y401D02*
X1006Y401D01*
X0Y400D02*
X7Y400D01*
X999Y400D02*
X1006Y400D01*
X0Y399D02*
X7Y399D01*
X999Y399D02*
X1006Y399D01*
X0Y398D02*
X7Y398D01*
X999Y398D02*
X1006Y398D01*
X0Y397D02*
X7Y397D01*
X999Y397D02*
X1006Y397D01*
X0Y396D02*
X7Y396D01*
X999Y396D02*
X1006Y396D01*
X0Y395D02*
X7Y395D01*
X999Y395D02*
X1006Y395D01*
X0Y394D02*
X7Y394D01*
X999Y394D02*
X1006Y394D01*
X0Y393D02*
X7Y393D01*
X999Y393D02*
X1006Y393D01*
X0Y392D02*
X7Y392D01*
X999Y392D02*
X1006Y392D01*
X0Y391D02*
X7Y391D01*
X999Y391D02*
X1006Y391D01*
X0Y390D02*
X7Y390D01*
X999Y390D02*
X1006Y390D01*
X0Y389D02*
X7Y389D01*
X999Y389D02*
X1006Y389D01*
X0Y388D02*
X7Y388D01*
X999Y388D02*
X1006Y388D01*
X0Y387D02*
X7Y387D01*
X999Y387D02*
X1006Y387D01*
X0Y386D02*
X7Y386D01*
X999Y386D02*
X1006Y386D01*
X0Y385D02*
X7Y385D01*
X999Y385D02*
X1006Y385D01*
X0Y384D02*
X7Y384D01*
X999Y384D02*
X1006Y384D01*
X0Y383D02*
X7Y383D01*
X999Y383D02*
X1006Y383D01*
X0Y382D02*
X7Y382D01*
X999Y382D02*
X1006Y382D01*
X0Y381D02*
X7Y381D01*
X999Y381D02*
X1006Y381D01*
X0Y380D02*
X7Y380D01*
X999Y380D02*
X1006Y380D01*
X0Y379D02*
X7Y379D01*
X999Y379D02*
X1006Y379D01*
X0Y378D02*
X7Y378D01*
X999Y378D02*
X1006Y378D01*
X0Y377D02*
X7Y377D01*
X999Y377D02*
X1006Y377D01*
X0Y376D02*
X7Y376D01*
X999Y376D02*
X1006Y376D01*
X0Y375D02*
X7Y375D01*
X999Y375D02*
X1006Y375D01*
X0Y374D02*
X7Y374D01*
X999Y374D02*
X1006Y374D01*
X0Y373D02*
X7Y373D01*
X999Y373D02*
X1006Y373D01*
X0Y372D02*
X7Y372D01*
X999Y372D02*
X1006Y372D01*
X0Y371D02*
X7Y371D01*
X999Y371D02*
X1006Y371D01*
X0Y370D02*
X7Y370D01*
X999Y370D02*
X1006Y370D01*
X0Y369D02*
X7Y369D01*
X999Y369D02*
X1006Y369D01*
X0Y368D02*
X7Y368D01*
X999Y368D02*
X1006Y368D01*
X0Y367D02*
X7Y367D01*
X999Y367D02*
X1006Y367D01*
X0Y366D02*
X7Y366D01*
X999Y366D02*
X1006Y366D01*
X0Y365D02*
X7Y365D01*
X999Y365D02*
X1006Y365D01*
X0Y364D02*
X7Y364D01*
X999Y364D02*
X1006Y364D01*
X0Y363D02*
X7Y363D01*
X999Y363D02*
X1006Y363D01*
X0Y362D02*
X7Y362D01*
X999Y362D02*
X1006Y362D01*
X0Y361D02*
X7Y361D01*
X999Y361D02*
X1006Y361D01*
X0Y360D02*
X7Y360D01*
X999Y360D02*
X1006Y360D01*
X0Y359D02*
X7Y359D01*
X999Y359D02*
X1006Y359D01*
X0Y358D02*
X7Y358D01*
X999Y358D02*
X1006Y358D01*
X0Y357D02*
X7Y357D01*
X999Y357D02*
X1006Y357D01*
X0Y356D02*
X7Y356D01*
X999Y356D02*
X1006Y356D01*
X0Y355D02*
X7Y355D01*
X999Y355D02*
X1006Y355D01*
X0Y354D02*
X7Y354D01*
X999Y354D02*
X1006Y354D01*
X0Y353D02*
X7Y353D01*
X999Y353D02*
X1006Y353D01*
X0Y352D02*
X7Y352D01*
X999Y352D02*
X1006Y352D01*
X0Y351D02*
X7Y351D01*
X999Y351D02*
X1006Y351D01*
X0Y350D02*
X7Y350D01*
X999Y350D02*
X1006Y350D01*
X0Y349D02*
X7Y349D01*
X999Y349D02*
X1006Y349D01*
X0Y348D02*
X7Y348D01*
X999Y348D02*
X1006Y348D01*
X0Y347D02*
X7Y347D01*
X999Y347D02*
X1006Y347D01*
X0Y346D02*
X7Y346D01*
X999Y346D02*
X1006Y346D01*
X0Y345D02*
X7Y345D01*
X999Y345D02*
X1006Y345D01*
X0Y344D02*
X7Y344D01*
X999Y344D02*
X1006Y344D01*
X0Y343D02*
X7Y343D01*
X999Y343D02*
X1006Y343D01*
X0Y342D02*
X7Y342D01*
X999Y342D02*
X1006Y342D01*
X0Y341D02*
X7Y341D01*
X999Y341D02*
X1006Y341D01*
X0Y340D02*
X7Y340D01*
X999Y340D02*
X1006Y340D01*
X0Y339D02*
X7Y339D01*
X999Y339D02*
X1006Y339D01*
X0Y338D02*
X7Y338D01*
X999Y338D02*
X1006Y338D01*
X0Y337D02*
X7Y337D01*
X999Y337D02*
X1006Y337D01*
X0Y336D02*
X7Y336D01*
X999Y336D02*
X1006Y336D01*
X0Y335D02*
X7Y335D01*
X999Y335D02*
X1006Y335D01*
X0Y334D02*
X7Y334D01*
X999Y334D02*
X1006Y334D01*
X0Y333D02*
X7Y333D01*
X999Y333D02*
X1006Y333D01*
X0Y332D02*
X7Y332D01*
X999Y332D02*
X1006Y332D01*
X0Y331D02*
X7Y331D01*
X999Y331D02*
X1006Y331D01*
X0Y330D02*
X7Y330D01*
X999Y330D02*
X1006Y330D01*
X0Y329D02*
X7Y329D01*
X999Y329D02*
X1006Y329D01*
X0Y328D02*
X7Y328D01*
X999Y328D02*
X1006Y328D01*
X0Y327D02*
X7Y327D01*
X999Y327D02*
X1006Y327D01*
X0Y326D02*
X7Y326D01*
X999Y326D02*
X1006Y326D01*
X0Y325D02*
X7Y325D01*
X999Y325D02*
X1006Y325D01*
X0Y324D02*
X7Y324D01*
X999Y324D02*
X1006Y324D01*
X0Y323D02*
X7Y323D01*
X999Y323D02*
X1006Y323D01*
X0Y322D02*
X7Y322D01*
X999Y322D02*
X1006Y322D01*
X0Y321D02*
X7Y321D01*
X999Y321D02*
X1006Y321D01*
X0Y320D02*
X7Y320D01*
X999Y320D02*
X1006Y320D01*
X0Y319D02*
X7Y319D01*
X999Y319D02*
X1006Y319D01*
X0Y318D02*
X7Y318D01*
X999Y318D02*
X1006Y318D01*
X0Y317D02*
X7Y317D01*
X999Y317D02*
X1006Y317D01*
X0Y316D02*
X7Y316D01*
X999Y316D02*
X1006Y316D01*
X0Y315D02*
X7Y315D01*
X999Y315D02*
X1006Y315D01*
X0Y314D02*
X7Y314D01*
X999Y314D02*
X1006Y314D01*
X0Y313D02*
X7Y313D01*
X999Y313D02*
X1006Y313D01*
X0Y312D02*
X7Y312D01*
X999Y312D02*
X1006Y312D01*
X0Y311D02*
X7Y311D01*
X999Y311D02*
X1006Y311D01*
X0Y310D02*
X7Y310D01*
X999Y310D02*
X1006Y310D01*
X0Y309D02*
X7Y309D01*
X999Y309D02*
X1006Y309D01*
X0Y308D02*
X7Y308D01*
X999Y308D02*
X1006Y308D01*
X0Y307D02*
X7Y307D01*
X999Y307D02*
X1006Y307D01*
X0Y306D02*
X7Y306D01*
X999Y306D02*
X1006Y306D01*
X0Y305D02*
X7Y305D01*
X999Y305D02*
X1006Y305D01*
X0Y304D02*
X7Y304D01*
X999Y304D02*
X1006Y304D01*
X0Y303D02*
X7Y303D01*
X999Y303D02*
X1006Y303D01*
X0Y302D02*
X7Y302D01*
X999Y302D02*
X1006Y302D01*
X0Y301D02*
X7Y301D01*
X999Y301D02*
X1006Y301D01*
X0Y300D02*
X7Y300D01*
X999Y300D02*
X1006Y300D01*
X0Y299D02*
X7Y299D01*
X999Y299D02*
X1006Y299D01*
X0Y298D02*
X7Y298D01*
X999Y298D02*
X1006Y298D01*
X0Y297D02*
X7Y297D01*
X999Y297D02*
X1006Y297D01*
X0Y296D02*
X7Y296D01*
X999Y296D02*
X1006Y296D01*
X0Y295D02*
X7Y295D01*
X999Y295D02*
X1006Y295D01*
X0Y294D02*
X7Y294D01*
X999Y294D02*
X1006Y294D01*
X0Y293D02*
X7Y293D01*
X999Y293D02*
X1006Y293D01*
X0Y292D02*
X7Y292D01*
X999Y292D02*
X1006Y292D01*
X0Y291D02*
X7Y291D01*
X999Y291D02*
X1006Y291D01*
X0Y290D02*
X7Y290D01*
X999Y290D02*
X1006Y290D01*
X0Y289D02*
X7Y289D01*
X999Y289D02*
X1006Y289D01*
X0Y288D02*
X7Y288D01*
X999Y288D02*
X1006Y288D01*
X0Y287D02*
X7Y287D01*
X999Y287D02*
X1006Y287D01*
X0Y286D02*
X7Y286D01*
X999Y286D02*
X1006Y286D01*
X0Y285D02*
X7Y285D01*
X999Y285D02*
X1006Y285D01*
X0Y284D02*
X7Y284D01*
X999Y284D02*
X1006Y284D01*
X0Y283D02*
X7Y283D01*
X999Y283D02*
X1006Y283D01*
X0Y282D02*
X7Y282D01*
X999Y282D02*
X1006Y282D01*
X0Y281D02*
X7Y281D01*
X999Y281D02*
X1006Y281D01*
X0Y280D02*
X7Y280D01*
X999Y280D02*
X1006Y280D01*
X0Y279D02*
X7Y279D01*
X999Y279D02*
X1006Y279D01*
X0Y278D02*
X7Y278D01*
X999Y278D02*
X1006Y278D01*
X0Y277D02*
X7Y277D01*
X999Y277D02*
X1006Y277D01*
X0Y276D02*
X7Y276D01*
X999Y276D02*
X1006Y276D01*
X0Y275D02*
X7Y275D01*
X999Y275D02*
X1006Y275D01*
X0Y274D02*
X7Y274D01*
X999Y274D02*
X1006Y274D01*
X0Y273D02*
X7Y273D01*
X999Y273D02*
X1006Y273D01*
X0Y272D02*
X7Y272D01*
X999Y272D02*
X1006Y272D01*
X0Y271D02*
X7Y271D01*
X999Y271D02*
X1006Y271D01*
X0Y270D02*
X7Y270D01*
X999Y270D02*
X1006Y270D01*
X0Y269D02*
X7Y269D01*
X999Y269D02*
X1006Y269D01*
X0Y268D02*
X7Y268D01*
X999Y268D02*
X1006Y268D01*
X0Y267D02*
X7Y267D01*
X999Y267D02*
X1006Y267D01*
X0Y266D02*
X7Y266D01*
X999Y266D02*
X1006Y266D01*
X0Y265D02*
X7Y265D01*
X999Y265D02*
X1006Y265D01*
X0Y264D02*
X7Y264D01*
X999Y264D02*
X1006Y264D01*
X0Y263D02*
X7Y263D01*
X999Y263D02*
X1006Y263D01*
X0Y262D02*
X7Y262D01*
X999Y262D02*
X1006Y262D01*
X0Y261D02*
X7Y261D01*
X999Y261D02*
X1006Y261D01*
X0Y260D02*
X7Y260D01*
X999Y260D02*
X1006Y260D01*
X0Y259D02*
X7Y259D01*
X999Y259D02*
X1006Y259D01*
X0Y258D02*
X7Y258D01*
X999Y258D02*
X1006Y258D01*
X0Y257D02*
X7Y257D01*
X999Y257D02*
X1006Y257D01*
X0Y256D02*
X7Y256D01*
X999Y256D02*
X1006Y256D01*
X0Y255D02*
X7Y255D01*
X999Y255D02*
X1006Y255D01*
X0Y254D02*
X7Y254D01*
X999Y254D02*
X1006Y254D01*
X0Y253D02*
X7Y253D01*
X999Y253D02*
X1006Y253D01*
X0Y252D02*
X7Y252D01*
X999Y252D02*
X1006Y252D01*
X0Y251D02*
X7Y251D01*
X999Y251D02*
X1006Y251D01*
X0Y250D02*
X7Y250D01*
X999Y250D02*
X1006Y250D01*
X0Y249D02*
X7Y249D01*
X999Y249D02*
X1006Y249D01*
X0Y248D02*
X7Y248D01*
X999Y248D02*
X1006Y248D01*
X0Y247D02*
X7Y247D01*
X999Y247D02*
X1006Y247D01*
X0Y246D02*
X7Y246D01*
X999Y246D02*
X1006Y246D01*
X0Y245D02*
X7Y245D01*
X999Y245D02*
X1006Y245D01*
X0Y244D02*
X7Y244D01*
X999Y244D02*
X1006Y244D01*
X0Y243D02*
X7Y243D01*
X999Y243D02*
X1006Y243D01*
X0Y242D02*
X7Y242D01*
X999Y242D02*
X1006Y242D01*
X0Y241D02*
X7Y241D01*
X999Y241D02*
X1006Y241D01*
X0Y240D02*
X7Y240D01*
X999Y240D02*
X1006Y240D01*
X0Y239D02*
X7Y239D01*
X999Y239D02*
X1006Y239D01*
X0Y238D02*
X7Y238D01*
X999Y238D02*
X1006Y238D01*
X0Y237D02*
X7Y237D01*
X999Y237D02*
X1006Y237D01*
X0Y236D02*
X7Y236D01*
X999Y236D02*
X1006Y236D01*
X0Y235D02*
X7Y235D01*
X999Y235D02*
X1006Y235D01*
X0Y234D02*
X7Y234D01*
X999Y234D02*
X1006Y234D01*
X0Y233D02*
X7Y233D01*
X999Y233D02*
X1006Y233D01*
X0Y232D02*
X7Y232D01*
X999Y232D02*
X1006Y232D01*
X0Y231D02*
X7Y231D01*
X999Y231D02*
X1006Y231D01*
X0Y230D02*
X7Y230D01*
X999Y230D02*
X1006Y230D01*
X0Y229D02*
X7Y229D01*
X999Y229D02*
X1006Y229D01*
X0Y228D02*
X7Y228D01*
X999Y228D02*
X1006Y228D01*
X0Y227D02*
X7Y227D01*
X999Y227D02*
X1006Y227D01*
X0Y226D02*
X7Y226D01*
X999Y226D02*
X1006Y226D01*
X0Y225D02*
X7Y225D01*
X999Y225D02*
X1006Y225D01*
X0Y224D02*
X7Y224D01*
X999Y224D02*
X1006Y224D01*
X0Y223D02*
X7Y223D01*
X999Y223D02*
X1006Y223D01*
X0Y222D02*
X7Y222D01*
X999Y222D02*
X1006Y222D01*
X0Y221D02*
X7Y221D01*
X999Y221D02*
X1006Y221D01*
X0Y220D02*
X7Y220D01*
X999Y220D02*
X1006Y220D01*
X0Y219D02*
X7Y219D01*
X999Y219D02*
X1006Y219D01*
X0Y218D02*
X7Y218D01*
X999Y218D02*
X1006Y218D01*
X0Y217D02*
X7Y217D01*
X999Y217D02*
X1006Y217D01*
X0Y216D02*
X7Y216D01*
X999Y216D02*
X1006Y216D01*
X0Y215D02*
X7Y215D01*
X999Y215D02*
X1006Y215D01*
X0Y214D02*
X7Y214D01*
X999Y214D02*
X1006Y214D01*
X0Y213D02*
X7Y213D01*
X999Y213D02*
X1006Y213D01*
X0Y212D02*
X7Y212D01*
X999Y212D02*
X1006Y212D01*
X0Y211D02*
X7Y211D01*
X999Y211D02*
X1006Y211D01*
X0Y210D02*
X7Y210D01*
X999Y210D02*
X1006Y210D01*
X0Y209D02*
X7Y209D01*
X999Y209D02*
X1006Y209D01*
X0Y208D02*
X7Y208D01*
X999Y208D02*
X1006Y208D01*
X0Y207D02*
X7Y207D01*
X999Y207D02*
X1006Y207D01*
X0Y206D02*
X7Y206D01*
X999Y206D02*
X1006Y206D01*
X0Y205D02*
X7Y205D01*
X999Y205D02*
X1006Y205D01*
X0Y204D02*
X7Y204D01*
X999Y204D02*
X1006Y204D01*
X0Y203D02*
X7Y203D01*
X999Y203D02*
X1006Y203D01*
X0Y202D02*
X7Y202D01*
X999Y202D02*
X1006Y202D01*
X0Y201D02*
X7Y201D01*
X999Y201D02*
X1006Y201D01*
X0Y200D02*
X7Y200D01*
X999Y200D02*
X1006Y200D01*
X0Y199D02*
X7Y199D01*
X999Y199D02*
X1006Y199D01*
X0Y198D02*
X7Y198D01*
X999Y198D02*
X1006Y198D01*
X0Y197D02*
X7Y197D01*
X999Y197D02*
X1006Y197D01*
X0Y196D02*
X7Y196D01*
X999Y196D02*
X1006Y196D01*
X0Y195D02*
X7Y195D01*
X999Y195D02*
X1006Y195D01*
X0Y194D02*
X7Y194D01*
X999Y194D02*
X1006Y194D01*
X0Y193D02*
X7Y193D01*
X999Y193D02*
X1006Y193D01*
X0Y192D02*
X7Y192D01*
X999Y192D02*
X1006Y192D01*
X0Y191D02*
X7Y191D01*
X999Y191D02*
X1006Y191D01*
X0Y190D02*
X7Y190D01*
X999Y190D02*
X1006Y190D01*
X0Y189D02*
X7Y189D01*
X999Y189D02*
X1006Y189D01*
X0Y188D02*
X7Y188D01*
X999Y188D02*
X1006Y188D01*
X0Y187D02*
X7Y187D01*
X999Y187D02*
X1006Y187D01*
X0Y186D02*
X7Y186D01*
X999Y186D02*
X1006Y186D01*
X0Y185D02*
X7Y185D01*
X999Y185D02*
X1006Y185D01*
X0Y184D02*
X7Y184D01*
X999Y184D02*
X1006Y184D01*
X0Y183D02*
X7Y183D01*
X999Y183D02*
X1006Y183D01*
X0Y182D02*
X7Y182D01*
X999Y182D02*
X1006Y182D01*
X0Y181D02*
X7Y181D01*
X999Y181D02*
X1006Y181D01*
X0Y180D02*
X7Y180D01*
X999Y180D02*
X1006Y180D01*
X0Y179D02*
X7Y179D01*
X999Y179D02*
X1006Y179D01*
X0Y178D02*
X7Y178D01*
X999Y178D02*
X1006Y178D01*
X0Y177D02*
X7Y177D01*
X999Y177D02*
X1006Y177D01*
X0Y176D02*
X7Y176D01*
X999Y176D02*
X1006Y176D01*
X0Y175D02*
X7Y175D01*
X999Y175D02*
X1006Y175D01*
X0Y174D02*
X7Y174D01*
X999Y174D02*
X1006Y174D01*
X0Y173D02*
X7Y173D01*
X999Y173D02*
X1006Y173D01*
X0Y172D02*
X7Y172D01*
X999Y172D02*
X1006Y172D01*
X0Y171D02*
X7Y171D01*
X999Y171D02*
X1006Y171D01*
X0Y170D02*
X7Y170D01*
X999Y170D02*
X1006Y170D01*
X0Y169D02*
X7Y169D01*
X999Y169D02*
X1006Y169D01*
X0Y168D02*
X7Y168D01*
X999Y168D02*
X1006Y168D01*
X0Y167D02*
X7Y167D01*
X999Y167D02*
X1006Y167D01*
X0Y166D02*
X7Y166D01*
X999Y166D02*
X1006Y166D01*
X0Y165D02*
X7Y165D01*
X999Y165D02*
X1006Y165D01*
X0Y164D02*
X7Y164D01*
X999Y164D02*
X1006Y164D01*
X0Y163D02*
X7Y163D01*
X999Y163D02*
X1006Y163D01*
X0Y162D02*
X7Y162D01*
X999Y162D02*
X1006Y162D01*
X0Y161D02*
X7Y161D01*
X999Y161D02*
X1006Y161D01*
X0Y160D02*
X7Y160D01*
X999Y160D02*
X1006Y160D01*
X0Y159D02*
X7Y159D01*
X999Y159D02*
X1006Y159D01*
X0Y158D02*
X7Y158D01*
X999Y158D02*
X1006Y158D01*
X0Y157D02*
X7Y157D01*
X999Y157D02*
X1006Y157D01*
X0Y156D02*
X7Y156D01*
X999Y156D02*
X1006Y156D01*
X0Y155D02*
X7Y155D01*
X999Y155D02*
X1006Y155D01*
X0Y154D02*
X7Y154D01*
X999Y154D02*
X1006Y154D01*
X0Y153D02*
X7Y153D01*
X999Y153D02*
X1006Y153D01*
X0Y152D02*
X7Y152D01*
X999Y152D02*
X1006Y152D01*
X0Y151D02*
X7Y151D01*
X999Y151D02*
X1006Y151D01*
X0Y150D02*
X7Y150D01*
X999Y150D02*
X1006Y150D01*
X0Y149D02*
X7Y149D01*
X999Y149D02*
X1006Y149D01*
X0Y148D02*
X7Y148D01*
X999Y148D02*
X1006Y148D01*
X0Y147D02*
X7Y147D01*
X999Y147D02*
X1006Y147D01*
X0Y146D02*
X7Y146D01*
X999Y146D02*
X1006Y146D01*
X0Y145D02*
X7Y145D01*
X999Y145D02*
X1006Y145D01*
X0Y144D02*
X7Y144D01*
X999Y144D02*
X1006Y144D01*
X0Y143D02*
X7Y143D01*
X999Y143D02*
X1006Y143D01*
X0Y142D02*
X7Y142D01*
X999Y142D02*
X1006Y142D01*
X0Y141D02*
X7Y141D01*
X999Y141D02*
X1006Y141D01*
X0Y140D02*
X7Y140D01*
X999Y140D02*
X1006Y140D01*
X0Y139D02*
X7Y139D01*
X999Y139D02*
X1006Y139D01*
X0Y138D02*
X7Y138D01*
X999Y138D02*
X1006Y138D01*
X0Y137D02*
X7Y137D01*
X999Y137D02*
X1006Y137D01*
X0Y136D02*
X7Y136D01*
X999Y136D02*
X1006Y136D01*
X0Y135D02*
X7Y135D01*
X999Y135D02*
X1006Y135D01*
X0Y134D02*
X7Y134D01*
X999Y134D02*
X1006Y134D01*
X0Y133D02*
X7Y133D01*
X999Y133D02*
X1006Y133D01*
X0Y132D02*
X7Y132D01*
X999Y132D02*
X1006Y132D01*
X0Y131D02*
X7Y131D01*
X999Y131D02*
X1006Y131D01*
X0Y130D02*
X7Y130D01*
X999Y130D02*
X1006Y130D01*
X0Y129D02*
X7Y129D01*
X999Y129D02*
X1006Y129D01*
X0Y128D02*
X7Y128D01*
X999Y128D02*
X1006Y128D01*
X0Y127D02*
X7Y127D01*
X999Y127D02*
X1006Y127D01*
X0Y126D02*
X7Y126D01*
X999Y126D02*
X1006Y126D01*
X0Y125D02*
X7Y125D01*
X999Y125D02*
X1006Y125D01*
X0Y124D02*
X7Y124D01*
X999Y124D02*
X1006Y124D01*
X0Y123D02*
X7Y123D01*
X999Y123D02*
X1006Y123D01*
X0Y122D02*
X7Y122D01*
X999Y122D02*
X1006Y122D01*
X0Y121D02*
X7Y121D01*
X999Y121D02*
X1006Y121D01*
X0Y120D02*
X7Y120D01*
X999Y120D02*
X1006Y120D01*
X0Y119D02*
X7Y119D01*
X999Y119D02*
X1006Y119D01*
X0Y118D02*
X7Y118D01*
X999Y118D02*
X1006Y118D01*
X0Y117D02*
X7Y117D01*
X999Y117D02*
X1006Y117D01*
X0Y116D02*
X7Y116D01*
X999Y116D02*
X1006Y116D01*
X0Y115D02*
X7Y115D01*
X999Y115D02*
X1006Y115D01*
X0Y114D02*
X7Y114D01*
X999Y114D02*
X1006Y114D01*
X0Y113D02*
X7Y113D01*
X999Y113D02*
X1006Y113D01*
X0Y112D02*
X7Y112D01*
X999Y112D02*
X1006Y112D01*
X0Y111D02*
X7Y111D01*
X999Y111D02*
X1006Y111D01*
X0Y110D02*
X7Y110D01*
X999Y110D02*
X1006Y110D01*
X0Y109D02*
X7Y109D01*
X999Y109D02*
X1006Y109D01*
X0Y108D02*
X7Y108D01*
X999Y108D02*
X1006Y108D01*
X0Y107D02*
X7Y107D01*
X999Y107D02*
X1006Y107D01*
X0Y106D02*
X7Y106D01*
X999Y106D02*
X1006Y106D01*
X0Y105D02*
X7Y105D01*
X999Y105D02*
X1006Y105D01*
X0Y104D02*
X7Y104D01*
X999Y104D02*
X1006Y104D01*
X0Y103D02*
X7Y103D01*
X999Y103D02*
X1006Y103D01*
X0Y102D02*
X7Y102D01*
X999Y102D02*
X1006Y102D01*
X0Y101D02*
X7Y101D01*
X999Y101D02*
X1006Y101D01*
X0Y100D02*
X7Y100D01*
X999Y100D02*
X1006Y100D01*
X0Y99D02*
X7Y99D01*
X999Y99D02*
X1006Y99D01*
X0Y98D02*
X7Y98D01*
X999Y98D02*
X1006Y98D01*
X0Y97D02*
X7Y97D01*
X999Y97D02*
X1006Y97D01*
X0Y96D02*
X7Y96D01*
X999Y96D02*
X1006Y96D01*
X0Y95D02*
X7Y95D01*
X999Y95D02*
X1006Y95D01*
X0Y94D02*
X7Y94D01*
X999Y94D02*
X1006Y94D01*
X0Y93D02*
X7Y93D01*
X999Y93D02*
X1006Y93D01*
X0Y92D02*
X7Y92D01*
X999Y92D02*
X1006Y92D01*
X0Y91D02*
X7Y91D01*
X999Y91D02*
X1006Y91D01*
X0Y90D02*
X7Y90D01*
X999Y90D02*
X1006Y90D01*
X0Y89D02*
X7Y89D01*
X999Y89D02*
X1006Y89D01*
X0Y88D02*
X7Y88D01*
X999Y88D02*
X1006Y88D01*
X0Y87D02*
X7Y87D01*
X999Y87D02*
X1006Y87D01*
X0Y86D02*
X7Y86D01*
X999Y86D02*
X1006Y86D01*
X0Y85D02*
X7Y85D01*
X999Y85D02*
X1006Y85D01*
X0Y84D02*
X7Y84D01*
X999Y84D02*
X1006Y84D01*
X0Y83D02*
X7Y83D01*
X999Y83D02*
X1006Y83D01*
X0Y82D02*
X7Y82D01*
X999Y82D02*
X1006Y82D01*
X0Y81D02*
X7Y81D01*
X999Y81D02*
X1006Y81D01*
X0Y80D02*
X7Y80D01*
X999Y80D02*
X1006Y80D01*
X0Y79D02*
X7Y79D01*
X999Y79D02*
X1006Y79D01*
X0Y78D02*
X7Y78D01*
X999Y78D02*
X1006Y78D01*
X0Y77D02*
X7Y77D01*
X999Y77D02*
X1006Y77D01*
X0Y76D02*
X7Y76D01*
X999Y76D02*
X1006Y76D01*
X0Y75D02*
X7Y75D01*
X999Y75D02*
X1006Y75D01*
X0Y74D02*
X7Y74D01*
X999Y74D02*
X1006Y74D01*
X0Y73D02*
X7Y73D01*
X999Y73D02*
X1006Y73D01*
X0Y72D02*
X7Y72D01*
X999Y72D02*
X1006Y72D01*
X0Y71D02*
X7Y71D01*
X999Y71D02*
X1006Y71D01*
X0Y70D02*
X7Y70D01*
X999Y70D02*
X1006Y70D01*
X0Y69D02*
X7Y69D01*
X999Y69D02*
X1006Y69D01*
X0Y68D02*
X7Y68D01*
X999Y68D02*
X1006Y68D01*
X0Y67D02*
X7Y67D01*
X999Y67D02*
X1006Y67D01*
X0Y66D02*
X7Y66D01*
X999Y66D02*
X1006Y66D01*
X0Y65D02*
X7Y65D01*
X999Y65D02*
X1006Y65D01*
X0Y64D02*
X7Y64D01*
X999Y64D02*
X1006Y64D01*
X0Y63D02*
X7Y63D01*
X999Y63D02*
X1006Y63D01*
X0Y62D02*
X7Y62D01*
X999Y62D02*
X1006Y62D01*
X0Y61D02*
X7Y61D01*
X999Y61D02*
X1006Y61D01*
X0Y60D02*
X7Y60D01*
X999Y60D02*
X1006Y60D01*
X0Y59D02*
X7Y59D01*
X999Y59D02*
X1006Y59D01*
X0Y58D02*
X7Y58D01*
X999Y58D02*
X1006Y58D01*
X0Y57D02*
X7Y57D01*
X999Y57D02*
X1006Y57D01*
X0Y56D02*
X7Y56D01*
X999Y56D02*
X1006Y56D01*
X0Y55D02*
X7Y55D01*
X999Y55D02*
X1006Y55D01*
X0Y54D02*
X7Y54D01*
X999Y54D02*
X1006Y54D01*
X0Y53D02*
X7Y53D01*
X999Y53D02*
X1006Y53D01*
X0Y52D02*
X7Y52D01*
X999Y52D02*
X1006Y52D01*
X0Y51D02*
X7Y51D01*
X999Y51D02*
X1006Y51D01*
X0Y50D02*
X7Y50D01*
X999Y50D02*
X1006Y50D01*
X0Y49D02*
X7Y49D01*
X999Y49D02*
X1006Y49D01*
X0Y48D02*
X7Y48D01*
X999Y48D02*
X1006Y48D01*
X0Y47D02*
X7Y47D01*
X999Y47D02*
X1006Y47D01*
X0Y46D02*
X7Y46D01*
X999Y46D02*
X1006Y46D01*
X0Y45D02*
X7Y45D01*
X999Y45D02*
X1006Y45D01*
X0Y44D02*
X7Y44D01*
X999Y44D02*
X1006Y44D01*
X0Y43D02*
X7Y43D01*
X999Y43D02*
X1006Y43D01*
X0Y42D02*
X7Y42D01*
X999Y42D02*
X1006Y42D01*
X0Y41D02*
X7Y41D01*
X999Y41D02*
X1006Y41D01*
X0Y40D02*
X7Y40D01*
X999Y40D02*
X1006Y40D01*
X0Y39D02*
X7Y39D01*
X999Y39D02*
X1006Y39D01*
X0Y38D02*
X7Y38D01*
X999Y38D02*
X1006Y38D01*
X0Y37D02*
X7Y37D01*
X999Y37D02*
X1006Y37D01*
X0Y36D02*
X7Y36D01*
X999Y36D02*
X1006Y36D01*
X0Y35D02*
X7Y35D01*
X999Y35D02*
X1006Y35D01*
X0Y34D02*
X7Y34D01*
X999Y34D02*
X1006Y34D01*
X0Y33D02*
X7Y33D01*
X999Y33D02*
X1006Y33D01*
X0Y32D02*
X7Y32D01*
X999Y32D02*
X1006Y32D01*
X0Y31D02*
X7Y31D01*
X999Y31D02*
X1006Y31D01*
X0Y30D02*
X7Y30D01*
X999Y30D02*
X1006Y30D01*
X0Y29D02*
X7Y29D01*
X999Y29D02*
X1006Y29D01*
X0Y28D02*
X7Y28D01*
X999Y28D02*
X1006Y28D01*
X0Y27D02*
X7Y27D01*
X999Y27D02*
X1006Y27D01*
X0Y26D02*
X7Y26D01*
X999Y26D02*
X1006Y26D01*
X0Y25D02*
X7Y25D01*
X999Y25D02*
X1006Y25D01*
X0Y24D02*
X7Y24D01*
X999Y24D02*
X1006Y24D01*
X0Y23D02*
X7Y23D01*
X999Y23D02*
X1006Y23D01*
X0Y22D02*
X7Y22D01*
X999Y22D02*
X1006Y22D01*
X0Y21D02*
X7Y21D01*
X999Y21D02*
X1006Y21D01*
X0Y20D02*
X7Y20D01*
X999Y20D02*
X1006Y20D01*
X0Y19D02*
X7Y19D01*
X999Y19D02*
X1006Y19D01*
X0Y18D02*
X7Y18D01*
X999Y18D02*
X1006Y18D01*
X0Y17D02*
X7Y17D01*
X999Y17D02*
X1006Y17D01*
X0Y16D02*
X7Y16D01*
X999Y16D02*
X1006Y16D01*
X0Y15D02*
X7Y15D01*
X999Y15D02*
X1006Y15D01*
X0Y14D02*
X7Y14D01*
X999Y14D02*
X1006Y14D01*
X0Y13D02*
X7Y13D01*
X999Y13D02*
X1006Y13D01*
X0Y12D02*
X7Y12D01*
X999Y12D02*
X1006Y12D01*
X0Y11D02*
X7Y11D01*
X999Y11D02*
X1006Y11D01*
X0Y10D02*
X7Y10D01*
X999Y10D02*
X1006Y10D01*
X0Y9D02*
X7Y9D01*
X999Y9D02*
X1006Y9D01*
X0Y8D02*
X1006Y8D01*
X0Y7D02*
X1006Y7D01*
X0Y6D02*
X1006Y6D01*
X0Y5D02*
X1006Y5D01*
X0Y4D02*
X1006Y4D01*
X0Y3D02*
X1006Y3D01*
X0Y2D02*
X1006Y2D01*
X0Y1D02*
X1006Y1D01*
D02*
G04 End of Silk0*
M02*